%TF.GenerationSoftware,KiCad,Pcbnew,9.0.3*%
%TF.CreationDate,2026-05-26T19:26:16-04:00*%
%TF.ProjectId,Vanguard,56616e67-7561-4726-942e-6b696361645f,rev?*%
%TF.SameCoordinates,Original*%
%TF.FileFunction,Copper,L2,Inr*%
%TF.FilePolarity,Positive*%
%FSLAX46Y46*%
G04 Gerber Fmt 4.6, Leading zero omitted, Abs format (unit mm)*
G04 Created by KiCad (PCBNEW 9.0.3) date 2026-05-26 19:26:16*
%MOMM*%
%LPD*%
G01*
G04 APERTURE LIST*
%TA.AperFunction,ComponentPad*%
%ADD10R,1.700000X1.700000*%
%TD*%
%TA.AperFunction,ComponentPad*%
%ADD11O,1.700000X1.700000*%
%TD*%
%TA.AperFunction,ComponentPad*%
%ADD12O,1.900000X1.050000*%
%TD*%
%TA.AperFunction,ComponentPad*%
%ADD13R,2.000000X2.000000*%
%TD*%
%TA.AperFunction,ComponentPad*%
%ADD14C,2.000000*%
%TD*%
%TA.AperFunction,ViaPad*%
%ADD15C,0.600000*%
%TD*%
G04 APERTURE END LIST*
D10*
%TO.N,C1_P*%
%TO.C,J1*%
X99314000Y-92197000D03*
D11*
%TO.N,GND*%
X99314000Y-94737000D03*
%TD*%
D10*
%TO.N,I2C1_SDA*%
%TO.C,J5*%
X142616000Y-74295000D03*
D11*
%TO.N,I2C1_SCL*%
X145156000Y-74295000D03*
%TD*%
D12*
%TO.N,GND*%
%TO.C,J8*%
X151892000Y-86906000D03*
X151892000Y-79756000D03*
%TD*%
D10*
%TO.N,SERVO_1_PWM*%
%TO.C,J2*%
X128778000Y-74295000D03*
D11*
%TO.N,SERVO_2_PWM*%
X131318000Y-74295000D03*
%TO.N,SERVO_3_PWM*%
X133858000Y-74295000D03*
%TO.N,SERVO_4_PWM*%
X136398000Y-74295000D03*
%TO.N,SERVO_5_PWM*%
X138938000Y-74295000D03*
%TD*%
D10*
%TO.N,GND*%
%TO.C,J4*%
X99314000Y-88392000D03*
D11*
%TO.N,Net-(J4-Pin_2)*%
X99314000Y-85852000D03*
%TO.N,Net-(J4-Pin_3)*%
X99314000Y-83312000D03*
%TO.N,+3.3V*%
X99314000Y-80772000D03*
%TD*%
D13*
%TO.N,C1_M*%
%TO.C,J6*%
X104800000Y-94620000D03*
D14*
%TO.N,C1_P*%
X104800000Y-92080000D03*
%TO.N,C2_M*%
X104800000Y-89540000D03*
%TO.N,C1_P*%
X104800000Y-87000000D03*
%TD*%
D15*
%TO.N,GND*%
X118900000Y-85400000D03*
X101100000Y-88400000D03*
X134600000Y-84100000D03*
X149600000Y-78600000D03*
X121200000Y-94600000D03*
X144800000Y-85000000D03*
X144500000Y-94000000D03*
X107700000Y-94900000D03*
X146800000Y-75800000D03*
X152200000Y-77200000D03*
X150800000Y-96400000D03*
X113300000Y-81000000D03*
X102000000Y-94700000D03*
X146800000Y-74000000D03*
X143900000Y-91800000D03*
X104300000Y-98800000D03*
X106700000Y-98800000D03*
X149600000Y-77200000D03*
X116800000Y-74400000D03*
X139600000Y-85400000D03*
X129300000Y-80700000D03*
X109500000Y-83100000D03*
X143590103Y-81385897D03*
X117400000Y-91400000D03*
X124400000Y-82425000D03*
X146042000Y-78113000D03*
X107700000Y-93400000D03*
X109200000Y-94200000D03*
X137000000Y-87500000D03*
X116500000Y-85400000D03*
X121200000Y-96800000D03*
X148400000Y-74000000D03*
X117400000Y-101200000D03*
X117400000Y-98800000D03*
X117400000Y-96800000D03*
X117800000Y-84400000D03*
X141400000Y-78300000D03*
X107700000Y-84900000D03*
X130200000Y-101981000D03*
X103100000Y-83100000D03*
X147600000Y-99000000D03*
X102000000Y-96700000D03*
X103100000Y-79500000D03*
X111000000Y-81000000D03*
X137100000Y-97600000D03*
X147600000Y-96400000D03*
X146100000Y-94000000D03*
X136300000Y-92300000D03*
X113300000Y-83100000D03*
X119600000Y-89300000D03*
X121200000Y-101200000D03*
X102000000Y-98800000D03*
X109100000Y-96000000D03*
X148200000Y-101400000D03*
X118900000Y-83200000D03*
X111600000Y-86500000D03*
X147800000Y-82031000D03*
X133800000Y-97600000D03*
X135500000Y-96700000D03*
X99400000Y-96800000D03*
X125700000Y-75400000D03*
X104800000Y-84900000D03*
X124714000Y-88773000D03*
X117400000Y-94600000D03*
X139319000Y-102100000D03*
X137100000Y-81800000D03*
X148400000Y-75800000D03*
%TO.N,+3.3V*%
X129400000Y-85600000D03*
X123400000Y-93400000D03*
X144081500Y-77533500D03*
X127508000Y-77597000D03*
X129200000Y-98000000D03*
X137100000Y-102000000D03*
X145669000Y-100358000D03*
X125200000Y-83300000D03*
X140650000Y-80901000D03*
X108526000Y-75438000D03*
X124400000Y-95800000D03*
X132800000Y-96700000D03*
X138000000Y-92300000D03*
X151600000Y-88600000D03*
X104200000Y-100800000D03*
X120650000Y-89281000D03*
%TO.N,VBUS*%
X144145000Y-83586000D03*
%TO.N,I2C1_SDA*%
X145034000Y-81661000D03*
X134250000Y-86550000D03*
X117000000Y-80940000D03*
X124500046Y-100499954D03*
X140300000Y-97500000D03*
X140300000Y-92200000D03*
X123800000Y-81600000D03*
%TO.N,I2C1_SCL*%
X138237000Y-86463000D03*
X143216000Y-79294528D03*
X137900000Y-100330000D03*
X135300000Y-80800000D03*
X124500000Y-98700000D03*
%TO.N,SERVO_4_PWM*%
X134300000Y-77100000D03*
%TO.N,SERVO_3_PWM*%
X133300000Y-77100000D03*
%TO.N,SERVO_5_PWM*%
X135400000Y-77100000D03*
%TO.N,SD_CS*%
X132500000Y-89600000D03*
%TO.N,SPI1_MOSI*%
X131700000Y-92900000D03*
X122900000Y-97700000D03*
%TO.N,SPI1_SCK*%
X130500000Y-91600000D03*
X122900000Y-95900000D03*
%TO.N,SPI1_MISO*%
X119850000Y-98650000D03*
X130650000Y-92550000D03*
%TO.N,BOOT0*%
X125984000Y-74168000D03*
X130628313Y-77271687D03*
%TO.N,SWDIO*%
X137111265Y-84488735D03*
X114100000Y-87100000D03*
%TO.N,SWCLK*%
X107500000Y-81300000D03*
X121800000Y-80600000D03*
X139500000Y-77600000D03*
X112100000Y-80300000D03*
%TO.N,TELEM_CS*%
X124200000Y-91700000D03*
%TD*%
%TA.AperFunction,Conductor*%
%TO.N,+3.3V*%
G36*
X121727177Y-73020185D02*
G01*
X121772932Y-73072989D01*
X121782876Y-73142147D01*
X121753851Y-73205703D01*
X121747819Y-73212181D01*
X121732000Y-73228000D01*
X121732000Y-75318000D01*
X123632000Y-75318000D01*
X123632000Y-73228000D01*
X123616181Y-73212181D01*
X123582696Y-73150858D01*
X123587680Y-73081166D01*
X123629552Y-73025233D01*
X123695016Y-73000816D01*
X123703862Y-73000500D01*
X127387825Y-73000500D01*
X127454864Y-73020185D01*
X127500619Y-73072989D01*
X127510563Y-73142147D01*
X127487092Y-73198810D01*
X127484206Y-73202664D01*
X127484202Y-73202671D01*
X127433908Y-73337517D01*
X127427501Y-73397116D01*
X127427500Y-73397135D01*
X127427500Y-75192870D01*
X127427501Y-75192876D01*
X127433908Y-75252483D01*
X127484202Y-75387328D01*
X127484206Y-75387335D01*
X127570452Y-75502544D01*
X127570455Y-75502547D01*
X127685664Y-75588793D01*
X127685671Y-75588797D01*
X127820517Y-75639091D01*
X127820516Y-75639091D01*
X127827444Y-75639835D01*
X127880127Y-75645500D01*
X129675872Y-75645499D01*
X129735483Y-75639091D01*
X129870331Y-75588796D01*
X129985546Y-75502546D01*
X130071796Y-75387331D01*
X130120810Y-75255916D01*
X130162681Y-75199984D01*
X130228145Y-75175566D01*
X130296418Y-75190417D01*
X130324673Y-75211569D01*
X130438213Y-75325109D01*
X130610179Y-75450048D01*
X130610181Y-75450049D01*
X130610184Y-75450051D01*
X130799588Y-75546557D01*
X131001757Y-75612246D01*
X131211713Y-75645500D01*
X131211714Y-75645500D01*
X131424286Y-75645500D01*
X131424287Y-75645500D01*
X131634243Y-75612246D01*
X131836412Y-75546557D01*
X132025816Y-75450051D01*
X132112138Y-75387335D01*
X132197786Y-75325109D01*
X132197788Y-75325106D01*
X132197792Y-75325104D01*
X132348104Y-75174792D01*
X132348106Y-75174788D01*
X132348109Y-75174786D01*
X132473048Y-75002820D01*
X132473047Y-75002820D01*
X132473051Y-75002816D01*
X132477514Y-74994054D01*
X132525488Y-74943259D01*
X132593308Y-74926463D01*
X132659444Y-74948999D01*
X132698484Y-74994054D01*
X132701514Y-75000000D01*
X132702951Y-75002820D01*
X132827890Y-75174786D01*
X132978213Y-75325109D01*
X133150179Y-75450048D01*
X133150181Y-75450049D01*
X133150184Y-75450051D01*
X133339588Y-75546557D01*
X133541757Y-75612246D01*
X133751713Y-75645500D01*
X133751714Y-75645500D01*
X133964286Y-75645500D01*
X133964287Y-75645500D01*
X134174243Y-75612246D01*
X134376412Y-75546557D01*
X134565816Y-75450051D01*
X134652138Y-75387335D01*
X134737786Y-75325109D01*
X134737788Y-75325106D01*
X134737792Y-75325104D01*
X134888104Y-75174792D01*
X134888106Y-75174788D01*
X134888109Y-75174786D01*
X135013048Y-75002820D01*
X135013047Y-75002820D01*
X135013051Y-75002816D01*
X135017514Y-74994054D01*
X135065488Y-74943259D01*
X135133308Y-74926463D01*
X135199444Y-74948999D01*
X135238484Y-74994054D01*
X135241514Y-75000000D01*
X135242951Y-75002820D01*
X135367890Y-75174786D01*
X135518213Y-75325109D01*
X135690179Y-75450048D01*
X135690181Y-75450049D01*
X135690184Y-75450051D01*
X135879588Y-75546557D01*
X136081757Y-75612246D01*
X136291713Y-75645500D01*
X136291714Y-75645500D01*
X136504286Y-75645500D01*
X136504287Y-75645500D01*
X136714243Y-75612246D01*
X136916412Y-75546557D01*
X137105816Y-75450051D01*
X137192138Y-75387335D01*
X137277786Y-75325109D01*
X137277788Y-75325106D01*
X137277792Y-75325104D01*
X137428104Y-75174792D01*
X137428106Y-75174788D01*
X137428109Y-75174786D01*
X137553048Y-75002820D01*
X137553047Y-75002820D01*
X137553051Y-75002816D01*
X137557514Y-74994054D01*
X137605488Y-74943259D01*
X137673308Y-74926463D01*
X137739444Y-74948999D01*
X137778484Y-74994054D01*
X137781514Y-75000000D01*
X137782951Y-75002820D01*
X137907890Y-75174786D01*
X138058213Y-75325109D01*
X138230179Y-75450048D01*
X138230181Y-75450049D01*
X138230184Y-75450051D01*
X138419588Y-75546557D01*
X138621757Y-75612246D01*
X138831713Y-75645500D01*
X138831714Y-75645500D01*
X139044286Y-75645500D01*
X139044287Y-75645500D01*
X139254243Y-75612246D01*
X139456412Y-75546557D01*
X139645816Y-75450051D01*
X139732138Y-75387335D01*
X139817786Y-75325109D01*
X139817788Y-75325106D01*
X139817792Y-75325104D01*
X139968104Y-75174792D01*
X139968106Y-75174788D01*
X139968109Y-75174786D01*
X140093048Y-75002820D01*
X140093047Y-75002820D01*
X140093051Y-75002816D01*
X140189557Y-74813412D01*
X140255246Y-74611243D01*
X140288500Y-74401287D01*
X140288500Y-74188713D01*
X140255246Y-73978757D01*
X140189557Y-73776588D01*
X140093051Y-73587184D01*
X140093049Y-73587181D01*
X140093048Y-73587179D01*
X139968109Y-73415213D01*
X139817792Y-73264896D01*
X139817788Y-73264893D01*
X139762629Y-73224818D01*
X139719964Y-73169489D01*
X139713985Y-73099876D01*
X139746590Y-73038080D01*
X139807429Y-73003723D01*
X139835515Y-73000500D01*
X141225825Y-73000500D01*
X141292864Y-73020185D01*
X141338619Y-73072989D01*
X141348563Y-73142147D01*
X141325092Y-73198810D01*
X141322206Y-73202664D01*
X141322202Y-73202671D01*
X141271908Y-73337517D01*
X141265501Y-73397116D01*
X141265500Y-73397135D01*
X141265500Y-75192870D01*
X141265501Y-75192876D01*
X141271908Y-75252483D01*
X141322202Y-75387328D01*
X141322206Y-75387335D01*
X141408452Y-75502544D01*
X141408455Y-75502547D01*
X141523664Y-75588793D01*
X141523671Y-75588797D01*
X141658517Y-75639091D01*
X141658516Y-75639091D01*
X141665444Y-75639835D01*
X141718127Y-75645500D01*
X143513872Y-75645499D01*
X143573483Y-75639091D01*
X143708331Y-75588796D01*
X143823546Y-75502546D01*
X143909796Y-75387331D01*
X143958810Y-75255916D01*
X144000681Y-75199984D01*
X144066145Y-75175566D01*
X144134418Y-75190417D01*
X144162673Y-75211569D01*
X144276213Y-75325109D01*
X144448179Y-75450048D01*
X144448181Y-75450049D01*
X144448184Y-75450051D01*
X144637588Y-75546557D01*
X144839757Y-75612246D01*
X145049713Y-75645500D01*
X145049714Y-75645500D01*
X145262286Y-75645500D01*
X145262287Y-75645500D01*
X145472243Y-75612246D01*
X145674412Y-75546557D01*
X145847024Y-75458606D01*
X145915692Y-75445711D01*
X145980433Y-75471987D01*
X146020690Y-75529094D01*
X146024935Y-75593283D01*
X145999500Y-75721153D01*
X145999500Y-75878846D01*
X146030261Y-76033489D01*
X146030264Y-76033501D01*
X146090602Y-76179172D01*
X146090609Y-76179185D01*
X146178210Y-76310288D01*
X146178213Y-76310292D01*
X146289707Y-76421786D01*
X146289711Y-76421789D01*
X146420814Y-76509390D01*
X146420827Y-76509397D01*
X146548761Y-76562388D01*
X146566503Y-76569737D01*
X146721153Y-76600499D01*
X146721156Y-76600500D01*
X146721158Y-76600500D01*
X146878844Y-76600500D01*
X146878845Y-76600499D01*
X147033497Y-76569737D01*
X147146166Y-76523067D01*
X147179172Y-76509397D01*
X147179172Y-76509396D01*
X147179179Y-76509394D01*
X147310289Y-76421789D01*
X147421789Y-76310289D01*
X147474112Y-76231981D01*
X147496898Y-76197881D01*
X147550510Y-76153076D01*
X147619835Y-76144369D01*
X147682863Y-76174523D01*
X147703102Y-76197881D01*
X147778210Y-76310288D01*
X147778213Y-76310292D01*
X147889707Y-76421786D01*
X147889711Y-76421789D01*
X148020814Y-76509390D01*
X148020827Y-76509397D01*
X148148761Y-76562388D01*
X148166503Y-76569737D01*
X148321153Y-76600499D01*
X148321156Y-76600500D01*
X148321158Y-76600500D01*
X148478844Y-76600500D01*
X148478845Y-76600499D01*
X148633497Y-76569737D01*
X148746166Y-76523067D01*
X148779172Y-76509397D01*
X148779172Y-76509396D01*
X148779179Y-76509394D01*
X148910289Y-76421789D01*
X149021789Y-76310289D01*
X149109394Y-76179179D01*
X149119374Y-76155084D01*
X149122681Y-76150979D01*
X149123676Y-76145800D01*
X149144376Y-76124056D01*
X149163212Y-76100682D01*
X149168215Y-76099016D01*
X149171853Y-76095196D01*
X149201021Y-76088096D01*
X149229505Y-76078615D01*
X149234616Y-76079919D01*
X149239741Y-76078672D01*
X149268114Y-76088468D01*
X149297205Y-76095892D01*
X149302035Y-76100179D01*
X149305785Y-76101474D01*
X149331347Y-76125810D01*
X149331838Y-76126434D01*
X149405735Y-76222738D01*
X149414948Y-76231951D01*
X149419492Y-76237720D01*
X149429879Y-76263609D01*
X149443246Y-76288088D01*
X149442709Y-76295585D01*
X149445510Y-76302565D01*
X149440251Y-76329960D01*
X149438262Y-76357780D01*
X149433756Y-76363798D01*
X149432339Y-76371182D01*
X149413105Y-76391384D01*
X149396390Y-76413713D01*
X149389346Y-76416339D01*
X149384162Y-76421786D01*
X149369533Y-76429007D01*
X149220824Y-76490604D01*
X149220809Y-76490612D01*
X149130842Y-76550725D01*
X149130826Y-76550738D01*
X149089711Y-76578211D01*
X149029038Y-76638883D01*
X149029016Y-76638903D01*
X148978214Y-76689706D01*
X148978210Y-76689711D01*
X148890609Y-76820814D01*
X148890602Y-76820827D01*
X148830264Y-76966498D01*
X148830261Y-76966510D01*
X148799500Y-77121153D01*
X148799500Y-77278846D01*
X148830261Y-77433489D01*
X148830264Y-77433501D01*
X148890602Y-77579172D01*
X148890609Y-77579185D01*
X148978210Y-77710288D01*
X148978213Y-77710292D01*
X149080240Y-77812319D01*
X149113725Y-77873642D01*
X149108741Y-77943334D01*
X149080240Y-77987681D01*
X148978213Y-78089707D01*
X148978210Y-78089711D01*
X148890609Y-78220814D01*
X148890602Y-78220827D01*
X148830264Y-78366498D01*
X148830261Y-78366510D01*
X148799500Y-78521153D01*
X148799500Y-78678846D01*
X148830261Y-78833489D01*
X148830264Y-78833501D01*
X148890602Y-78979172D01*
X148890609Y-78979185D01*
X148978210Y-79110288D01*
X148978213Y-79110292D01*
X149089707Y-79221786D01*
X149089711Y-79221789D01*
X149220814Y-79309390D01*
X149220827Y-79309397D01*
X149366498Y-79369735D01*
X149366503Y-79369737D01*
X149521153Y-79400499D01*
X149521156Y-79400500D01*
X149521158Y-79400500D01*
X149678844Y-79400500D01*
X149678845Y-79400499D01*
X149833497Y-79369737D01*
X149979179Y-79309394D01*
X150110289Y-79221789D01*
X150221789Y-79110289D01*
X150309394Y-78979179D01*
X150369737Y-78833497D01*
X150400500Y-78678842D01*
X150400500Y-78521158D01*
X150400500Y-78521155D01*
X150400499Y-78521153D01*
X150372192Y-78378846D01*
X150369737Y-78366503D01*
X150309534Y-78221158D01*
X150309397Y-78220827D01*
X150309390Y-78220814D01*
X150221789Y-78089711D01*
X150221786Y-78089707D01*
X150119760Y-77987681D01*
X150086275Y-77926358D01*
X150091259Y-77856666D01*
X150119760Y-77812319D01*
X150221786Y-77710292D01*
X150221789Y-77710289D01*
X150309394Y-77579179D01*
X150369737Y-77433497D01*
X150400500Y-77278842D01*
X150400500Y-77121158D01*
X150400500Y-77121155D01*
X150372066Y-76978211D01*
X150371492Y-76975326D01*
X150377719Y-76905735D01*
X150420582Y-76850558D01*
X150486471Y-76827313D01*
X150509293Y-76828195D01*
X150525002Y-76830264D01*
X150678711Y-76850500D01*
X150678712Y-76850500D01*
X150921289Y-76850500D01*
X150969388Y-76844167D01*
X151161789Y-76818838D01*
X151289703Y-76784563D01*
X151359551Y-76786226D01*
X151417414Y-76825388D01*
X151444918Y-76889616D01*
X151436358Y-76951785D01*
X151430265Y-76966495D01*
X151430261Y-76966510D01*
X151399500Y-77121153D01*
X151399500Y-77278846D01*
X151430261Y-77433489D01*
X151430264Y-77433501D01*
X151490602Y-77579172D01*
X151490609Y-77579185D01*
X151578210Y-77710288D01*
X151578213Y-77710292D01*
X151689707Y-77821786D01*
X151689711Y-77821789D01*
X151820814Y-77909390D01*
X151820827Y-77909397D01*
X151966498Y-77969735D01*
X151966503Y-77969737D01*
X152121153Y-78000499D01*
X152121156Y-78000500D01*
X152121158Y-78000500D01*
X152278844Y-78000500D01*
X152278845Y-78000499D01*
X152433497Y-77969737D01*
X152551592Y-77920821D01*
X152579172Y-77909397D01*
X152579172Y-77909396D01*
X152579179Y-77909394D01*
X152686610Y-77837610D01*
X152753286Y-77816733D01*
X152820666Y-77835217D01*
X152867357Y-77887196D01*
X152879500Y-77940713D01*
X152879500Y-78693422D01*
X152859815Y-78760461D01*
X152807011Y-78806216D01*
X152737853Y-78816160D01*
X152708048Y-78807983D01*
X152616131Y-78769910D01*
X152616119Y-78769907D01*
X152418007Y-78730500D01*
X152418003Y-78730500D01*
X151365997Y-78730500D01*
X151365992Y-78730500D01*
X151167880Y-78769907D01*
X151167872Y-78769909D01*
X150981247Y-78847212D01*
X150981237Y-78847217D01*
X150813281Y-78959441D01*
X150670441Y-79102281D01*
X150558217Y-79270237D01*
X150558212Y-79270247D01*
X150480909Y-79456872D01*
X150480907Y-79456880D01*
X150441500Y-79654992D01*
X150441500Y-79857007D01*
X150480907Y-80055119D01*
X150480909Y-80055127D01*
X150558212Y-80241752D01*
X150558217Y-80241762D01*
X150670441Y-80409718D01*
X150813281Y-80552558D01*
X150981237Y-80664782D01*
X150981241Y-80664784D01*
X150981244Y-80664786D01*
X151167873Y-80742091D01*
X151290627Y-80766508D01*
X151365992Y-80781499D01*
X151365996Y-80781500D01*
X151365997Y-80781500D01*
X152418004Y-80781500D01*
X152418005Y-80781499D01*
X152616127Y-80742091D01*
X152708047Y-80704015D01*
X152777516Y-80696547D01*
X152839996Y-80727822D01*
X152875648Y-80787911D01*
X152879500Y-80818577D01*
X152879500Y-85843422D01*
X152859815Y-85910461D01*
X152807011Y-85956216D01*
X152737853Y-85966160D01*
X152708048Y-85957983D01*
X152616131Y-85919910D01*
X152616119Y-85919907D01*
X152418007Y-85880500D01*
X152418003Y-85880500D01*
X151365997Y-85880500D01*
X151365992Y-85880500D01*
X151167880Y-85919907D01*
X151167872Y-85919909D01*
X150981247Y-85997212D01*
X150981237Y-85997217D01*
X150813281Y-86109441D01*
X150670441Y-86252281D01*
X150558217Y-86420237D01*
X150558212Y-86420247D01*
X150480909Y-86606872D01*
X150480907Y-86606880D01*
X150441500Y-86804992D01*
X150441500Y-87007007D01*
X150480907Y-87205119D01*
X150480909Y-87205127D01*
X150558212Y-87391752D01*
X150558217Y-87391762D01*
X150670441Y-87559718D01*
X150813281Y-87702558D01*
X150981237Y-87814782D01*
X150981241Y-87814784D01*
X150981244Y-87814786D01*
X151167873Y-87892091D01*
X151365992Y-87931499D01*
X151365996Y-87931500D01*
X151365997Y-87931500D01*
X152418004Y-87931500D01*
X152418005Y-87931499D01*
X152616127Y-87892091D01*
X152708047Y-87854015D01*
X152777516Y-87846547D01*
X152839996Y-87877822D01*
X152875648Y-87937911D01*
X152879500Y-87968577D01*
X152879500Y-100126264D01*
X152859815Y-100193303D01*
X152807011Y-100239058D01*
X152737853Y-100249002D01*
X152674297Y-100219977D01*
X152636523Y-100161199D01*
X152632561Y-100142449D01*
X152618838Y-100038214D01*
X152618838Y-100038211D01*
X152556054Y-99803900D01*
X152463224Y-99579788D01*
X152341936Y-99369711D01*
X152237416Y-99233497D01*
X152194266Y-99177263D01*
X152194260Y-99177256D01*
X152022743Y-99005739D01*
X152022736Y-99005733D01*
X151830293Y-98858067D01*
X151830292Y-98858066D01*
X151830289Y-98858064D01*
X151658661Y-98758974D01*
X151620214Y-98736777D01*
X151620205Y-98736773D01*
X151396104Y-98643947D01*
X151278944Y-98612554D01*
X151161789Y-98581162D01*
X151161788Y-98581161D01*
X151161785Y-98581161D01*
X150921289Y-98549500D01*
X150921288Y-98549500D01*
X150678712Y-98549500D01*
X150678711Y-98549500D01*
X150438214Y-98581161D01*
X150203895Y-98643947D01*
X149979794Y-98736773D01*
X149979785Y-98736777D01*
X149769706Y-98858067D01*
X149577263Y-99005733D01*
X149577256Y-99005739D01*
X149405739Y-99177256D01*
X149405733Y-99177263D01*
X149258067Y-99369706D01*
X149136777Y-99579785D01*
X149136773Y-99579794D01*
X149043947Y-99803895D01*
X148981161Y-100038214D01*
X148949500Y-100278711D01*
X148949500Y-100521288D01*
X148977039Y-100730474D01*
X148966273Y-100799509D01*
X148919893Y-100851765D01*
X148852624Y-100870650D01*
X148785824Y-100850169D01*
X148766419Y-100834340D01*
X148710292Y-100778213D01*
X148710288Y-100778210D01*
X148579185Y-100690609D01*
X148579172Y-100690602D01*
X148433501Y-100630264D01*
X148433489Y-100630261D01*
X148278845Y-100599500D01*
X148278842Y-100599500D01*
X148121158Y-100599500D01*
X148121155Y-100599500D01*
X147966510Y-100630261D01*
X147966498Y-100630264D01*
X147820827Y-100690602D01*
X147820814Y-100690609D01*
X147689711Y-100778210D01*
X147689707Y-100778213D01*
X147578213Y-100889707D01*
X147578210Y-100889711D01*
X147490609Y-101020814D01*
X147490602Y-101020827D01*
X147430264Y-101166498D01*
X147430261Y-101166510D01*
X147399500Y-101321153D01*
X147399500Y-101478846D01*
X147430261Y-101633489D01*
X147430264Y-101633501D01*
X147490602Y-101779172D01*
X147490609Y-101779185D01*
X147578210Y-101910288D01*
X147578213Y-101910292D01*
X147689707Y-102021786D01*
X147689711Y-102021789D01*
X147820814Y-102109390D01*
X147820827Y-102109397D01*
X147933464Y-102156052D01*
X147966503Y-102169737D01*
X148121153Y-102200499D01*
X148121156Y-102200500D01*
X148121158Y-102200500D01*
X148278844Y-102200500D01*
X148278845Y-102200499D01*
X148433497Y-102169737D01*
X148579179Y-102109394D01*
X148710289Y-102021789D01*
X148821789Y-101910289D01*
X148909394Y-101779179D01*
X148969737Y-101633497D01*
X149000500Y-101478842D01*
X149000500Y-101446948D01*
X149020185Y-101379909D01*
X149072989Y-101334154D01*
X149142147Y-101324210D01*
X149205703Y-101353235D01*
X149231884Y-101384945D01*
X149258064Y-101430289D01*
X149258066Y-101430292D01*
X149258067Y-101430293D01*
X149405733Y-101622736D01*
X149405739Y-101622743D01*
X149577256Y-101794260D01*
X149577262Y-101794265D01*
X149769711Y-101941936D01*
X149979788Y-102063224D01*
X150203900Y-102156054D01*
X150438211Y-102218838D01*
X150531046Y-102231059D01*
X150542449Y-102232561D01*
X150606346Y-102260827D01*
X150644817Y-102319152D01*
X150645648Y-102389016D01*
X150608576Y-102448240D01*
X150545370Y-102478019D01*
X150526264Y-102479500D01*
X140210790Y-102479500D01*
X140143751Y-102459815D01*
X140097996Y-102407011D01*
X140088052Y-102337853D01*
X140089173Y-102331309D01*
X140119499Y-102178846D01*
X140119500Y-102178844D01*
X140119500Y-102021155D01*
X140119499Y-102021153D01*
X140109271Y-101969735D01*
X140088737Y-101866503D01*
X140058816Y-101794266D01*
X140028397Y-101720827D01*
X140028390Y-101720814D01*
X139940789Y-101589711D01*
X139940786Y-101589707D01*
X139829292Y-101478213D01*
X139829288Y-101478210D01*
X139698185Y-101390609D01*
X139698172Y-101390602D01*
X139552501Y-101330264D01*
X139552489Y-101330261D01*
X139397845Y-101299500D01*
X139397842Y-101299500D01*
X139240158Y-101299500D01*
X139240155Y-101299500D01*
X139085510Y-101330261D01*
X139085498Y-101330264D01*
X138939827Y-101390602D01*
X138939814Y-101390609D01*
X138808711Y-101478210D01*
X138808707Y-101478213D01*
X138697213Y-101589707D01*
X138697210Y-101589711D01*
X138609609Y-101720814D01*
X138609602Y-101720827D01*
X138549264Y-101866498D01*
X138549261Y-101866510D01*
X138518500Y-102021153D01*
X138518500Y-102178846D01*
X138548827Y-102331309D01*
X138542600Y-102400900D01*
X138499737Y-102456078D01*
X138433847Y-102479322D01*
X138427210Y-102479500D01*
X131045549Y-102479500D01*
X130978510Y-102459815D01*
X130932755Y-102407011D01*
X130922811Y-102337853D01*
X130930988Y-102308048D01*
X130969735Y-102214501D01*
X130969737Y-102214497D01*
X131000500Y-102059842D01*
X131000500Y-101902158D01*
X131000500Y-101902155D01*
X131000499Y-101902153D01*
X130988945Y-101844068D01*
X130969737Y-101747503D01*
X130951439Y-101703328D01*
X130909397Y-101601827D01*
X130909390Y-101601814D01*
X130821789Y-101470711D01*
X130821786Y-101470707D01*
X130710292Y-101359213D01*
X130710288Y-101359210D01*
X130579185Y-101271609D01*
X130579172Y-101271602D01*
X130433501Y-101211264D01*
X130433489Y-101211261D01*
X130278845Y-101180500D01*
X130278842Y-101180500D01*
X130121158Y-101180500D01*
X130121155Y-101180500D01*
X129966510Y-101211261D01*
X129966498Y-101211264D01*
X129820827Y-101271602D01*
X129820814Y-101271609D01*
X129689711Y-101359210D01*
X129689707Y-101359213D01*
X129578213Y-101470707D01*
X129578210Y-101470711D01*
X129490609Y-101601814D01*
X129490602Y-101601827D01*
X129430264Y-101747498D01*
X129430261Y-101747510D01*
X129399500Y-101902153D01*
X129399500Y-102059846D01*
X129430261Y-102214489D01*
X129430264Y-102214501D01*
X129469012Y-102308048D01*
X129476481Y-102377518D01*
X129445205Y-102439997D01*
X129385116Y-102475648D01*
X129354451Y-102479500D01*
X100273736Y-102479500D01*
X100206697Y-102459815D01*
X100160942Y-102407011D01*
X100150998Y-102337853D01*
X100180023Y-102274297D01*
X100238801Y-102236523D01*
X100257551Y-102232561D01*
X100266343Y-102231403D01*
X100361789Y-102218838D01*
X100596100Y-102156054D01*
X100820212Y-102063224D01*
X101030289Y-101941936D01*
X101222738Y-101794265D01*
X101394265Y-101622738D01*
X101541936Y-101430289D01*
X101663224Y-101220212D01*
X101664030Y-101218266D01*
X101704256Y-101121153D01*
X116599500Y-101121153D01*
X116599500Y-101278846D01*
X116630261Y-101433489D01*
X116630264Y-101433501D01*
X116690602Y-101579172D01*
X116690609Y-101579185D01*
X116778210Y-101710288D01*
X116778213Y-101710292D01*
X116889707Y-101821786D01*
X116889711Y-101821789D01*
X117020814Y-101909390D01*
X117020827Y-101909397D01*
X117166498Y-101969735D01*
X117166503Y-101969737D01*
X117321153Y-102000499D01*
X117321156Y-102000500D01*
X117321158Y-102000500D01*
X117478844Y-102000500D01*
X117478845Y-102000499D01*
X117633497Y-101969737D01*
X117779179Y-101909394D01*
X117910289Y-101821789D01*
X118021789Y-101710289D01*
X118109394Y-101579179D01*
X118169737Y-101433497D01*
X118200500Y-101278842D01*
X118200500Y-101121158D01*
X118200500Y-101121155D01*
X118200499Y-101121153D01*
X120399500Y-101121153D01*
X120399500Y-101278846D01*
X120430261Y-101433489D01*
X120430264Y-101433501D01*
X120490602Y-101579172D01*
X120490609Y-101579185D01*
X120578210Y-101710288D01*
X120578213Y-101710292D01*
X120689707Y-101821786D01*
X120689711Y-101821789D01*
X120820814Y-101909390D01*
X120820827Y-101909397D01*
X120966498Y-101969735D01*
X120966503Y-101969737D01*
X121121153Y-102000499D01*
X121121156Y-102000500D01*
X121121158Y-102000500D01*
X121278844Y-102000500D01*
X121278845Y-102000499D01*
X121433497Y-101969737D01*
X121579179Y-101909394D01*
X121710289Y-101821789D01*
X121821789Y-101710289D01*
X121909394Y-101579179D01*
X121969737Y-101433497D01*
X122000500Y-101278842D01*
X122000500Y-101121158D01*
X122000500Y-101121155D01*
X122000499Y-101121153D01*
X121989849Y-101067611D01*
X121969737Y-100966503D01*
X121937929Y-100889711D01*
X121909397Y-100820827D01*
X121909390Y-100820814D01*
X121821789Y-100689711D01*
X121821786Y-100689707D01*
X121710292Y-100578213D01*
X121710288Y-100578210D01*
X121579185Y-100490609D01*
X121579172Y-100490602D01*
X121433501Y-100430264D01*
X121433489Y-100430261D01*
X121278845Y-100399500D01*
X121278842Y-100399500D01*
X121121158Y-100399500D01*
X121121155Y-100399500D01*
X120966510Y-100430261D01*
X120966498Y-100430264D01*
X120820827Y-100490602D01*
X120820814Y-100490609D01*
X120689711Y-100578210D01*
X120689707Y-100578213D01*
X120578213Y-100689707D01*
X120578210Y-100689711D01*
X120490609Y-100820814D01*
X120490602Y-100820827D01*
X120430264Y-100966498D01*
X120430261Y-100966510D01*
X120399500Y-101121153D01*
X118200499Y-101121153D01*
X118189849Y-101067611D01*
X118169737Y-100966503D01*
X118137929Y-100889711D01*
X118109397Y-100820827D01*
X118109390Y-100820814D01*
X118021789Y-100689711D01*
X118021786Y-100689707D01*
X117910292Y-100578213D01*
X117910288Y-100578210D01*
X117779185Y-100490609D01*
X117779172Y-100490602D01*
X117633501Y-100430264D01*
X117633489Y-100430261D01*
X117478845Y-100399500D01*
X117478842Y-100399500D01*
X117321158Y-100399500D01*
X117321155Y-100399500D01*
X117166510Y-100430261D01*
X117166498Y-100430264D01*
X117020827Y-100490602D01*
X117020814Y-100490609D01*
X116889711Y-100578210D01*
X116889707Y-100578213D01*
X116778213Y-100689707D01*
X116778210Y-100689711D01*
X116690609Y-100820814D01*
X116690602Y-100820827D01*
X116630264Y-100966498D01*
X116630261Y-100966510D01*
X116599500Y-101121153D01*
X101704256Y-101121153D01*
X101726433Y-101067613D01*
X101726433Y-101067611D01*
X101750195Y-101010246D01*
X101756054Y-100996100D01*
X101818838Y-100761789D01*
X101850500Y-100521288D01*
X101850500Y-100278712D01*
X101849254Y-100269251D01*
X101829708Y-100120781D01*
X101818838Y-100038211D01*
X101756054Y-99803900D01*
X101738190Y-99760774D01*
X101730722Y-99691306D01*
X101761997Y-99628827D01*
X101822085Y-99593174D01*
X101876943Y-99591705D01*
X101907130Y-99597709D01*
X101921157Y-99600500D01*
X101921158Y-99600500D01*
X102078844Y-99600500D01*
X102078845Y-99600499D01*
X102233497Y-99569737D01*
X102379179Y-99509394D01*
X102510289Y-99421789D01*
X102621789Y-99310289D01*
X102709394Y-99179179D01*
X102769737Y-99033497D01*
X102800500Y-98878842D01*
X102800500Y-98721158D01*
X102800500Y-98721155D01*
X102800499Y-98721153D01*
X103499500Y-98721153D01*
X103499500Y-98878846D01*
X103530261Y-99033489D01*
X103530264Y-99033501D01*
X103590602Y-99179172D01*
X103590609Y-99179185D01*
X103678210Y-99310288D01*
X103678213Y-99310292D01*
X103789707Y-99421786D01*
X103789711Y-99421789D01*
X103920814Y-99509390D01*
X103920827Y-99509397D01*
X104043633Y-99560264D01*
X104066503Y-99569737D01*
X104176943Y-99591705D01*
X104221153Y-99600499D01*
X104221156Y-99600500D01*
X104221158Y-99600500D01*
X104378844Y-99600500D01*
X104378845Y-99600499D01*
X104533497Y-99569737D01*
X104679179Y-99509394D01*
X104810289Y-99421789D01*
X104921789Y-99310289D01*
X105009394Y-99179179D01*
X105069737Y-99033497D01*
X105100500Y-98878842D01*
X105100500Y-98721158D01*
X105100500Y-98721155D01*
X105100499Y-98721153D01*
X105899500Y-98721153D01*
X105899500Y-98878846D01*
X105930261Y-99033489D01*
X105930264Y-99033501D01*
X105990602Y-99179172D01*
X105990609Y-99179185D01*
X106078210Y-99310288D01*
X106078213Y-99310292D01*
X106189707Y-99421786D01*
X106189711Y-99421789D01*
X106320814Y-99509390D01*
X106320827Y-99509397D01*
X106443633Y-99560264D01*
X106466503Y-99569737D01*
X106576943Y-99591705D01*
X106621153Y-99600499D01*
X106621156Y-99600500D01*
X106621158Y-99600500D01*
X106778844Y-99600500D01*
X106778845Y-99600499D01*
X106933497Y-99569737D01*
X107079179Y-99509394D01*
X107210289Y-99421789D01*
X107321789Y-99310289D01*
X107409394Y-99179179D01*
X107469737Y-99033497D01*
X107500500Y-98878842D01*
X107500500Y-98721158D01*
X107500500Y-98721155D01*
X107500499Y-98721153D01*
X116599500Y-98721153D01*
X116599500Y-98878846D01*
X116630261Y-99033489D01*
X116630264Y-99033501D01*
X116690602Y-99179172D01*
X116690609Y-99179185D01*
X116778210Y-99310288D01*
X116778213Y-99310292D01*
X116889707Y-99421786D01*
X116889711Y-99421789D01*
X117020814Y-99509390D01*
X117020827Y-99509397D01*
X117143633Y-99560264D01*
X117166503Y-99569737D01*
X117276943Y-99591705D01*
X117321153Y-99600499D01*
X117321156Y-99600500D01*
X117321158Y-99600500D01*
X117478844Y-99600500D01*
X117478845Y-99600499D01*
X117633497Y-99569737D01*
X117779179Y-99509394D01*
X117910289Y-99421789D01*
X118021789Y-99310289D01*
X118109394Y-99179179D01*
X118169737Y-99033497D01*
X118200500Y-98878842D01*
X118200500Y-98721158D01*
X118200500Y-98721155D01*
X118200499Y-98721153D01*
X118174264Y-98589257D01*
X118170662Y-98571153D01*
X119049500Y-98571153D01*
X119049500Y-98728846D01*
X119080261Y-98883489D01*
X119080264Y-98883501D01*
X119140602Y-99029172D01*
X119140609Y-99029185D01*
X119228210Y-99160288D01*
X119228213Y-99160292D01*
X119339707Y-99271786D01*
X119339711Y-99271789D01*
X119470814Y-99359390D01*
X119470827Y-99359397D01*
X119616498Y-99419735D01*
X119616503Y-99419737D01*
X119771153Y-99450499D01*
X119771156Y-99450500D01*
X119771158Y-99450500D01*
X119928844Y-99450500D01*
X119928845Y-99450499D01*
X120083497Y-99419737D01*
X120229179Y-99359394D01*
X120360289Y-99271789D01*
X120471789Y-99160289D01*
X120559394Y-99029179D01*
X120619737Y-98883497D01*
X120650500Y-98728842D01*
X120650500Y-98621153D01*
X123699500Y-98621153D01*
X123699500Y-98778846D01*
X123730261Y-98933489D01*
X123730264Y-98933501D01*
X123790602Y-99079172D01*
X123790609Y-99079185D01*
X123878210Y-99210288D01*
X123878213Y-99210292D01*
X123989707Y-99321786D01*
X123989711Y-99321789D01*
X124120814Y-99409390D01*
X124120827Y-99409397D01*
X124220060Y-99450500D01*
X124266503Y-99469737D01*
X124309874Y-99478364D01*
X124371784Y-99510748D01*
X124406358Y-99571464D01*
X124402619Y-99641233D01*
X124361753Y-99697905D01*
X124309875Y-99721598D01*
X124266553Y-99730215D01*
X124266544Y-99730218D01*
X124120873Y-99790556D01*
X124120860Y-99790563D01*
X123989757Y-99878164D01*
X123989753Y-99878167D01*
X123878259Y-99989661D01*
X123878256Y-99989665D01*
X123790655Y-100120768D01*
X123790648Y-100120781D01*
X123730310Y-100266452D01*
X123730307Y-100266464D01*
X123699546Y-100421107D01*
X123699546Y-100578800D01*
X123730307Y-100733443D01*
X123730310Y-100733455D01*
X123790648Y-100879126D01*
X123790655Y-100879139D01*
X123878256Y-101010242D01*
X123878259Y-101010246D01*
X123989753Y-101121740D01*
X123989757Y-101121743D01*
X124120860Y-101209344D01*
X124120873Y-101209351D01*
X124237484Y-101257652D01*
X124266549Y-101269691D01*
X124416408Y-101299500D01*
X124421199Y-101300453D01*
X124421202Y-101300454D01*
X124421204Y-101300454D01*
X124578890Y-101300454D01*
X124578891Y-101300453D01*
X124733543Y-101269691D01*
X124857695Y-101218266D01*
X124879218Y-101209351D01*
X124879218Y-101209350D01*
X124879225Y-101209348D01*
X125010335Y-101121743D01*
X125121835Y-101010243D01*
X125209440Y-100879133D01*
X125269783Y-100733451D01*
X125300546Y-100578796D01*
X125300546Y-100421112D01*
X125300546Y-100421109D01*
X125270340Y-100269258D01*
X125270340Y-100269257D01*
X125270339Y-100269256D01*
X125269783Y-100266457D01*
X125263444Y-100251153D01*
X137099500Y-100251153D01*
X137099500Y-100408846D01*
X137130261Y-100563489D01*
X137130264Y-100563501D01*
X137190602Y-100709172D01*
X137190609Y-100709185D01*
X137278210Y-100840288D01*
X137278213Y-100840292D01*
X137389707Y-100951786D01*
X137389711Y-100951789D01*
X137520814Y-101039390D01*
X137520827Y-101039397D01*
X137666498Y-101099735D01*
X137666503Y-101099737D01*
X137777119Y-101121740D01*
X137821153Y-101130499D01*
X137821156Y-101130500D01*
X137821158Y-101130500D01*
X137978844Y-101130500D01*
X137978845Y-101130499D01*
X138133497Y-101099737D01*
X138279179Y-101039394D01*
X138410289Y-100951789D01*
X138521789Y-100840289D01*
X138609394Y-100709179D01*
X138669737Y-100563497D01*
X138700500Y-100408842D01*
X138700500Y-100251158D01*
X138700500Y-100251155D01*
X138700499Y-100251153D01*
X138674565Y-100120775D01*
X138669737Y-100096503D01*
X138625482Y-99989661D01*
X138609397Y-99950827D01*
X138609390Y-99950814D01*
X138521789Y-99819711D01*
X138521786Y-99819707D01*
X138410292Y-99708213D01*
X138410288Y-99708210D01*
X138279185Y-99620609D01*
X138279172Y-99620602D01*
X138133501Y-99560264D01*
X138133489Y-99560261D01*
X137978845Y-99529500D01*
X137978842Y-99529500D01*
X137821158Y-99529500D01*
X137821155Y-99529500D01*
X137666510Y-99560261D01*
X137666498Y-99560264D01*
X137520827Y-99620602D01*
X137520814Y-99620609D01*
X137389711Y-99708210D01*
X137389707Y-99708213D01*
X137278213Y-99819707D01*
X137278210Y-99819711D01*
X137190609Y-99950814D01*
X137190602Y-99950827D01*
X137130264Y-100096498D01*
X137130261Y-100096510D01*
X137099500Y-100251153D01*
X125263444Y-100251153D01*
X125211714Y-100126264D01*
X125209443Y-100120781D01*
X125209436Y-100120768D01*
X125121835Y-99989665D01*
X125121832Y-99989661D01*
X125010338Y-99878167D01*
X125010334Y-99878164D01*
X124879231Y-99790563D01*
X124879218Y-99790556D01*
X124733547Y-99730218D01*
X124733537Y-99730215D01*
X124690171Y-99721589D01*
X124628260Y-99689204D01*
X124593686Y-99628487D01*
X124597427Y-99558718D01*
X124638293Y-99502046D01*
X124690170Y-99478355D01*
X124733497Y-99469737D01*
X124879179Y-99409394D01*
X125010289Y-99321789D01*
X125121789Y-99210289D01*
X125209394Y-99079179D01*
X125269737Y-98933497D01*
X125272192Y-98921153D01*
X146799500Y-98921153D01*
X146799500Y-99078846D01*
X146830261Y-99233489D01*
X146830264Y-99233501D01*
X146890602Y-99379172D01*
X146890609Y-99379185D01*
X146978210Y-99510288D01*
X146978213Y-99510292D01*
X147089707Y-99621786D01*
X147089711Y-99621789D01*
X147220814Y-99709390D01*
X147220827Y-99709397D01*
X147366498Y-99769735D01*
X147366503Y-99769737D01*
X147471187Y-99790560D01*
X147521153Y-99800499D01*
X147521156Y-99800500D01*
X147521158Y-99800500D01*
X147678844Y-99800500D01*
X147678845Y-99800499D01*
X147833497Y-99769737D01*
X147979179Y-99709394D01*
X148110289Y-99621789D01*
X148221789Y-99510289D01*
X148309394Y-99379179D01*
X148369737Y-99233497D01*
X148400500Y-99078842D01*
X148400500Y-98921158D01*
X148400500Y-98921155D01*
X148400499Y-98921153D01*
X148394476Y-98890873D01*
X148369737Y-98766503D01*
X148354138Y-98728844D01*
X148309397Y-98620827D01*
X148309390Y-98620814D01*
X148221789Y-98489711D01*
X148221786Y-98489707D01*
X148110292Y-98378213D01*
X148110288Y-98378210D01*
X147979185Y-98290609D01*
X147979172Y-98290602D01*
X147833501Y-98230264D01*
X147833489Y-98230261D01*
X147678845Y-98199500D01*
X147678842Y-98199500D01*
X147521158Y-98199500D01*
X147521155Y-98199500D01*
X147366510Y-98230261D01*
X147366498Y-98230264D01*
X147220827Y-98290602D01*
X147220814Y-98290609D01*
X147089711Y-98378210D01*
X147089707Y-98378213D01*
X146978213Y-98489707D01*
X146978210Y-98489711D01*
X146890609Y-98620814D01*
X146890602Y-98620827D01*
X146830264Y-98766498D01*
X146830261Y-98766510D01*
X146799500Y-98921153D01*
X125272192Y-98921153D01*
X125278216Y-98890874D01*
X125278216Y-98890873D01*
X125300499Y-98778846D01*
X125300500Y-98778844D01*
X125300500Y-98621155D01*
X125300499Y-98621153D01*
X125274353Y-98489711D01*
X125269737Y-98466503D01*
X125250812Y-98420814D01*
X125209397Y-98320827D01*
X125209390Y-98320814D01*
X125121789Y-98189711D01*
X125121786Y-98189707D01*
X125010292Y-98078213D01*
X125010288Y-98078210D01*
X124879185Y-97990609D01*
X124879172Y-97990602D01*
X124733501Y-97930264D01*
X124733489Y-97930261D01*
X124578845Y-97899500D01*
X124578842Y-97899500D01*
X124421158Y-97899500D01*
X124421155Y-97899500D01*
X124266510Y-97930261D01*
X124266498Y-97930264D01*
X124120827Y-97990602D01*
X124120814Y-97990609D01*
X123989711Y-98078210D01*
X123989707Y-98078213D01*
X123878213Y-98189707D01*
X123878210Y-98189711D01*
X123790609Y-98320814D01*
X123790602Y-98320827D01*
X123730264Y-98466498D01*
X123730261Y-98466510D01*
X123699500Y-98621153D01*
X120650500Y-98621153D01*
X120650500Y-98571158D01*
X120650500Y-98571155D01*
X120650499Y-98571153D01*
X120635043Y-98493450D01*
X120619737Y-98416503D01*
X120616791Y-98409390D01*
X120559397Y-98270827D01*
X120559390Y-98270814D01*
X120471789Y-98139711D01*
X120471786Y-98139707D01*
X120360292Y-98028213D01*
X120360288Y-98028210D01*
X120229185Y-97940609D01*
X120229172Y-97940602D01*
X120083501Y-97880264D01*
X120083489Y-97880261D01*
X119928845Y-97849500D01*
X119928842Y-97849500D01*
X119771158Y-97849500D01*
X119771155Y-97849500D01*
X119616510Y-97880261D01*
X119616498Y-97880264D01*
X119470827Y-97940602D01*
X119470814Y-97940609D01*
X119339711Y-98028210D01*
X119339707Y-98028213D01*
X119228213Y-98139707D01*
X119228210Y-98139711D01*
X119140609Y-98270814D01*
X119140602Y-98270827D01*
X119080264Y-98416498D01*
X119080261Y-98416510D01*
X119049500Y-98571153D01*
X118170662Y-98571153D01*
X118169738Y-98566507D01*
X118169735Y-98566498D01*
X118109397Y-98420827D01*
X118109390Y-98420814D01*
X118021789Y-98289711D01*
X118021786Y-98289707D01*
X117910292Y-98178213D01*
X117910288Y-98178210D01*
X117779185Y-98090609D01*
X117779172Y-98090602D01*
X117633501Y-98030264D01*
X117633489Y-98030261D01*
X117478845Y-97999500D01*
X117478842Y-97999500D01*
X117321158Y-97999500D01*
X117321155Y-97999500D01*
X117166510Y-98030261D01*
X117166498Y-98030264D01*
X117020827Y-98090602D01*
X117020814Y-98090609D01*
X116889711Y-98178210D01*
X116889707Y-98178213D01*
X116778213Y-98289707D01*
X116778210Y-98289711D01*
X116690609Y-98420814D01*
X116690602Y-98420827D01*
X116630264Y-98566498D01*
X116630261Y-98566510D01*
X116599500Y-98721153D01*
X107500499Y-98721153D01*
X107469737Y-98566503D01*
X107442398Y-98500500D01*
X107409397Y-98420827D01*
X107409390Y-98420814D01*
X107321789Y-98289711D01*
X107321786Y-98289707D01*
X107210292Y-98178213D01*
X107210288Y-98178210D01*
X107079185Y-98090609D01*
X107079172Y-98090602D01*
X106933501Y-98030264D01*
X106933489Y-98030261D01*
X106778845Y-97999500D01*
X106778842Y-97999500D01*
X106621158Y-97999500D01*
X106621155Y-97999500D01*
X106466510Y-98030261D01*
X106466498Y-98030264D01*
X106320827Y-98090602D01*
X106320814Y-98090609D01*
X106189711Y-98178210D01*
X106189707Y-98178213D01*
X106078213Y-98289707D01*
X106078210Y-98289711D01*
X105990609Y-98420814D01*
X105990602Y-98420827D01*
X105930264Y-98566498D01*
X105930261Y-98566510D01*
X105899500Y-98721153D01*
X105100499Y-98721153D01*
X105069737Y-98566503D01*
X105042398Y-98500500D01*
X105009397Y-98420827D01*
X105009390Y-98420814D01*
X104921789Y-98289711D01*
X104921786Y-98289707D01*
X104810292Y-98178213D01*
X104810288Y-98178210D01*
X104679185Y-98090609D01*
X104679172Y-98090602D01*
X104533501Y-98030264D01*
X104533489Y-98030261D01*
X104378845Y-97999500D01*
X104378842Y-97999500D01*
X104221158Y-97999500D01*
X104221155Y-97999500D01*
X104066510Y-98030261D01*
X104066498Y-98030264D01*
X103920827Y-98090602D01*
X103920814Y-98090609D01*
X103789711Y-98178210D01*
X103789707Y-98178213D01*
X103678213Y-98289707D01*
X103678210Y-98289711D01*
X103590609Y-98420814D01*
X103590602Y-98420827D01*
X103530264Y-98566498D01*
X103530261Y-98566510D01*
X103499500Y-98721153D01*
X102800499Y-98721153D01*
X102769737Y-98566503D01*
X102742398Y-98500500D01*
X102709397Y-98420827D01*
X102709390Y-98420814D01*
X102621789Y-98289711D01*
X102621786Y-98289707D01*
X102510292Y-98178213D01*
X102510288Y-98178210D01*
X102379185Y-98090609D01*
X102379172Y-98090602D01*
X102233501Y-98030264D01*
X102233489Y-98030261D01*
X102078845Y-97999500D01*
X102078842Y-97999500D01*
X101921158Y-97999500D01*
X101921155Y-97999500D01*
X101766510Y-98030261D01*
X101766498Y-98030264D01*
X101620827Y-98090602D01*
X101620814Y-98090609D01*
X101489711Y-98178210D01*
X101489707Y-98178213D01*
X101378213Y-98289707D01*
X101378210Y-98289711D01*
X101290609Y-98420814D01*
X101290602Y-98420827D01*
X101230264Y-98566498D01*
X101230261Y-98566510D01*
X101199500Y-98721153D01*
X101199500Y-98740984D01*
X101179815Y-98808023D01*
X101127011Y-98853778D01*
X101057853Y-98863722D01*
X101013500Y-98848371D01*
X100820214Y-98736777D01*
X100820205Y-98736773D01*
X100596104Y-98643947D01*
X100478944Y-98612554D01*
X100361789Y-98581162D01*
X100361788Y-98581161D01*
X100361785Y-98581161D01*
X100121289Y-98549500D01*
X100121288Y-98549500D01*
X99878712Y-98549500D01*
X99878711Y-98549500D01*
X99638214Y-98581161D01*
X99403895Y-98643947D01*
X99179794Y-98736773D01*
X99179785Y-98736777D01*
X98969706Y-98858067D01*
X98777263Y-99005733D01*
X98777256Y-99005739D01*
X98605739Y-99177256D01*
X98605733Y-99177263D01*
X98458067Y-99369706D01*
X98336777Y-99579785D01*
X98336773Y-99579794D01*
X98243945Y-99803901D01*
X98242643Y-99807738D01*
X98241438Y-99807329D01*
X98207905Y-99862337D01*
X98145057Y-99892863D01*
X98075682Y-99884565D01*
X98021806Y-99840077D01*
X98000535Y-99773524D01*
X98000500Y-99770579D01*
X98000500Y-95608363D01*
X98020185Y-95541324D01*
X98072989Y-95495569D01*
X98142147Y-95485625D01*
X98205703Y-95514650D01*
X98224815Y-95535474D01*
X98278518Y-95609390D01*
X98283896Y-95616792D01*
X98434213Y-95767109D01*
X98606179Y-95892048D01*
X98606181Y-95892049D01*
X98606184Y-95892051D01*
X98795588Y-95988557D01*
X98817326Y-95995620D01*
X98874999Y-96035054D01*
X98902199Y-96099412D01*
X98890287Y-96168258D01*
X98866690Y-96201231D01*
X98778210Y-96289711D01*
X98690609Y-96420814D01*
X98690602Y-96420827D01*
X98630264Y-96566498D01*
X98630261Y-96566510D01*
X98599500Y-96721153D01*
X98599500Y-96878846D01*
X98630261Y-97033489D01*
X98630264Y-97033501D01*
X98690602Y-97179172D01*
X98690609Y-97179185D01*
X98778210Y-97310288D01*
X98778213Y-97310292D01*
X98889707Y-97421786D01*
X98889711Y-97421789D01*
X99020814Y-97509390D01*
X99020827Y-97509397D01*
X99166498Y-97569735D01*
X99166503Y-97569737D01*
X99321153Y-97600499D01*
X99321156Y-97600500D01*
X99321158Y-97600500D01*
X99478844Y-97600500D01*
X99478845Y-97600499D01*
X99633497Y-97569737D01*
X99779179Y-97509394D01*
X99910289Y-97421789D01*
X100021789Y-97310289D01*
X100109394Y-97179179D01*
X100169737Y-97033497D01*
X100200500Y-96878842D01*
X100200500Y-96721158D01*
X100200500Y-96721155D01*
X100184209Y-96639258D01*
X100184209Y-96639257D01*
X100180608Y-96621153D01*
X101199500Y-96621153D01*
X101199500Y-96778846D01*
X101230261Y-96933489D01*
X101230264Y-96933501D01*
X101290602Y-97079172D01*
X101290609Y-97079185D01*
X101378210Y-97210288D01*
X101378213Y-97210292D01*
X101489707Y-97321786D01*
X101489711Y-97321789D01*
X101620814Y-97409390D01*
X101620827Y-97409397D01*
X101758683Y-97466498D01*
X101766503Y-97469737D01*
X101921153Y-97500499D01*
X101921156Y-97500500D01*
X101921158Y-97500500D01*
X102078844Y-97500500D01*
X102078845Y-97500499D01*
X102233497Y-97469737D01*
X102379179Y-97409394D01*
X102510289Y-97321789D01*
X102621789Y-97210289D01*
X102709394Y-97079179D01*
X102769737Y-96933497D01*
X102800500Y-96778842D01*
X102800500Y-96621158D01*
X102800500Y-96621155D01*
X102800499Y-96621153D01*
X102780734Y-96521788D01*
X102769737Y-96466503D01*
X102733569Y-96379185D01*
X102709397Y-96320827D01*
X102709390Y-96320814D01*
X102621789Y-96189711D01*
X102621786Y-96189707D01*
X102510292Y-96078213D01*
X102510288Y-96078210D01*
X102379185Y-95990609D01*
X102379172Y-95990602D01*
X102233501Y-95930264D01*
X102233489Y-95930261D01*
X102078845Y-95899500D01*
X102078842Y-95899500D01*
X101921158Y-95899500D01*
X101921155Y-95899500D01*
X101766510Y-95930261D01*
X101766498Y-95930264D01*
X101620827Y-95990602D01*
X101620814Y-95990609D01*
X101489711Y-96078210D01*
X101489707Y-96078213D01*
X101378213Y-96189707D01*
X101378210Y-96189711D01*
X101290609Y-96320814D01*
X101290602Y-96320827D01*
X101230264Y-96466498D01*
X101230261Y-96466510D01*
X101199500Y-96621153D01*
X100180608Y-96621153D01*
X100169738Y-96566510D01*
X100169737Y-96566503D01*
X100128314Y-96466498D01*
X100109397Y-96420827D01*
X100109390Y-96420814D01*
X100021789Y-96289711D01*
X100021786Y-96289707D01*
X99910292Y-96178213D01*
X99910284Y-96178207D01*
X99891469Y-96165635D01*
X99846663Y-96112023D01*
X99837956Y-96042698D01*
X99868110Y-95979671D01*
X99904065Y-95952048D01*
X100021816Y-95892051D01*
X100119397Y-95821155D01*
X100193786Y-95767109D01*
X100193788Y-95767106D01*
X100193792Y-95767104D01*
X100344104Y-95616792D01*
X100344106Y-95616788D01*
X100344109Y-95616786D01*
X100469048Y-95444820D01*
X100469047Y-95444820D01*
X100469051Y-95444816D01*
X100565557Y-95255412D01*
X100631246Y-95053243D01*
X100664500Y-94843287D01*
X100664500Y-94630713D01*
X100662986Y-94621153D01*
X101199500Y-94621153D01*
X101199500Y-94778846D01*
X101230261Y-94933489D01*
X101230264Y-94933501D01*
X101290602Y-95079172D01*
X101290609Y-95079185D01*
X101378210Y-95210288D01*
X101378213Y-95210292D01*
X101489707Y-95321786D01*
X101489711Y-95321789D01*
X101620814Y-95409390D01*
X101620827Y-95409397D01*
X101766498Y-95469735D01*
X101766503Y-95469737D01*
X101921153Y-95500499D01*
X101921156Y-95500500D01*
X101921158Y-95500500D01*
X102078844Y-95500500D01*
X102078845Y-95500499D01*
X102233497Y-95469737D01*
X102379179Y-95409394D01*
X102510289Y-95321789D01*
X102621789Y-95210289D01*
X102709394Y-95079179D01*
X102769737Y-94933497D01*
X102800500Y-94778842D01*
X102800500Y-94621158D01*
X102800500Y-94621155D01*
X102800499Y-94621153D01*
X102792148Y-94579172D01*
X102769737Y-94466503D01*
X102737929Y-94389711D01*
X102709397Y-94320827D01*
X102709390Y-94320814D01*
X102621789Y-94189711D01*
X102621786Y-94189707D01*
X102510292Y-94078213D01*
X102510288Y-94078210D01*
X102379185Y-93990609D01*
X102379172Y-93990602D01*
X102233501Y-93930264D01*
X102233489Y-93930261D01*
X102078845Y-93899500D01*
X102078842Y-93899500D01*
X101921158Y-93899500D01*
X101921155Y-93899500D01*
X101766510Y-93930261D01*
X101766498Y-93930264D01*
X101620827Y-93990602D01*
X101620814Y-93990609D01*
X101489711Y-94078210D01*
X101489707Y-94078213D01*
X101378213Y-94189707D01*
X101378210Y-94189711D01*
X101290609Y-94320814D01*
X101290602Y-94320827D01*
X101230264Y-94466498D01*
X101230261Y-94466510D01*
X101199500Y-94621153D01*
X100662986Y-94621153D01*
X100631246Y-94420757D01*
X100565557Y-94218588D01*
X100469051Y-94029184D01*
X100469049Y-94029181D01*
X100469048Y-94029179D01*
X100344109Y-93857213D01*
X100230569Y-93743673D01*
X100197084Y-93682350D01*
X100202068Y-93612658D01*
X100243940Y-93556725D01*
X100274915Y-93539810D01*
X100406331Y-93490796D01*
X100521546Y-93404546D01*
X100607796Y-93289331D01*
X100658091Y-93154483D01*
X100664500Y-93094873D01*
X100664499Y-91299128D01*
X100658091Y-91239517D01*
X100651115Y-91220814D01*
X100607797Y-91104671D01*
X100607793Y-91104664D01*
X100521547Y-90989455D01*
X100521544Y-90989452D01*
X100406335Y-90903206D01*
X100406328Y-90903202D01*
X100271482Y-90852908D01*
X100271483Y-90852908D01*
X100211883Y-90846501D01*
X100211881Y-90846500D01*
X100211873Y-90846500D01*
X100211864Y-90846500D01*
X98416129Y-90846500D01*
X98416123Y-90846501D01*
X98356516Y-90852908D01*
X98221671Y-90903202D01*
X98221669Y-90903203D01*
X98198810Y-90920316D01*
X98133345Y-90944732D01*
X98065072Y-90929880D01*
X98015667Y-90880474D01*
X98000500Y-90821048D01*
X98000500Y-89767951D01*
X98020185Y-89700912D01*
X98072989Y-89655157D01*
X98142147Y-89645213D01*
X98198811Y-89668684D01*
X98212820Y-89679172D01*
X98221668Y-89685795D01*
X98221671Y-89685797D01*
X98356517Y-89736091D01*
X98356516Y-89736091D01*
X98363444Y-89736835D01*
X98416127Y-89742500D01*
X100211872Y-89742499D01*
X100271483Y-89736091D01*
X100406331Y-89685796D01*
X100521546Y-89599546D01*
X100607796Y-89484331D01*
X100658091Y-89349483D01*
X100664500Y-89289873D01*
X100664499Y-89271645D01*
X100684180Y-89204608D01*
X100736982Y-89158851D01*
X100806140Y-89148904D01*
X100835948Y-89157081D01*
X100866503Y-89169737D01*
X101021153Y-89200499D01*
X101021156Y-89200500D01*
X101021158Y-89200500D01*
X101178844Y-89200500D01*
X101178845Y-89200499D01*
X101333497Y-89169737D01*
X101479179Y-89109394D01*
X101610289Y-89021789D01*
X101721789Y-88910289D01*
X101809394Y-88779179D01*
X101869737Y-88633497D01*
X101900500Y-88478842D01*
X101900500Y-88321158D01*
X101900500Y-88321155D01*
X101900499Y-88321153D01*
X101878269Y-88209397D01*
X101869737Y-88166503D01*
X101863403Y-88151211D01*
X101809397Y-88020827D01*
X101809390Y-88020814D01*
X101721789Y-87889711D01*
X101721786Y-87889707D01*
X101610292Y-87778213D01*
X101610288Y-87778210D01*
X101479185Y-87690609D01*
X101479172Y-87690602D01*
X101333501Y-87630264D01*
X101333489Y-87630261D01*
X101178845Y-87599500D01*
X101178842Y-87599500D01*
X101021158Y-87599500D01*
X101021155Y-87599500D01*
X100866510Y-87630261D01*
X100866499Y-87630264D01*
X100835949Y-87642918D01*
X100766480Y-87650385D01*
X100704001Y-87619109D01*
X100668350Y-87559020D01*
X100664499Y-87528356D01*
X100664499Y-87494129D01*
X100664498Y-87494123D01*
X100662892Y-87479185D01*
X100658091Y-87434517D01*
X100653108Y-87421158D01*
X100607797Y-87299671D01*
X100607793Y-87299664D01*
X100521547Y-87184455D01*
X100521544Y-87184452D01*
X100406335Y-87098206D01*
X100406328Y-87098202D01*
X100274917Y-87049189D01*
X100274916Y-87049189D01*
X100245452Y-87027132D01*
X100218983Y-87007318D01*
X100194566Y-86941853D01*
X100207608Y-86881902D01*
X103299500Y-86881902D01*
X103299500Y-87118097D01*
X103336446Y-87351368D01*
X103409433Y-87575996D01*
X103489685Y-87733497D01*
X103516657Y-87786433D01*
X103655483Y-87977510D01*
X103822490Y-88144517D01*
X103857127Y-88169683D01*
X103899792Y-88225013D01*
X103905771Y-88294626D01*
X103873165Y-88356421D01*
X103857130Y-88370315D01*
X103839365Y-88383222D01*
X103822488Y-88395484D01*
X103655485Y-88562487D01*
X103655485Y-88562488D01*
X103655483Y-88562490D01*
X103603899Y-88633489D01*
X103516657Y-88753566D01*
X103409433Y-88964003D01*
X103336446Y-89188631D01*
X103299500Y-89421902D01*
X103299500Y-89658097D01*
X103336446Y-89891368D01*
X103409433Y-90115996D01*
X103463338Y-90221789D01*
X103516657Y-90326433D01*
X103655483Y-90517510D01*
X103822490Y-90684517D01*
X103857127Y-90709683D01*
X103899792Y-90765013D01*
X103905771Y-90834626D01*
X103873165Y-90896421D01*
X103857130Y-90910315D01*
X103839365Y-90923222D01*
X103822488Y-90935484D01*
X103655485Y-91102487D01*
X103655485Y-91102488D01*
X103655483Y-91102490D01*
X103615517Y-91157498D01*
X103516657Y-91293566D01*
X103409433Y-91504003D01*
X103336446Y-91728631D01*
X103299500Y-91961902D01*
X103299500Y-92198097D01*
X103336446Y-92431368D01*
X103409433Y-92655996D01*
X103493588Y-92821158D01*
X103516657Y-92866433D01*
X103556873Y-92921786D01*
X103606549Y-92990158D01*
X103630029Y-93055965D01*
X103614204Y-93124019D01*
X103565255Y-93171589D01*
X103565454Y-93171953D01*
X103564146Y-93172667D01*
X103564098Y-93172714D01*
X103563885Y-93172809D01*
X103557664Y-93176206D01*
X103442455Y-93262452D01*
X103442452Y-93262455D01*
X103356206Y-93377664D01*
X103356202Y-93377671D01*
X103305908Y-93512517D01*
X103299501Y-93572116D01*
X103299501Y-93572123D01*
X103299500Y-93572135D01*
X103299500Y-95667870D01*
X103299501Y-95667876D01*
X103305908Y-95727483D01*
X103356202Y-95862328D01*
X103356206Y-95862335D01*
X103442452Y-95977544D01*
X103442455Y-95977547D01*
X103557664Y-96063793D01*
X103557671Y-96063797D01*
X103692517Y-96114091D01*
X103692516Y-96114091D01*
X103699444Y-96114835D01*
X103752127Y-96120500D01*
X105847872Y-96120499D01*
X105907483Y-96114091D01*
X106042331Y-96063796D01*
X106157546Y-95977546D01*
X106243796Y-95862331D01*
X106294091Y-95727483D01*
X106300500Y-95667873D01*
X106300499Y-93572128D01*
X106294091Y-93512517D01*
X106291788Y-93506343D01*
X106270808Y-93450093D01*
X106243796Y-93377669D01*
X106243792Y-93377664D01*
X106243792Y-93377663D01*
X106201488Y-93321153D01*
X106899500Y-93321153D01*
X106899500Y-93478846D01*
X106930261Y-93633489D01*
X106930264Y-93633501D01*
X106990602Y-93779172D01*
X106990609Y-93779185D01*
X107078210Y-93910288D01*
X107078213Y-93910292D01*
X107189707Y-94021786D01*
X107189710Y-94021788D01*
X107189711Y-94021789D01*
X107215219Y-94038833D01*
X107227289Y-94046898D01*
X107272093Y-94100511D01*
X107280800Y-94169836D01*
X107250645Y-94232863D01*
X107227289Y-94253102D01*
X107189707Y-94278213D01*
X107078213Y-94389707D01*
X107078210Y-94389711D01*
X106990609Y-94520814D01*
X106990602Y-94520827D01*
X106930264Y-94666498D01*
X106930261Y-94666510D01*
X106899500Y-94821153D01*
X106899500Y-94978846D01*
X106930261Y-95133489D01*
X106930264Y-95133501D01*
X106990602Y-95279172D01*
X106990609Y-95279185D01*
X107078210Y-95410288D01*
X107078213Y-95410292D01*
X107189707Y-95521786D01*
X107189711Y-95521789D01*
X107320814Y-95609390D01*
X107320827Y-95609397D01*
X107462000Y-95667872D01*
X107466503Y-95669737D01*
X107593282Y-95694955D01*
X107621153Y-95700499D01*
X107621156Y-95700500D01*
X107621158Y-95700500D01*
X107778844Y-95700500D01*
X107778845Y-95700499D01*
X107933497Y-95669737D01*
X108051592Y-95620821D01*
X108079172Y-95609397D01*
X108079172Y-95609396D01*
X108079179Y-95609394D01*
X108079184Y-95609390D01*
X108079187Y-95609389D01*
X108117497Y-95583790D01*
X108176445Y-95544402D01*
X108243121Y-95523524D01*
X108310502Y-95542008D01*
X108357192Y-95593986D01*
X108368369Y-95662956D01*
X108359898Y-95694955D01*
X108330263Y-95766502D01*
X108330261Y-95766510D01*
X108299500Y-95921153D01*
X108299500Y-96078846D01*
X108330261Y-96233489D01*
X108330264Y-96233501D01*
X108390602Y-96379172D01*
X108390609Y-96379185D01*
X108478210Y-96510288D01*
X108478213Y-96510292D01*
X108589707Y-96621786D01*
X108589711Y-96621789D01*
X108720814Y-96709390D01*
X108720827Y-96709397D01*
X108866498Y-96769735D01*
X108866503Y-96769737D01*
X109016131Y-96799500D01*
X109021153Y-96800499D01*
X109021156Y-96800500D01*
X109021158Y-96800500D01*
X109178844Y-96800500D01*
X109178845Y-96800499D01*
X109333497Y-96769737D01*
X109450790Y-96721153D01*
X116599500Y-96721153D01*
X116599500Y-96878846D01*
X116630261Y-97033489D01*
X116630264Y-97033501D01*
X116690602Y-97179172D01*
X116690609Y-97179185D01*
X116778210Y-97310288D01*
X116778213Y-97310292D01*
X116889707Y-97421786D01*
X116889711Y-97421789D01*
X117020814Y-97509390D01*
X117020827Y-97509397D01*
X117166498Y-97569735D01*
X117166503Y-97569737D01*
X117321153Y-97600499D01*
X117321156Y-97600500D01*
X117321158Y-97600500D01*
X117478844Y-97600500D01*
X117478845Y-97600499D01*
X117633497Y-97569737D01*
X117779179Y-97509394D01*
X117910289Y-97421789D01*
X118021789Y-97310289D01*
X118109394Y-97179179D01*
X118169737Y-97033497D01*
X118200500Y-96878842D01*
X118200500Y-96721158D01*
X118200500Y-96721155D01*
X118200499Y-96721153D01*
X120399500Y-96721153D01*
X120399500Y-96878846D01*
X120430261Y-97033489D01*
X120430264Y-97033501D01*
X120490602Y-97179172D01*
X120490609Y-97179185D01*
X120578210Y-97310288D01*
X120578213Y-97310292D01*
X120689707Y-97421786D01*
X120689711Y-97421789D01*
X120820814Y-97509390D01*
X120820827Y-97509397D01*
X120966498Y-97569735D01*
X120966503Y-97569737D01*
X121121153Y-97600499D01*
X121121156Y-97600500D01*
X121121158Y-97600500D01*
X121278844Y-97600500D01*
X121278845Y-97600499D01*
X121433497Y-97569737D01*
X121579179Y-97509394D01*
X121710289Y-97421789D01*
X121821789Y-97310289D01*
X121909394Y-97179179D01*
X121969737Y-97033497D01*
X122000500Y-96878842D01*
X122000500Y-96721158D01*
X122000500Y-96721155D01*
X122000499Y-96721153D01*
X121980734Y-96621788D01*
X121969737Y-96566503D01*
X121928314Y-96466498D01*
X121909397Y-96420827D01*
X121909390Y-96420814D01*
X121821789Y-96289711D01*
X121821786Y-96289707D01*
X121710292Y-96178213D01*
X121710288Y-96178210D01*
X121579185Y-96090609D01*
X121579172Y-96090602D01*
X121433501Y-96030264D01*
X121433489Y-96030261D01*
X121278845Y-95999500D01*
X121278842Y-95999500D01*
X121121158Y-95999500D01*
X121121155Y-95999500D01*
X120966510Y-96030261D01*
X120966498Y-96030264D01*
X120820827Y-96090602D01*
X120820814Y-96090609D01*
X120689711Y-96178210D01*
X120689707Y-96178213D01*
X120578213Y-96289707D01*
X120578210Y-96289711D01*
X120490609Y-96420814D01*
X120490602Y-96420827D01*
X120430264Y-96566498D01*
X120430261Y-96566510D01*
X120399500Y-96721153D01*
X118200499Y-96721153D01*
X118180734Y-96621788D01*
X118169737Y-96566503D01*
X118128314Y-96466498D01*
X118109397Y-96420827D01*
X118109390Y-96420814D01*
X118021789Y-96289711D01*
X118021786Y-96289707D01*
X117910292Y-96178213D01*
X117910288Y-96178210D01*
X117779185Y-96090609D01*
X117779172Y-96090602D01*
X117633501Y-96030264D01*
X117633489Y-96030261D01*
X117478845Y-95999500D01*
X117478842Y-95999500D01*
X117321158Y-95999500D01*
X117321155Y-95999500D01*
X117166510Y-96030261D01*
X117166498Y-96030264D01*
X117020827Y-96090602D01*
X117020814Y-96090609D01*
X116889711Y-96178210D01*
X116889707Y-96178213D01*
X116778213Y-96289707D01*
X116778210Y-96289711D01*
X116690609Y-96420814D01*
X116690602Y-96420827D01*
X116630264Y-96566498D01*
X116630261Y-96566510D01*
X116599500Y-96721153D01*
X109450790Y-96721153D01*
X109479179Y-96709394D01*
X109610289Y-96621789D01*
X109721789Y-96510289D01*
X109809394Y-96379179D01*
X109869737Y-96233497D01*
X109900500Y-96078842D01*
X109900500Y-95921158D01*
X109900500Y-95921155D01*
X109884209Y-95839258D01*
X109884209Y-95839257D01*
X109880608Y-95821153D01*
X122099500Y-95821153D01*
X122099500Y-95978846D01*
X122130261Y-96133489D01*
X122130264Y-96133501D01*
X122190602Y-96279172D01*
X122190609Y-96279185D01*
X122278210Y-96410288D01*
X122278213Y-96410292D01*
X122389707Y-96521786D01*
X122389711Y-96521789D01*
X122520814Y-96609390D01*
X122520827Y-96609397D01*
X122666498Y-96669735D01*
X122666503Y-96669737D01*
X122666507Y-96669737D01*
X122666508Y-96669738D01*
X122709967Y-96678383D01*
X122771878Y-96710768D01*
X122806452Y-96771484D01*
X122802712Y-96841253D01*
X122761845Y-96897925D01*
X122709967Y-96921617D01*
X122666508Y-96930261D01*
X122666498Y-96930264D01*
X122520827Y-96990602D01*
X122520814Y-96990609D01*
X122389711Y-97078210D01*
X122389707Y-97078213D01*
X122278213Y-97189707D01*
X122278210Y-97189711D01*
X122190609Y-97320814D01*
X122190602Y-97320827D01*
X122130264Y-97466498D01*
X122130261Y-97466510D01*
X122099500Y-97621153D01*
X122099500Y-97778846D01*
X122130261Y-97933489D01*
X122130264Y-97933501D01*
X122190602Y-98079172D01*
X122190609Y-98079185D01*
X122278210Y-98210288D01*
X122278213Y-98210292D01*
X122389707Y-98321786D01*
X122389711Y-98321789D01*
X122520814Y-98409390D01*
X122520827Y-98409397D01*
X122658683Y-98466498D01*
X122666503Y-98469737D01*
X122821153Y-98500499D01*
X122821156Y-98500500D01*
X122821158Y-98500500D01*
X122978844Y-98500500D01*
X122978845Y-98500499D01*
X122989179Y-98498443D01*
X123014287Y-98493450D01*
X123014292Y-98493449D01*
X123099800Y-98476439D01*
X123133497Y-98469737D01*
X123251592Y-98420821D01*
X123279172Y-98409397D01*
X123279172Y-98409396D01*
X123279179Y-98409394D01*
X123410289Y-98321789D01*
X123521789Y-98210289D01*
X123609394Y-98079179D01*
X123669737Y-97933497D01*
X123700500Y-97778842D01*
X123700500Y-97621158D01*
X123700500Y-97621155D01*
X123684209Y-97539258D01*
X123684209Y-97539257D01*
X123680608Y-97521153D01*
X132999500Y-97521153D01*
X132999500Y-97678846D01*
X133030261Y-97833489D01*
X133030264Y-97833501D01*
X133090602Y-97979172D01*
X133090609Y-97979185D01*
X133178210Y-98110288D01*
X133178213Y-98110292D01*
X133289707Y-98221786D01*
X133289711Y-98221789D01*
X133420814Y-98309390D01*
X133420827Y-98309397D01*
X133566498Y-98369735D01*
X133566503Y-98369737D01*
X133721153Y-98400499D01*
X133721156Y-98400500D01*
X133721158Y-98400500D01*
X133878844Y-98400500D01*
X133878845Y-98400499D01*
X134033497Y-98369737D01*
X134151592Y-98320821D01*
X134179172Y-98309397D01*
X134179172Y-98309396D01*
X134179179Y-98309394D01*
X134310289Y-98221789D01*
X134421789Y-98110289D01*
X134509394Y-97979179D01*
X134569737Y-97833497D01*
X134600500Y-97678842D01*
X134600500Y-97521158D01*
X134600500Y-97521155D01*
X134600499Y-97521153D01*
X136299500Y-97521153D01*
X136299500Y-97678846D01*
X136330261Y-97833489D01*
X136330264Y-97833501D01*
X136390602Y-97979172D01*
X136390609Y-97979185D01*
X136478210Y-98110288D01*
X136478213Y-98110292D01*
X136589707Y-98221786D01*
X136589711Y-98221789D01*
X136720814Y-98309390D01*
X136720827Y-98309397D01*
X136866498Y-98369735D01*
X136866503Y-98369737D01*
X137021153Y-98400499D01*
X137021156Y-98400500D01*
X137021158Y-98400500D01*
X137178844Y-98400500D01*
X137178845Y-98400499D01*
X137333497Y-98369737D01*
X137451592Y-98320821D01*
X137479172Y-98309397D01*
X137479172Y-98309396D01*
X137479179Y-98309394D01*
X137610289Y-98221789D01*
X137721789Y-98110289D01*
X137809394Y-97979179D01*
X137869737Y-97833497D01*
X137900500Y-97678842D01*
X137900500Y-97521158D01*
X137900500Y-97521155D01*
X137884209Y-97439258D01*
X137884209Y-97439257D01*
X137880608Y-97421153D01*
X139499500Y-97421153D01*
X139499500Y-97578846D01*
X139530261Y-97733489D01*
X139530264Y-97733501D01*
X139590602Y-97879172D01*
X139590609Y-97879185D01*
X139678210Y-98010288D01*
X139678213Y-98010292D01*
X139789707Y-98121786D01*
X139789711Y-98121789D01*
X139920814Y-98209390D01*
X139920827Y-98209397D01*
X140066498Y-98269735D01*
X140066503Y-98269737D01*
X140221153Y-98300499D01*
X140221156Y-98300500D01*
X140221158Y-98300500D01*
X140378844Y-98300500D01*
X140378845Y-98300499D01*
X140533497Y-98269737D01*
X140679179Y-98209394D01*
X140810289Y-98121789D01*
X140921789Y-98010289D01*
X141009394Y-97879179D01*
X141069737Y-97733497D01*
X141100500Y-97578842D01*
X141100500Y-97421158D01*
X141100500Y-97421155D01*
X141100499Y-97421153D01*
X141080734Y-97321789D01*
X141069737Y-97266503D01*
X141042398Y-97200500D01*
X141009397Y-97120827D01*
X141009390Y-97120814D01*
X140921789Y-96989711D01*
X140921786Y-96989707D01*
X140810292Y-96878213D01*
X140810288Y-96878210D01*
X140679185Y-96790609D01*
X140679172Y-96790602D01*
X140533501Y-96730264D01*
X140533489Y-96730261D01*
X140378845Y-96699500D01*
X140378842Y-96699500D01*
X140221158Y-96699500D01*
X140221155Y-96699500D01*
X140066510Y-96730261D01*
X140066498Y-96730264D01*
X139920827Y-96790602D01*
X139920814Y-96790609D01*
X139789711Y-96878210D01*
X139789707Y-96878213D01*
X139678213Y-96989707D01*
X139678210Y-96989711D01*
X139590609Y-97120814D01*
X139590602Y-97120827D01*
X139530264Y-97266498D01*
X139530261Y-97266510D01*
X139499500Y-97421153D01*
X137880608Y-97421153D01*
X137869738Y-97366510D01*
X137869737Y-97366503D01*
X137828314Y-97266498D01*
X137809397Y-97220827D01*
X137809390Y-97220814D01*
X137721789Y-97089711D01*
X137721786Y-97089707D01*
X137610292Y-96978213D01*
X137610288Y-96978210D01*
X137479185Y-96890609D01*
X137479172Y-96890602D01*
X137333501Y-96830264D01*
X137333489Y-96830261D01*
X137178845Y-96799500D01*
X137178842Y-96799500D01*
X137021158Y-96799500D01*
X137021155Y-96799500D01*
X136866510Y-96830261D01*
X136866498Y-96830264D01*
X136720827Y-96890602D01*
X136720814Y-96890609D01*
X136589711Y-96978210D01*
X136589707Y-96978213D01*
X136478211Y-97089709D01*
X136461738Y-97114362D01*
X136461729Y-97114377D01*
X136390606Y-97220821D01*
X136355994Y-97304380D01*
X136355989Y-97304391D01*
X136330263Y-97366503D01*
X136330261Y-97366510D01*
X136299500Y-97521153D01*
X134600499Y-97521153D01*
X134580734Y-97421789D01*
X134569737Y-97366503D01*
X134528314Y-97266498D01*
X134509397Y-97220827D01*
X134509390Y-97220814D01*
X134421789Y-97089711D01*
X134421786Y-97089707D01*
X134310292Y-96978213D01*
X134310288Y-96978210D01*
X134179185Y-96890609D01*
X134179172Y-96890602D01*
X134033501Y-96830264D01*
X134033489Y-96830261D01*
X133878845Y-96799500D01*
X133878842Y-96799500D01*
X133721158Y-96799500D01*
X133721155Y-96799500D01*
X133566510Y-96830261D01*
X133566498Y-96830264D01*
X133420827Y-96890602D01*
X133420814Y-96890609D01*
X133289711Y-96978210D01*
X133289707Y-96978213D01*
X133178213Y-97089707D01*
X133178210Y-97089711D01*
X133090609Y-97220814D01*
X133090602Y-97220827D01*
X133030264Y-97366498D01*
X133030261Y-97366510D01*
X132999500Y-97521153D01*
X123680608Y-97521153D01*
X123669738Y-97466510D01*
X123669737Y-97466503D01*
X123658452Y-97439258D01*
X123609397Y-97320827D01*
X123609390Y-97320814D01*
X123521789Y-97189711D01*
X123521786Y-97189707D01*
X123410292Y-97078213D01*
X123410288Y-97078210D01*
X123279185Y-96990609D01*
X123279172Y-96990602D01*
X123133501Y-96930264D01*
X123133489Y-96930261D01*
X123090033Y-96921617D01*
X123028122Y-96889232D01*
X122993548Y-96828517D01*
X122997287Y-96758747D01*
X123038154Y-96702075D01*
X123090033Y-96678383D01*
X123107940Y-96674820D01*
X123133497Y-96669737D01*
X123250790Y-96621153D01*
X134699500Y-96621153D01*
X134699500Y-96778846D01*
X134730261Y-96933489D01*
X134730264Y-96933501D01*
X134790602Y-97079172D01*
X134790609Y-97079185D01*
X134878210Y-97210288D01*
X134878213Y-97210292D01*
X134989707Y-97321786D01*
X134989711Y-97321789D01*
X135120814Y-97409390D01*
X135120827Y-97409397D01*
X135258683Y-97466498D01*
X135266503Y-97469737D01*
X135421153Y-97500499D01*
X135421156Y-97500500D01*
X135421158Y-97500500D01*
X135578844Y-97500500D01*
X135578845Y-97500499D01*
X135733497Y-97469737D01*
X135879179Y-97409394D01*
X136010289Y-97321789D01*
X136121789Y-97210289D01*
X136209394Y-97079179D01*
X136269737Y-96933497D01*
X136300500Y-96778842D01*
X136300500Y-96621158D01*
X136300500Y-96621155D01*
X136300499Y-96621153D01*
X136280734Y-96521788D01*
X136269737Y-96466503D01*
X136246453Y-96410289D01*
X136226666Y-96362518D01*
X136209532Y-96321153D01*
X146799500Y-96321153D01*
X146799500Y-96478846D01*
X146830261Y-96633489D01*
X146830264Y-96633501D01*
X146890602Y-96779172D01*
X146890609Y-96779185D01*
X146978210Y-96910288D01*
X146978213Y-96910292D01*
X147089707Y-97021786D01*
X147089711Y-97021789D01*
X147220814Y-97109390D01*
X147220827Y-97109397D01*
X147366498Y-97169735D01*
X147366503Y-97169737D01*
X147521153Y-97200499D01*
X147521156Y-97200500D01*
X147521158Y-97200500D01*
X147678844Y-97200500D01*
X147678845Y-97200499D01*
X147833497Y-97169737D01*
X147951592Y-97120821D01*
X147979172Y-97109397D01*
X147979172Y-97109396D01*
X147979179Y-97109394D01*
X148110289Y-97021789D01*
X148221789Y-96910289D01*
X148309394Y-96779179D01*
X148369737Y-96633497D01*
X148400500Y-96478842D01*
X148400500Y-96321158D01*
X148400500Y-96321155D01*
X148400499Y-96321153D01*
X149999500Y-96321153D01*
X149999500Y-96478846D01*
X150030261Y-96633489D01*
X150030264Y-96633501D01*
X150090602Y-96779172D01*
X150090609Y-96779185D01*
X150178210Y-96910288D01*
X150178213Y-96910292D01*
X150289707Y-97021786D01*
X150289711Y-97021789D01*
X150420814Y-97109390D01*
X150420827Y-97109397D01*
X150566498Y-97169735D01*
X150566503Y-97169737D01*
X150721153Y-97200499D01*
X150721156Y-97200500D01*
X150721158Y-97200500D01*
X150878844Y-97200500D01*
X150878845Y-97200499D01*
X151033497Y-97169737D01*
X151151592Y-97120821D01*
X151179172Y-97109397D01*
X151179172Y-97109396D01*
X151179179Y-97109394D01*
X151310289Y-97021789D01*
X151421789Y-96910289D01*
X151509394Y-96779179D01*
X151569737Y-96633497D01*
X151600500Y-96478842D01*
X151600500Y-96321158D01*
X151600500Y-96321155D01*
X151600499Y-96321153D01*
X151574353Y-96189711D01*
X151569737Y-96166503D01*
X151569735Y-96166498D01*
X151509397Y-96020827D01*
X151509390Y-96020814D01*
X151421789Y-95889711D01*
X151421786Y-95889707D01*
X151310292Y-95778213D01*
X151310288Y-95778210D01*
X151179185Y-95690609D01*
X151179172Y-95690602D01*
X151033501Y-95630264D01*
X151033489Y-95630261D01*
X150878845Y-95599500D01*
X150878842Y-95599500D01*
X150721158Y-95599500D01*
X150721155Y-95599500D01*
X150566510Y-95630261D01*
X150566498Y-95630264D01*
X150420827Y-95690602D01*
X150420814Y-95690609D01*
X150289711Y-95778210D01*
X150289707Y-95778213D01*
X150178213Y-95889707D01*
X150178210Y-95889711D01*
X150090609Y-96020814D01*
X150090602Y-96020827D01*
X150030264Y-96166498D01*
X150030261Y-96166510D01*
X149999500Y-96321153D01*
X148400499Y-96321153D01*
X148374353Y-96189711D01*
X148369737Y-96166503D01*
X148369735Y-96166498D01*
X148309397Y-96020827D01*
X148309390Y-96020814D01*
X148221789Y-95889711D01*
X148221786Y-95889707D01*
X148110292Y-95778213D01*
X148110288Y-95778210D01*
X147979185Y-95690609D01*
X147979172Y-95690602D01*
X147833501Y-95630264D01*
X147833489Y-95630261D01*
X147678845Y-95599500D01*
X147678842Y-95599500D01*
X147521158Y-95599500D01*
X147521155Y-95599500D01*
X147366510Y-95630261D01*
X147366498Y-95630264D01*
X147220827Y-95690602D01*
X147220814Y-95690609D01*
X147089711Y-95778210D01*
X147089707Y-95778213D01*
X146978213Y-95889707D01*
X146978210Y-95889711D01*
X146890609Y-96020814D01*
X146890602Y-96020827D01*
X146830264Y-96166498D01*
X146830261Y-96166510D01*
X146799500Y-96321153D01*
X136209532Y-96321153D01*
X136209395Y-96320823D01*
X136209390Y-96320814D01*
X136121789Y-96189711D01*
X136121786Y-96189707D01*
X136010292Y-96078213D01*
X136010288Y-96078210D01*
X135879185Y-95990609D01*
X135879172Y-95990602D01*
X135733501Y-95930264D01*
X135733489Y-95930261D01*
X135578845Y-95899500D01*
X135578842Y-95899500D01*
X135421158Y-95899500D01*
X135421155Y-95899500D01*
X135266510Y-95930261D01*
X135266498Y-95930264D01*
X135120827Y-95990602D01*
X135120814Y-95990609D01*
X134989711Y-96078210D01*
X134989707Y-96078213D01*
X134878213Y-96189707D01*
X134878210Y-96189711D01*
X134790609Y-96320814D01*
X134790602Y-96320827D01*
X134730264Y-96466498D01*
X134730261Y-96466510D01*
X134699500Y-96621153D01*
X123250790Y-96621153D01*
X123279179Y-96609394D01*
X123410289Y-96521789D01*
X123521789Y-96410289D01*
X123609394Y-96279179D01*
X123669737Y-96133497D01*
X123700500Y-95978842D01*
X123700500Y-95821158D01*
X123700500Y-95821155D01*
X123700499Y-95821153D01*
X123681867Y-95727483D01*
X123669737Y-95666503D01*
X123668268Y-95662956D01*
X123609397Y-95520827D01*
X123609390Y-95520814D01*
X123521789Y-95389711D01*
X123521786Y-95389707D01*
X123410292Y-95278213D01*
X123410288Y-95278210D01*
X123279185Y-95190609D01*
X123279172Y-95190602D01*
X123133501Y-95130264D01*
X123133489Y-95130261D01*
X122978845Y-95099500D01*
X122978842Y-95099500D01*
X122821158Y-95099500D01*
X122821155Y-95099500D01*
X122666510Y-95130261D01*
X122666498Y-95130264D01*
X122520827Y-95190602D01*
X122520814Y-95190609D01*
X122389711Y-95278210D01*
X122389707Y-95278213D01*
X122278213Y-95389707D01*
X122278210Y-95389711D01*
X122190609Y-95520814D01*
X122190602Y-95520827D01*
X122130264Y-95666498D01*
X122130261Y-95666510D01*
X122099500Y-95821153D01*
X109880608Y-95821153D01*
X109872066Y-95778211D01*
X109869737Y-95766503D01*
X109842398Y-95700500D01*
X109809397Y-95620827D01*
X109809390Y-95620814D01*
X109721789Y-95489711D01*
X109721786Y-95489707D01*
X109610292Y-95378213D01*
X109610288Y-95378210D01*
X109479185Y-95290609D01*
X109479172Y-95290602D01*
X109333499Y-95230263D01*
X109328102Y-95228626D01*
X109269667Y-95190324D01*
X109241215Y-95126509D01*
X109251781Y-95057443D01*
X109298009Y-95005053D01*
X109339910Y-94988352D01*
X109433497Y-94969737D01*
X109579179Y-94909394D01*
X109710289Y-94821789D01*
X109821789Y-94710289D01*
X109909394Y-94579179D01*
X109933429Y-94521153D01*
X116599500Y-94521153D01*
X116599500Y-94678846D01*
X116630261Y-94833489D01*
X116630264Y-94833501D01*
X116690602Y-94979172D01*
X116690609Y-94979185D01*
X116778210Y-95110288D01*
X116778213Y-95110292D01*
X116889707Y-95221786D01*
X116889711Y-95221789D01*
X117020814Y-95309390D01*
X117020827Y-95309397D01*
X117138143Y-95357990D01*
X117166503Y-95369737D01*
X117321153Y-95400499D01*
X117321156Y-95400500D01*
X117321158Y-95400500D01*
X117478844Y-95400500D01*
X117478845Y-95400499D01*
X117633497Y-95369737D01*
X117779179Y-95309394D01*
X117910289Y-95221789D01*
X118021789Y-95110289D01*
X118109394Y-94979179D01*
X118169737Y-94833497D01*
X118200500Y-94678842D01*
X118200500Y-94521158D01*
X118200500Y-94521155D01*
X118200499Y-94521153D01*
X120399500Y-94521153D01*
X120399500Y-94678846D01*
X120430261Y-94833489D01*
X120430264Y-94833501D01*
X120490602Y-94979172D01*
X120490609Y-94979185D01*
X120578210Y-95110288D01*
X120578213Y-95110292D01*
X120689707Y-95221786D01*
X120689711Y-95221789D01*
X120820814Y-95309390D01*
X120820827Y-95309397D01*
X120938143Y-95357990D01*
X120966503Y-95369737D01*
X121121153Y-95400499D01*
X121121156Y-95400500D01*
X121121158Y-95400500D01*
X121278844Y-95400500D01*
X121278845Y-95400499D01*
X121433497Y-95369737D01*
X121579179Y-95309394D01*
X121710289Y-95221789D01*
X121821789Y-95110289D01*
X121909394Y-94979179D01*
X121969737Y-94833497D01*
X122000500Y-94678842D01*
X122000500Y-94521158D01*
X122000500Y-94521155D01*
X122000499Y-94521153D01*
X121980529Y-94420757D01*
X121969737Y-94366503D01*
X121969735Y-94366498D01*
X121909397Y-94220827D01*
X121909390Y-94220814D01*
X121821789Y-94089711D01*
X121821786Y-94089707D01*
X121710292Y-93978213D01*
X121710288Y-93978210D01*
X121624897Y-93921153D01*
X143699500Y-93921153D01*
X143699500Y-94078846D01*
X143730261Y-94233489D01*
X143730264Y-94233501D01*
X143790602Y-94379172D01*
X143790609Y-94379185D01*
X143878210Y-94510288D01*
X143878213Y-94510292D01*
X143989707Y-94621786D01*
X143989711Y-94621789D01*
X144120814Y-94709390D01*
X144120827Y-94709397D01*
X144266498Y-94769735D01*
X144266503Y-94769737D01*
X144421153Y-94800499D01*
X144421156Y-94800500D01*
X144421158Y-94800500D01*
X144578844Y-94800500D01*
X144578845Y-94800499D01*
X144733497Y-94769737D01*
X144879179Y-94709394D01*
X145010289Y-94621789D01*
X145121789Y-94510289D01*
X145174112Y-94431981D01*
X145196898Y-94397881D01*
X145250510Y-94353076D01*
X145319835Y-94344369D01*
X145382863Y-94374523D01*
X145403102Y-94397881D01*
X145478210Y-94510288D01*
X145478213Y-94510292D01*
X145589707Y-94621786D01*
X145589711Y-94621789D01*
X145720814Y-94709390D01*
X145720827Y-94709397D01*
X145866498Y-94769735D01*
X145866503Y-94769737D01*
X146021153Y-94800499D01*
X146021156Y-94800500D01*
X146021158Y-94800500D01*
X146178844Y-94800500D01*
X146178845Y-94800499D01*
X146333497Y-94769737D01*
X146479179Y-94709394D01*
X146610289Y-94621789D01*
X146721789Y-94510289D01*
X146809394Y-94379179D01*
X146869737Y-94233497D01*
X146900500Y-94078842D01*
X146900500Y-93921158D01*
X146900500Y-93921155D01*
X146900499Y-93921153D01*
X146880543Y-93820827D01*
X146869737Y-93766503D01*
X146851428Y-93722301D01*
X146809397Y-93620827D01*
X146809390Y-93620814D01*
X146721789Y-93489711D01*
X146721786Y-93489707D01*
X146610292Y-93378213D01*
X146610288Y-93378210D01*
X146479185Y-93290609D01*
X146479172Y-93290602D01*
X146333501Y-93230264D01*
X146333489Y-93230261D01*
X146178845Y-93199500D01*
X146178842Y-93199500D01*
X146021158Y-93199500D01*
X146021155Y-93199500D01*
X145866510Y-93230261D01*
X145866498Y-93230264D01*
X145720827Y-93290602D01*
X145720814Y-93290609D01*
X145589711Y-93378210D01*
X145589707Y-93378213D01*
X145478213Y-93489707D01*
X145478210Y-93489711D01*
X145403102Y-93602118D01*
X145349490Y-93646923D01*
X145280165Y-93655630D01*
X145217137Y-93625475D01*
X145196898Y-93602118D01*
X145121789Y-93489711D01*
X145121786Y-93489707D01*
X145010292Y-93378213D01*
X145010288Y-93378210D01*
X144879185Y-93290609D01*
X144879172Y-93290602D01*
X144733501Y-93230264D01*
X144733489Y-93230261D01*
X144578845Y-93199500D01*
X144578842Y-93199500D01*
X144421158Y-93199500D01*
X144421155Y-93199500D01*
X144266510Y-93230261D01*
X144266498Y-93230264D01*
X144120827Y-93290602D01*
X144120814Y-93290609D01*
X143989711Y-93378210D01*
X143989707Y-93378213D01*
X143878213Y-93489707D01*
X143878210Y-93489711D01*
X143790609Y-93620814D01*
X143790602Y-93620827D01*
X143730264Y-93766498D01*
X143730261Y-93766510D01*
X143699500Y-93921153D01*
X121624897Y-93921153D01*
X121579185Y-93890609D01*
X121579172Y-93890602D01*
X121433501Y-93830264D01*
X121433489Y-93830261D01*
X121278845Y-93799500D01*
X121278842Y-93799500D01*
X121121158Y-93799500D01*
X121121155Y-93799500D01*
X120966510Y-93830261D01*
X120966498Y-93830264D01*
X120820827Y-93890602D01*
X120820814Y-93890609D01*
X120689711Y-93978210D01*
X120689707Y-93978213D01*
X120578213Y-94089707D01*
X120578210Y-94089711D01*
X120490609Y-94220814D01*
X120490602Y-94220827D01*
X120430264Y-94366498D01*
X120430261Y-94366510D01*
X120399500Y-94521153D01*
X118200499Y-94521153D01*
X118180529Y-94420757D01*
X118169737Y-94366503D01*
X118169735Y-94366498D01*
X118109397Y-94220827D01*
X118109390Y-94220814D01*
X118021789Y-94089711D01*
X118021786Y-94089707D01*
X117910292Y-93978213D01*
X117910288Y-93978210D01*
X117779185Y-93890609D01*
X117779172Y-93890602D01*
X117633501Y-93830264D01*
X117633489Y-93830261D01*
X117478845Y-93799500D01*
X117478842Y-93799500D01*
X117321158Y-93799500D01*
X117321155Y-93799500D01*
X117166510Y-93830261D01*
X117166498Y-93830264D01*
X117020827Y-93890602D01*
X117020814Y-93890609D01*
X116889711Y-93978210D01*
X116889707Y-93978213D01*
X116778213Y-94089707D01*
X116778210Y-94089711D01*
X116690609Y-94220814D01*
X116690602Y-94220827D01*
X116630264Y-94366498D01*
X116630261Y-94366510D01*
X116599500Y-94521153D01*
X109933429Y-94521153D01*
X109933564Y-94520827D01*
X109955603Y-94467621D01*
X109955605Y-94467614D01*
X109969737Y-94433497D01*
X110000500Y-94278842D01*
X110000500Y-94121158D01*
X110000500Y-94121155D01*
X110000499Y-94121153D01*
X109992583Y-94081355D01*
X109969737Y-93966503D01*
X109969735Y-93966498D01*
X109909397Y-93820827D01*
X109909390Y-93820814D01*
X109821789Y-93689711D01*
X109821786Y-93689707D01*
X109710292Y-93578213D01*
X109710288Y-93578210D01*
X109579185Y-93490609D01*
X109579172Y-93490602D01*
X109433501Y-93430264D01*
X109433489Y-93430261D01*
X109278845Y-93399500D01*
X109278842Y-93399500D01*
X109121158Y-93399500D01*
X109121155Y-93399500D01*
X108966510Y-93430261D01*
X108966498Y-93430264D01*
X108820827Y-93490602D01*
X108820814Y-93490609D01*
X108693391Y-93575751D01*
X108626713Y-93596629D01*
X108559333Y-93578144D01*
X108512643Y-93526165D01*
X108500500Y-93472649D01*
X108500500Y-93321155D01*
X108500499Y-93321153D01*
X108494169Y-93289331D01*
X108469737Y-93166503D01*
X108442398Y-93100500D01*
X108409397Y-93020827D01*
X108409390Y-93020814D01*
X108321789Y-92889711D01*
X108321786Y-92889707D01*
X108210292Y-92778213D01*
X108210288Y-92778210D01*
X108079185Y-92690609D01*
X108079172Y-92690602D01*
X107933501Y-92630264D01*
X107933489Y-92630261D01*
X107778845Y-92599500D01*
X107778842Y-92599500D01*
X107621158Y-92599500D01*
X107621155Y-92599500D01*
X107466510Y-92630261D01*
X107466498Y-92630264D01*
X107320827Y-92690602D01*
X107320814Y-92690609D01*
X107189711Y-92778210D01*
X107189707Y-92778213D01*
X107078213Y-92889707D01*
X107078210Y-92889711D01*
X106990609Y-93020814D01*
X106990602Y-93020827D01*
X106930264Y-93166498D01*
X106930261Y-93166510D01*
X106899500Y-93321153D01*
X106201488Y-93321153D01*
X106157547Y-93262455D01*
X106157544Y-93262452D01*
X106042335Y-93176206D01*
X106034546Y-93171953D01*
X106036331Y-93168683D01*
X105994448Y-93137284D01*
X105970078Y-93071803D01*
X105984978Y-93003540D01*
X105993441Y-92990171D01*
X106083343Y-92866433D01*
X106190568Y-92655992D01*
X106263553Y-92431368D01*
X106270151Y-92389711D01*
X106300500Y-92198097D01*
X106300500Y-91961902D01*
X106263553Y-91728631D01*
X106228631Y-91621153D01*
X106190568Y-91504008D01*
X106190566Y-91504005D01*
X106190566Y-91504003D01*
X106122981Y-91371361D01*
X106097401Y-91321158D01*
X106097398Y-91321153D01*
X116599500Y-91321153D01*
X116599500Y-91478846D01*
X116630261Y-91633489D01*
X116630264Y-91633501D01*
X116690602Y-91779172D01*
X116690609Y-91779185D01*
X116778210Y-91910288D01*
X116778213Y-91910292D01*
X116889707Y-92021786D01*
X116889711Y-92021789D01*
X117020814Y-92109390D01*
X117020827Y-92109397D01*
X117100331Y-92142328D01*
X117166503Y-92169737D01*
X117321153Y-92200499D01*
X117321156Y-92200500D01*
X117321158Y-92200500D01*
X117478844Y-92200500D01*
X117478845Y-92200499D01*
X117633497Y-92169737D01*
X117779179Y-92109394D01*
X117910289Y-92021789D01*
X118021789Y-91910289D01*
X118109394Y-91779179D01*
X118169737Y-91633497D01*
X118172192Y-91621153D01*
X123399500Y-91621153D01*
X123399500Y-91778846D01*
X123430261Y-91933489D01*
X123430264Y-91933501D01*
X123490602Y-92079172D01*
X123490609Y-92079185D01*
X123578210Y-92210288D01*
X123578213Y-92210292D01*
X123689707Y-92321786D01*
X123689711Y-92321789D01*
X123820814Y-92409390D01*
X123820827Y-92409397D01*
X123966498Y-92469735D01*
X123966503Y-92469737D01*
X124121153Y-92500499D01*
X124121156Y-92500500D01*
X124121158Y-92500500D01*
X124278844Y-92500500D01*
X124278845Y-92500499D01*
X124433497Y-92469737D01*
X124579179Y-92409394D01*
X124710289Y-92321789D01*
X124821789Y-92210289D01*
X124909394Y-92079179D01*
X124969737Y-91933497D01*
X125000500Y-91778842D01*
X125000500Y-91621158D01*
X125000500Y-91621155D01*
X124984209Y-91539258D01*
X124984209Y-91539257D01*
X124980608Y-91521153D01*
X129699500Y-91521153D01*
X129699500Y-91678846D01*
X129730261Y-91833489D01*
X129730264Y-91833501D01*
X129790602Y-91979172D01*
X129790609Y-91979185D01*
X129878210Y-92110288D01*
X129878213Y-92110292D01*
X129881473Y-92113552D01*
X129914958Y-92174875D01*
X129909974Y-92244567D01*
X129908354Y-92248684D01*
X129882838Y-92310288D01*
X129880262Y-92316506D01*
X129880260Y-92316511D01*
X129849500Y-92471153D01*
X129849500Y-92628846D01*
X129880261Y-92783489D01*
X129880264Y-92783501D01*
X129940602Y-92929172D01*
X129940609Y-92929185D01*
X130028210Y-93060288D01*
X130028213Y-93060292D01*
X130139707Y-93171786D01*
X130139711Y-93171789D01*
X130270814Y-93259390D01*
X130270827Y-93259397D01*
X130416498Y-93319735D01*
X130416503Y-93319737D01*
X130571153Y-93350499D01*
X130571156Y-93350500D01*
X130571158Y-93350500D01*
X130728844Y-93350500D01*
X130728845Y-93350499D01*
X130883497Y-93319737D01*
X130894591Y-93315141D01*
X130964056Y-93307669D01*
X131026537Y-93338940D01*
X131045149Y-93360809D01*
X131078210Y-93410288D01*
X131078213Y-93410292D01*
X131189707Y-93521786D01*
X131189711Y-93521789D01*
X131320814Y-93609390D01*
X131320827Y-93609397D01*
X131432445Y-93655630D01*
X131466503Y-93669737D01*
X131621153Y-93700499D01*
X131621156Y-93700500D01*
X131621158Y-93700500D01*
X131778844Y-93700500D01*
X131778845Y-93700499D01*
X131933497Y-93669737D01*
X132051592Y-93620821D01*
X132079172Y-93609397D01*
X132079172Y-93609396D01*
X132079179Y-93609394D01*
X132210289Y-93521789D01*
X132321789Y-93410289D01*
X132409394Y-93279179D01*
X132416323Y-93262452D01*
X132429655Y-93230264D01*
X132469737Y-93133497D01*
X132500500Y-92978842D01*
X132500500Y-92821158D01*
X132500500Y-92821155D01*
X132500499Y-92821153D01*
X132498338Y-92810288D01*
X132469737Y-92666503D01*
X132465383Y-92655992D01*
X132409397Y-92520827D01*
X132409390Y-92520814D01*
X132321789Y-92389711D01*
X132321786Y-92389707D01*
X132210292Y-92278213D01*
X132210288Y-92278210D01*
X132124897Y-92221153D01*
X135499500Y-92221153D01*
X135499500Y-92378846D01*
X135530261Y-92533489D01*
X135530264Y-92533501D01*
X135590602Y-92679172D01*
X135590609Y-92679185D01*
X135678210Y-92810288D01*
X135678213Y-92810292D01*
X135789707Y-92921786D01*
X135789711Y-92921789D01*
X135920814Y-93009390D01*
X135920827Y-93009397D01*
X136066498Y-93069735D01*
X136066503Y-93069737D01*
X136192920Y-93094883D01*
X136221153Y-93100499D01*
X136221156Y-93100500D01*
X136221158Y-93100500D01*
X136378844Y-93100500D01*
X136378845Y-93100499D01*
X136533497Y-93069737D01*
X136651592Y-93020821D01*
X136679172Y-93009397D01*
X136679172Y-93009396D01*
X136679179Y-93009394D01*
X136810289Y-92921789D01*
X136921789Y-92810289D01*
X137009394Y-92679179D01*
X137069737Y-92533497D01*
X137100500Y-92378842D01*
X137100500Y-92221158D01*
X137100500Y-92221155D01*
X137084209Y-92139258D01*
X137084209Y-92139257D01*
X137080608Y-92121153D01*
X139499500Y-92121153D01*
X139499500Y-92278846D01*
X139530261Y-92433489D01*
X139530264Y-92433501D01*
X139590602Y-92579172D01*
X139590609Y-92579185D01*
X139678210Y-92710288D01*
X139678213Y-92710292D01*
X139789707Y-92821786D01*
X139789711Y-92821789D01*
X139920814Y-92909390D01*
X139920827Y-92909397D01*
X140066498Y-92969735D01*
X140066503Y-92969737D01*
X140169166Y-92990158D01*
X140221153Y-93000499D01*
X140221156Y-93000500D01*
X140221158Y-93000500D01*
X140378844Y-93000500D01*
X140378845Y-93000499D01*
X140533497Y-92969737D01*
X140679179Y-92909394D01*
X140810289Y-92821789D01*
X140921789Y-92710289D01*
X141009394Y-92579179D01*
X141069737Y-92433497D01*
X141100500Y-92278842D01*
X141100500Y-92121158D01*
X141100500Y-92121155D01*
X141100499Y-92121153D01*
X141080734Y-92021789D01*
X141069737Y-91966503D01*
X141033427Y-91878842D01*
X141009397Y-91820827D01*
X141009390Y-91820814D01*
X140984763Y-91783957D01*
X140942798Y-91721153D01*
X143099500Y-91721153D01*
X143099500Y-91878846D01*
X143130261Y-92033489D01*
X143130264Y-92033501D01*
X143190602Y-92179172D01*
X143190609Y-92179185D01*
X143278210Y-92310288D01*
X143278213Y-92310292D01*
X143389707Y-92421786D01*
X143389711Y-92421789D01*
X143520814Y-92509390D01*
X143520827Y-92509397D01*
X143666498Y-92569735D01*
X143666503Y-92569737D01*
X143816131Y-92599500D01*
X143821153Y-92600499D01*
X143821156Y-92600500D01*
X143821158Y-92600500D01*
X143978844Y-92600500D01*
X143978845Y-92600499D01*
X144133497Y-92569737D01*
X144251592Y-92520821D01*
X144279172Y-92509397D01*
X144279172Y-92509396D01*
X144279179Y-92509394D01*
X144410289Y-92421789D01*
X144521789Y-92310289D01*
X144609394Y-92179179D01*
X144612311Y-92172138D01*
X144629655Y-92130264D01*
X144669737Y-92033497D01*
X144700500Y-91878842D01*
X144700500Y-91721158D01*
X144700500Y-91721155D01*
X144700499Y-91721153D01*
X144694244Y-91689707D01*
X144669737Y-91566503D01*
X144658452Y-91539258D01*
X144609397Y-91420827D01*
X144609390Y-91420814D01*
X144521789Y-91289711D01*
X144521786Y-91289707D01*
X144410292Y-91178213D01*
X144410288Y-91178210D01*
X144279185Y-91090609D01*
X144279172Y-91090602D01*
X144133501Y-91030264D01*
X144133489Y-91030261D01*
X143978845Y-90999500D01*
X143978842Y-90999500D01*
X143821158Y-90999500D01*
X143821155Y-90999500D01*
X143666510Y-91030261D01*
X143666498Y-91030264D01*
X143520827Y-91090602D01*
X143520814Y-91090609D01*
X143389711Y-91178210D01*
X143389707Y-91178213D01*
X143278213Y-91289707D01*
X143278210Y-91289711D01*
X143190609Y-91420814D01*
X143190602Y-91420827D01*
X143130264Y-91566498D01*
X143130261Y-91566510D01*
X143099500Y-91721153D01*
X140942798Y-91721153D01*
X140921789Y-91689711D01*
X140921786Y-91689707D01*
X140810292Y-91578213D01*
X140810288Y-91578210D01*
X140679185Y-91490609D01*
X140679172Y-91490602D01*
X140533501Y-91430264D01*
X140533489Y-91430261D01*
X140378845Y-91399500D01*
X140378842Y-91399500D01*
X140221158Y-91399500D01*
X140221155Y-91399500D01*
X140066510Y-91430261D01*
X140066498Y-91430264D01*
X139920827Y-91490602D01*
X139920814Y-91490609D01*
X139789711Y-91578210D01*
X139789707Y-91578213D01*
X139678213Y-91689707D01*
X139678210Y-91689711D01*
X139590609Y-91820814D01*
X139590602Y-91820827D01*
X139530264Y-91966498D01*
X139530261Y-91966510D01*
X139499500Y-92121153D01*
X137080608Y-92121153D01*
X137078268Y-92109390D01*
X137069737Y-92066503D01*
X137069735Y-92066498D01*
X137009397Y-91920827D01*
X137009390Y-91920814D01*
X136921789Y-91789711D01*
X136921786Y-91789707D01*
X136810292Y-91678213D01*
X136810288Y-91678210D01*
X136679185Y-91590609D01*
X136679172Y-91590602D01*
X136533501Y-91530264D01*
X136533489Y-91530261D01*
X136378845Y-91499500D01*
X136378842Y-91499500D01*
X136221158Y-91499500D01*
X136221155Y-91499500D01*
X136066510Y-91530261D01*
X136066498Y-91530264D01*
X135920827Y-91590602D01*
X135920814Y-91590609D01*
X135789711Y-91678210D01*
X135789707Y-91678213D01*
X135678213Y-91789707D01*
X135678210Y-91789711D01*
X135590609Y-91920814D01*
X135590602Y-91920827D01*
X135530264Y-92066498D01*
X135530261Y-92066510D01*
X135499500Y-92221153D01*
X132124897Y-92221153D01*
X132079185Y-92190609D01*
X132079172Y-92190602D01*
X131933501Y-92130264D01*
X131933489Y-92130261D01*
X131778845Y-92099500D01*
X131778842Y-92099500D01*
X131621158Y-92099500D01*
X131621155Y-92099500D01*
X131466511Y-92130260D01*
X131466501Y-92130263D01*
X131455402Y-92134861D01*
X131426044Y-92138016D01*
X131397084Y-92143822D01*
X131391690Y-92141709D01*
X131385932Y-92142328D01*
X131359523Y-92129107D01*
X131332028Y-92118337D01*
X131326794Y-92112724D01*
X131323454Y-92111052D01*
X131307483Y-92092976D01*
X131306127Y-92091102D01*
X131271789Y-92039711D01*
X131261535Y-92029457D01*
X131255738Y-92021443D01*
X131247236Y-91997457D01*
X131235041Y-91975124D01*
X131235759Y-91965079D01*
X131232395Y-91955588D01*
X131238209Y-91930815D01*
X131240025Y-91905432D01*
X131241646Y-91901313D01*
X131269737Y-91833497D01*
X131300500Y-91678842D01*
X131300500Y-91521158D01*
X131300500Y-91521155D01*
X131300499Y-91521153D01*
X131294422Y-91490602D01*
X131269737Y-91366503D01*
X131250955Y-91321158D01*
X131209397Y-91220827D01*
X131209390Y-91220814D01*
X131121789Y-91089711D01*
X131121786Y-91089707D01*
X131010292Y-90978213D01*
X131010288Y-90978210D01*
X130879185Y-90890609D01*
X130879172Y-90890602D01*
X130733501Y-90830264D01*
X130733489Y-90830261D01*
X130578845Y-90799500D01*
X130578842Y-90799500D01*
X130421158Y-90799500D01*
X130421155Y-90799500D01*
X130266510Y-90830261D01*
X130266498Y-90830264D01*
X130120827Y-90890602D01*
X130120814Y-90890609D01*
X129989711Y-90978210D01*
X129989707Y-90978213D01*
X129878213Y-91089707D01*
X129878210Y-91089711D01*
X129790609Y-91220814D01*
X129790602Y-91220827D01*
X129730264Y-91366498D01*
X129730261Y-91366510D01*
X129699500Y-91521153D01*
X124980608Y-91521153D01*
X124977196Y-91504003D01*
X124969737Y-91466503D01*
X124969735Y-91466498D01*
X124909397Y-91320827D01*
X124909390Y-91320814D01*
X124821789Y-91189711D01*
X124821786Y-91189707D01*
X124710292Y-91078213D01*
X124710288Y-91078210D01*
X124579185Y-90990609D01*
X124579172Y-90990602D01*
X124433501Y-90930264D01*
X124433489Y-90930261D01*
X124278845Y-90899500D01*
X124278842Y-90899500D01*
X124121158Y-90899500D01*
X124121155Y-90899500D01*
X123966510Y-90930261D01*
X123966498Y-90930264D01*
X123820827Y-90990602D01*
X123820814Y-90990609D01*
X123689711Y-91078210D01*
X123689707Y-91078213D01*
X123578213Y-91189707D01*
X123578210Y-91189711D01*
X123490609Y-91320814D01*
X123490602Y-91320827D01*
X123430264Y-91466498D01*
X123430261Y-91466510D01*
X123399500Y-91621153D01*
X118172192Y-91621153D01*
X118178216Y-91590874D01*
X118178216Y-91590873D01*
X118200499Y-91478846D01*
X118200500Y-91478844D01*
X118200500Y-91321155D01*
X118200499Y-91321153D01*
X118195012Y-91293567D01*
X118169737Y-91166503D01*
X118143222Y-91102490D01*
X118109397Y-91020827D01*
X118109390Y-91020814D01*
X118021789Y-90889711D01*
X118021786Y-90889707D01*
X117910292Y-90778213D01*
X117910288Y-90778210D01*
X117779185Y-90690609D01*
X117779172Y-90690602D01*
X117633501Y-90630264D01*
X117633489Y-90630261D01*
X117478845Y-90599500D01*
X117478842Y-90599500D01*
X117321158Y-90599500D01*
X117321155Y-90599500D01*
X117166510Y-90630261D01*
X117166498Y-90630264D01*
X117020827Y-90690602D01*
X117020814Y-90690609D01*
X116889711Y-90778210D01*
X116889707Y-90778213D01*
X116778213Y-90889707D01*
X116778210Y-90889711D01*
X116690609Y-91020814D01*
X116690602Y-91020827D01*
X116630264Y-91166498D01*
X116630261Y-91166510D01*
X116599500Y-91321153D01*
X106097398Y-91321153D01*
X106083343Y-91293567D01*
X105944517Y-91102490D01*
X105777510Y-90935483D01*
X105742872Y-90910317D01*
X105700207Y-90854989D01*
X105694228Y-90785375D01*
X105726833Y-90723580D01*
X105742873Y-90709682D01*
X105777510Y-90684517D01*
X105944517Y-90517510D01*
X106083343Y-90326433D01*
X106190568Y-90115992D01*
X106263553Y-89891368D01*
X106276395Y-89810288D01*
X106300500Y-89658097D01*
X106300500Y-89421902D01*
X106270812Y-89234464D01*
X106270812Y-89234463D01*
X106268704Y-89221153D01*
X118799500Y-89221153D01*
X118799500Y-89378846D01*
X118830261Y-89533489D01*
X118830264Y-89533501D01*
X118890602Y-89679172D01*
X118890609Y-89679185D01*
X118978210Y-89810288D01*
X118978213Y-89810292D01*
X119089707Y-89921786D01*
X119089711Y-89921789D01*
X119220814Y-90009390D01*
X119220827Y-90009397D01*
X119366498Y-90069735D01*
X119366503Y-90069737D01*
X119521153Y-90100499D01*
X119521156Y-90100500D01*
X119521158Y-90100500D01*
X119678844Y-90100500D01*
X119678845Y-90100499D01*
X119833497Y-90069737D01*
X119979179Y-90009394D01*
X120110289Y-89921789D01*
X120221789Y-89810289D01*
X120309394Y-89679179D01*
X120369737Y-89533497D01*
X120400500Y-89378842D01*
X120400500Y-89221158D01*
X120400500Y-89221155D01*
X120400499Y-89221153D01*
X120378269Y-89109397D01*
X120369737Y-89066503D01*
X120344879Y-89006489D01*
X120309397Y-88920827D01*
X120309390Y-88920814D01*
X120221789Y-88789711D01*
X120221786Y-88789707D01*
X120126232Y-88694153D01*
X123913500Y-88694153D01*
X123913500Y-88851846D01*
X123944261Y-89006489D01*
X123944264Y-89006501D01*
X124004602Y-89152172D01*
X124004609Y-89152185D01*
X124092210Y-89283288D01*
X124092213Y-89283292D01*
X124203707Y-89394786D01*
X124203711Y-89394789D01*
X124334814Y-89482390D01*
X124334827Y-89482397D01*
X124428406Y-89521158D01*
X124480503Y-89542737D01*
X124635153Y-89573499D01*
X124635156Y-89573500D01*
X124635158Y-89573500D01*
X124792844Y-89573500D01*
X124792845Y-89573499D01*
X124947497Y-89542737D01*
X124999606Y-89521153D01*
X131699500Y-89521153D01*
X131699500Y-89678846D01*
X131730261Y-89833489D01*
X131730264Y-89833501D01*
X131790602Y-89979172D01*
X131790609Y-89979185D01*
X131878210Y-90110288D01*
X131878213Y-90110292D01*
X131989707Y-90221786D01*
X131989711Y-90221789D01*
X132120814Y-90309390D01*
X132120827Y-90309397D01*
X132266498Y-90369735D01*
X132266503Y-90369737D01*
X132421153Y-90400499D01*
X132421156Y-90400500D01*
X132421158Y-90400500D01*
X132578844Y-90400500D01*
X132578845Y-90400499D01*
X132733497Y-90369737D01*
X132879179Y-90309394D01*
X133010289Y-90221789D01*
X133121789Y-90110289D01*
X133209394Y-89979179D01*
X133269737Y-89833497D01*
X133300500Y-89678842D01*
X133300500Y-89521158D01*
X133300500Y-89521155D01*
X133300499Y-89521153D01*
X133292789Y-89482394D01*
X133269737Y-89366503D01*
X133269735Y-89366498D01*
X133209397Y-89220827D01*
X133209390Y-89220814D01*
X133121789Y-89089711D01*
X133121786Y-89089707D01*
X133010292Y-88978213D01*
X133010288Y-88978210D01*
X132879185Y-88890609D01*
X132879172Y-88890602D01*
X132733501Y-88830264D01*
X132733489Y-88830261D01*
X132578845Y-88799500D01*
X132578842Y-88799500D01*
X132421158Y-88799500D01*
X132421155Y-88799500D01*
X132266510Y-88830261D01*
X132266498Y-88830264D01*
X132120827Y-88890602D01*
X132120814Y-88890609D01*
X131989711Y-88978210D01*
X131989707Y-88978213D01*
X131878213Y-89089707D01*
X131878210Y-89089711D01*
X131790609Y-89220814D01*
X131790602Y-89220827D01*
X131730264Y-89366498D01*
X131730261Y-89366510D01*
X131699500Y-89521153D01*
X124999606Y-89521153D01*
X125093179Y-89482394D01*
X125224289Y-89394789D01*
X125335789Y-89283289D01*
X125423394Y-89152179D01*
X125483737Y-89006497D01*
X125514500Y-88851842D01*
X125514500Y-88694158D01*
X125514500Y-88694155D01*
X125514499Y-88694153D01*
X125502432Y-88633489D01*
X125483737Y-88539503D01*
X125479909Y-88530261D01*
X125423397Y-88393827D01*
X125423390Y-88393814D01*
X125335789Y-88262711D01*
X125335786Y-88262707D01*
X125224292Y-88151213D01*
X125224288Y-88151210D01*
X125093185Y-88063609D01*
X125093172Y-88063602D01*
X124947501Y-88003264D01*
X124947489Y-88003261D01*
X124792845Y-87972500D01*
X124792842Y-87972500D01*
X124635158Y-87972500D01*
X124635155Y-87972500D01*
X124480510Y-88003261D01*
X124480498Y-88003264D01*
X124334827Y-88063602D01*
X124334814Y-88063609D01*
X124203711Y-88151210D01*
X124203707Y-88151213D01*
X124092213Y-88262707D01*
X124092210Y-88262711D01*
X124004609Y-88393814D01*
X124004602Y-88393827D01*
X123944264Y-88539498D01*
X123944261Y-88539510D01*
X123913500Y-88694153D01*
X120126232Y-88694153D01*
X120110292Y-88678213D01*
X120110288Y-88678210D01*
X119979185Y-88590609D01*
X119979172Y-88590602D01*
X119833501Y-88530264D01*
X119833489Y-88530261D01*
X119678845Y-88499500D01*
X119678842Y-88499500D01*
X119521158Y-88499500D01*
X119521155Y-88499500D01*
X119366510Y-88530261D01*
X119366498Y-88530264D01*
X119220827Y-88590602D01*
X119220814Y-88590609D01*
X119089711Y-88678210D01*
X119089707Y-88678213D01*
X118978213Y-88789707D01*
X118978210Y-88789711D01*
X118890609Y-88920814D01*
X118890602Y-88920827D01*
X118830264Y-89066498D01*
X118830261Y-89066510D01*
X118799500Y-89221153D01*
X106268704Y-89221153D01*
X106263553Y-89188632D01*
X106263553Y-89188631D01*
X106204375Y-89006501D01*
X106190568Y-88964008D01*
X106190566Y-88964005D01*
X106190566Y-88964003D01*
X106122422Y-88830264D01*
X106083343Y-88753567D01*
X105944517Y-88562490D01*
X105777510Y-88395483D01*
X105775222Y-88393821D01*
X105742873Y-88370318D01*
X105700207Y-88314989D01*
X105694228Y-88245375D01*
X105726833Y-88183580D01*
X105742873Y-88169682D01*
X105747239Y-88166510D01*
X105777510Y-88144517D01*
X105944517Y-87977510D01*
X106083343Y-87786433D01*
X106190568Y-87575992D01*
X106263553Y-87351368D01*
X106266383Y-87333501D01*
X106300500Y-87118097D01*
X106300500Y-86881902D01*
X106274987Y-86720827D01*
X106263553Y-86648632D01*
X106263552Y-86648628D01*
X106263552Y-86648627D01*
X106208180Y-86478213D01*
X106190568Y-86424008D01*
X106189113Y-86421153D01*
X110799500Y-86421153D01*
X110799500Y-86578846D01*
X110830261Y-86733489D01*
X110830264Y-86733501D01*
X110890602Y-86879172D01*
X110890609Y-86879185D01*
X110978210Y-87010288D01*
X110978213Y-87010292D01*
X111089707Y-87121786D01*
X111089711Y-87121789D01*
X111220814Y-87209390D01*
X111220827Y-87209397D01*
X111351443Y-87263499D01*
X111366503Y-87269737D01*
X111516955Y-87299664D01*
X111521153Y-87300499D01*
X111521156Y-87300500D01*
X111521158Y-87300500D01*
X111678844Y-87300500D01*
X111678845Y-87300499D01*
X111833497Y-87269737D01*
X111979179Y-87209394D01*
X112110289Y-87121789D01*
X112210925Y-87021153D01*
X113299500Y-87021153D01*
X113299500Y-87178846D01*
X113330261Y-87333489D01*
X113330264Y-87333501D01*
X113390602Y-87479172D01*
X113390609Y-87479185D01*
X113478210Y-87610288D01*
X113478213Y-87610292D01*
X113589707Y-87721786D01*
X113589711Y-87721789D01*
X113720814Y-87809390D01*
X113720827Y-87809397D01*
X113866498Y-87869735D01*
X113866503Y-87869737D01*
X114021153Y-87900499D01*
X114021156Y-87900500D01*
X114021158Y-87900500D01*
X114178844Y-87900500D01*
X114178845Y-87900499D01*
X114333497Y-87869737D01*
X114466159Y-87814787D01*
X114479172Y-87809397D01*
X114479172Y-87809396D01*
X114479179Y-87809394D01*
X114610289Y-87721789D01*
X114721789Y-87610289D01*
X114809394Y-87479179D01*
X114833429Y-87421153D01*
X136199500Y-87421153D01*
X136199500Y-87578846D01*
X136230261Y-87733489D01*
X136230264Y-87733501D01*
X136290602Y-87879172D01*
X136290609Y-87879185D01*
X136378210Y-88010288D01*
X136378213Y-88010292D01*
X136489707Y-88121786D01*
X136489711Y-88121789D01*
X136620814Y-88209390D01*
X136620827Y-88209397D01*
X136766498Y-88269735D01*
X136766503Y-88269737D01*
X136891628Y-88294626D01*
X136921153Y-88300499D01*
X136921156Y-88300500D01*
X136921158Y-88300500D01*
X137078844Y-88300500D01*
X137078845Y-88300499D01*
X137233497Y-88269737D01*
X137379179Y-88209394D01*
X137510289Y-88121789D01*
X137621789Y-88010289D01*
X137709394Y-87879179D01*
X137769737Y-87733497D01*
X137800500Y-87578842D01*
X137800500Y-87421158D01*
X137800500Y-87421155D01*
X137790629Y-87371536D01*
X137786686Y-87351711D01*
X137792913Y-87282121D01*
X137835775Y-87226943D01*
X137901665Y-87203698D01*
X137955753Y-87212958D01*
X138003503Y-87232737D01*
X138137496Y-87259390D01*
X138158153Y-87263499D01*
X138158156Y-87263500D01*
X138158158Y-87263500D01*
X138315844Y-87263500D01*
X138315845Y-87263499D01*
X138470497Y-87232737D01*
X138587068Y-87184452D01*
X138616172Y-87172397D01*
X138616172Y-87172396D01*
X138616179Y-87172394D01*
X138747289Y-87084789D01*
X138858789Y-86973289D01*
X138946394Y-86842179D01*
X139006737Y-86696497D01*
X139037500Y-86541842D01*
X139037500Y-86384158D01*
X139037500Y-86384155D01*
X139037499Y-86384153D01*
X139005549Y-86223528D01*
X139007146Y-86223210D01*
X139006592Y-86161218D01*
X139043840Y-86102105D01*
X139107133Y-86072513D01*
X139176378Y-86081838D01*
X139194769Y-86091987D01*
X139220812Y-86109389D01*
X139220827Y-86109397D01*
X139345936Y-86161218D01*
X139366503Y-86169737D01*
X139521153Y-86200499D01*
X139521156Y-86200500D01*
X139521158Y-86200500D01*
X139678844Y-86200500D01*
X139678845Y-86200499D01*
X139833497Y-86169737D01*
X139951592Y-86120821D01*
X139979172Y-86109397D01*
X139979172Y-86109396D01*
X139979179Y-86109394D01*
X140110289Y-86021789D01*
X140221789Y-85910289D01*
X140309394Y-85779179D01*
X140312777Y-85771013D01*
X140329655Y-85730264D01*
X140369737Y-85633497D01*
X140400500Y-85478842D01*
X140400500Y-85321158D01*
X140400500Y-85321156D01*
X140400500Y-85321155D01*
X140400499Y-85321153D01*
X140389849Y-85267611D01*
X140369737Y-85166503D01*
X140356062Y-85133489D01*
X140309397Y-85020827D01*
X140309390Y-85020814D01*
X140221789Y-84889711D01*
X140221786Y-84889707D01*
X140110292Y-84778213D01*
X140110288Y-84778210D01*
X139979185Y-84690609D01*
X139979172Y-84690602D01*
X139833501Y-84630264D01*
X139833489Y-84630261D01*
X139678845Y-84599500D01*
X139678842Y-84599500D01*
X139521158Y-84599500D01*
X139521155Y-84599500D01*
X139366510Y-84630261D01*
X139366498Y-84630264D01*
X139220827Y-84690602D01*
X139220814Y-84690609D01*
X139089711Y-84778210D01*
X139089707Y-84778213D01*
X138978213Y-84889707D01*
X138978210Y-84889711D01*
X138890609Y-85020814D01*
X138890602Y-85020827D01*
X138830264Y-85166498D01*
X138830261Y-85166510D01*
X138799500Y-85321153D01*
X138799500Y-85478846D01*
X138831451Y-85639472D01*
X138829856Y-85639789D01*
X138830402Y-85701798D01*
X138793146Y-85760906D01*
X138729847Y-85790489D01*
X138660604Y-85781154D01*
X138642231Y-85771013D01*
X138616184Y-85753609D01*
X138616172Y-85753602D01*
X138470501Y-85693264D01*
X138470489Y-85693261D01*
X138315845Y-85662500D01*
X138315842Y-85662500D01*
X138158158Y-85662500D01*
X138158155Y-85662500D01*
X138003510Y-85693261D01*
X138003498Y-85693264D01*
X137857827Y-85753602D01*
X137857814Y-85753609D01*
X137726711Y-85841210D01*
X137726707Y-85841213D01*
X137615213Y-85952707D01*
X137615210Y-85952711D01*
X137527609Y-86083814D01*
X137527602Y-86083827D01*
X137467264Y-86229498D01*
X137467261Y-86229510D01*
X137436500Y-86384153D01*
X137436500Y-86541846D01*
X137450313Y-86611288D01*
X137444086Y-86680879D01*
X137401223Y-86736057D01*
X137335333Y-86759301D01*
X137281244Y-86750040D01*
X137233501Y-86730264D01*
X137233489Y-86730261D01*
X137078845Y-86699500D01*
X137078842Y-86699500D01*
X136921158Y-86699500D01*
X136921155Y-86699500D01*
X136766510Y-86730261D01*
X136766498Y-86730264D01*
X136620827Y-86790602D01*
X136620814Y-86790609D01*
X136489711Y-86878210D01*
X136489707Y-86878213D01*
X136378213Y-86989707D01*
X136378210Y-86989711D01*
X136290609Y-87120814D01*
X136290602Y-87120827D01*
X136230264Y-87266498D01*
X136230261Y-87266510D01*
X136199500Y-87421153D01*
X114833429Y-87421153D01*
X114869737Y-87333497D01*
X114900500Y-87178842D01*
X114900500Y-87021158D01*
X114900500Y-87021155D01*
X114900499Y-87021153D01*
X114890978Y-86973288D01*
X114869737Y-86866503D01*
X114815705Y-86736057D01*
X114809397Y-86720827D01*
X114809390Y-86720814D01*
X114721789Y-86589711D01*
X114721786Y-86589707D01*
X114610292Y-86478213D01*
X114610288Y-86478210D01*
X114599727Y-86471153D01*
X133449500Y-86471153D01*
X133449500Y-86628846D01*
X133480261Y-86783489D01*
X133480264Y-86783501D01*
X133540602Y-86929172D01*
X133540609Y-86929185D01*
X133628210Y-87060288D01*
X133628213Y-87060292D01*
X133739707Y-87171786D01*
X133739711Y-87171789D01*
X133870814Y-87259390D01*
X133870827Y-87259397D01*
X133970060Y-87300500D01*
X134016503Y-87319737D01*
X134171153Y-87350499D01*
X134171156Y-87350500D01*
X134171158Y-87350500D01*
X134328844Y-87350500D01*
X134328845Y-87350499D01*
X134483497Y-87319737D01*
X134629179Y-87259394D01*
X134760289Y-87171789D01*
X134871789Y-87060289D01*
X134959394Y-86929179D01*
X135019737Y-86783497D01*
X135050500Y-86628842D01*
X135050500Y-86471158D01*
X135050500Y-86471155D01*
X135050499Y-86471153D01*
X135040373Y-86420247D01*
X135019737Y-86316503D01*
X135012694Y-86299500D01*
X134959397Y-86170827D01*
X134959390Y-86170814D01*
X134871789Y-86039711D01*
X134871786Y-86039707D01*
X134760292Y-85928213D01*
X134760288Y-85928210D01*
X134629185Y-85840609D01*
X134629172Y-85840602D01*
X134483501Y-85780264D01*
X134483489Y-85780261D01*
X134328845Y-85749500D01*
X134328842Y-85749500D01*
X134171158Y-85749500D01*
X134171155Y-85749500D01*
X134016510Y-85780261D01*
X134016498Y-85780264D01*
X133870827Y-85840602D01*
X133870814Y-85840609D01*
X133739711Y-85928210D01*
X133739707Y-85928213D01*
X133628213Y-86039707D01*
X133628210Y-86039711D01*
X133540609Y-86170814D01*
X133540602Y-86170827D01*
X133480264Y-86316498D01*
X133480261Y-86316510D01*
X133449500Y-86471153D01*
X114599727Y-86471153D01*
X114479185Y-86390609D01*
X114479172Y-86390602D01*
X114333501Y-86330264D01*
X114333489Y-86330261D01*
X114178845Y-86299500D01*
X114178842Y-86299500D01*
X114021158Y-86299500D01*
X114021155Y-86299500D01*
X113866510Y-86330261D01*
X113866498Y-86330264D01*
X113720827Y-86390602D01*
X113720814Y-86390609D01*
X113589711Y-86478210D01*
X113589707Y-86478213D01*
X113478213Y-86589707D01*
X113478210Y-86589711D01*
X113390609Y-86720814D01*
X113390602Y-86720827D01*
X113330264Y-86866498D01*
X113330261Y-86866510D01*
X113299500Y-87021153D01*
X112210925Y-87021153D01*
X112221789Y-87010289D01*
X112309394Y-86879179D01*
X112369737Y-86733497D01*
X112400500Y-86578842D01*
X112400500Y-86421158D01*
X112400500Y-86421155D01*
X112400499Y-86421153D01*
X112393140Y-86384158D01*
X112369737Y-86266503D01*
X112354409Y-86229498D01*
X112309397Y-86120827D01*
X112309390Y-86120814D01*
X112221789Y-85989711D01*
X112221786Y-85989707D01*
X112110292Y-85878213D01*
X112110288Y-85878210D01*
X111979185Y-85790609D01*
X111979172Y-85790602D01*
X111833501Y-85730264D01*
X111833489Y-85730261D01*
X111678845Y-85699500D01*
X111678842Y-85699500D01*
X111521158Y-85699500D01*
X111521155Y-85699500D01*
X111366510Y-85730261D01*
X111366498Y-85730264D01*
X111220827Y-85790602D01*
X111220814Y-85790609D01*
X111089711Y-85878210D01*
X111089707Y-85878213D01*
X110978213Y-85989707D01*
X110978210Y-85989711D01*
X110890609Y-86120814D01*
X110890602Y-86120827D01*
X110830264Y-86266498D01*
X110830261Y-86266510D01*
X110799500Y-86421153D01*
X106189113Y-86421153D01*
X106083343Y-86213567D01*
X105944517Y-86022490D01*
X105777510Y-85855483D01*
X105586433Y-85716657D01*
X105586429Y-85716655D01*
X105426476Y-85635154D01*
X105375680Y-85587179D01*
X105358885Y-85519358D01*
X105381423Y-85453223D01*
X105395085Y-85436992D01*
X105421789Y-85410289D01*
X105509394Y-85279179D01*
X105569737Y-85133497D01*
X105600500Y-84978842D01*
X105600500Y-84821158D01*
X105600500Y-84821155D01*
X105600499Y-84821153D01*
X106899500Y-84821153D01*
X106899500Y-84978846D01*
X106930261Y-85133489D01*
X106930264Y-85133501D01*
X106990602Y-85279172D01*
X106990609Y-85279185D01*
X107078210Y-85410288D01*
X107078213Y-85410292D01*
X107189707Y-85521786D01*
X107189711Y-85521789D01*
X107320814Y-85609390D01*
X107320827Y-85609397D01*
X107449031Y-85662500D01*
X107466503Y-85669737D01*
X107616131Y-85699500D01*
X107621153Y-85700499D01*
X107621156Y-85700500D01*
X107621158Y-85700500D01*
X107778844Y-85700500D01*
X107778845Y-85700499D01*
X107933497Y-85669737D01*
X108049262Y-85621786D01*
X108079172Y-85609397D01*
X108079172Y-85609396D01*
X108079179Y-85609394D01*
X108210289Y-85521789D01*
X108321789Y-85410289D01*
X108381348Y-85321153D01*
X115699500Y-85321153D01*
X115699500Y-85478846D01*
X115730261Y-85633489D01*
X115730264Y-85633501D01*
X115790602Y-85779172D01*
X115790609Y-85779185D01*
X115878210Y-85910288D01*
X115878213Y-85910292D01*
X115989707Y-86021786D01*
X115989711Y-86021789D01*
X116120814Y-86109390D01*
X116120827Y-86109397D01*
X116245936Y-86161218D01*
X116266503Y-86169737D01*
X116421153Y-86200499D01*
X116421156Y-86200500D01*
X116421158Y-86200500D01*
X116578844Y-86200500D01*
X116578845Y-86200499D01*
X116733497Y-86169737D01*
X116851592Y-86120821D01*
X116879172Y-86109397D01*
X116879172Y-86109396D01*
X116879179Y-86109394D01*
X117010289Y-86021789D01*
X117121789Y-85910289D01*
X117209394Y-85779179D01*
X117212777Y-85771013D01*
X117229655Y-85730264D01*
X117269737Y-85633497D01*
X117300500Y-85478842D01*
X117300500Y-85321158D01*
X117300499Y-85321155D01*
X117289849Y-85267613D01*
X117289050Y-85263596D01*
X117295277Y-85194006D01*
X117338139Y-85138828D01*
X117404028Y-85115583D01*
X117458119Y-85124844D01*
X117558683Y-85166498D01*
X117566503Y-85169737D01*
X117721153Y-85200499D01*
X117721156Y-85200500D01*
X117721158Y-85200500D01*
X117878843Y-85200500D01*
X117894677Y-85197350D01*
X117952048Y-85185938D01*
X118021638Y-85192165D01*
X118076816Y-85235027D01*
X118100061Y-85300916D01*
X118099643Y-85319697D01*
X118099500Y-85321150D01*
X118099500Y-85478846D01*
X118130261Y-85633489D01*
X118130264Y-85633501D01*
X118190602Y-85779172D01*
X118190609Y-85779185D01*
X118278210Y-85910288D01*
X118278213Y-85910292D01*
X118389707Y-86021786D01*
X118389711Y-86021789D01*
X118520814Y-86109390D01*
X118520827Y-86109397D01*
X118645936Y-86161218D01*
X118666503Y-86169737D01*
X118821153Y-86200499D01*
X118821156Y-86200500D01*
X118821158Y-86200500D01*
X118978844Y-86200500D01*
X118978845Y-86200499D01*
X119133497Y-86169737D01*
X119251592Y-86120821D01*
X119279172Y-86109397D01*
X119279172Y-86109396D01*
X119279179Y-86109394D01*
X119410289Y-86021789D01*
X119521789Y-85910289D01*
X119609394Y-85779179D01*
X119612777Y-85771013D01*
X119629655Y-85730264D01*
X119669737Y-85633497D01*
X119700500Y-85478842D01*
X119700500Y-85321158D01*
X119700500Y-85321156D01*
X119700500Y-85321155D01*
X119700499Y-85321153D01*
X119689849Y-85267611D01*
X119669737Y-85166503D01*
X119656062Y-85133489D01*
X119609397Y-85020827D01*
X119609390Y-85020814D01*
X119521789Y-84889711D01*
X119521786Y-84889707D01*
X119482079Y-84850000D01*
X120100000Y-84850000D01*
X122190000Y-84850000D01*
X122190000Y-84021153D01*
X133799500Y-84021153D01*
X133799500Y-84178846D01*
X133830261Y-84333489D01*
X133830264Y-84333501D01*
X133890602Y-84479172D01*
X133890609Y-84479185D01*
X133978210Y-84610288D01*
X133978213Y-84610292D01*
X134089707Y-84721786D01*
X134089711Y-84721789D01*
X134220814Y-84809390D01*
X134220827Y-84809397D01*
X134318853Y-84850000D01*
X134366503Y-84869737D01*
X134521153Y-84900499D01*
X134521156Y-84900500D01*
X134521158Y-84900500D01*
X134678844Y-84900500D01*
X134678845Y-84900499D01*
X134833497Y-84869737D01*
X134979179Y-84809394D01*
X135110289Y-84721789D01*
X135221789Y-84610289D01*
X135309394Y-84479179D01*
X135338095Y-84409888D01*
X136310765Y-84409888D01*
X136310765Y-84567581D01*
X136341526Y-84722224D01*
X136341529Y-84722236D01*
X136401867Y-84867907D01*
X136401874Y-84867920D01*
X136489475Y-84999023D01*
X136489478Y-84999027D01*
X136600972Y-85110521D01*
X136600976Y-85110524D01*
X136732079Y-85198125D01*
X136732092Y-85198132D01*
X136817482Y-85233501D01*
X136877768Y-85258472D01*
X136981899Y-85279185D01*
X137032418Y-85289234D01*
X137032421Y-85289235D01*
X137032423Y-85289235D01*
X137190109Y-85289235D01*
X137190110Y-85289234D01*
X137344762Y-85258472D01*
X137490444Y-85198129D01*
X137621554Y-85110524D01*
X137733054Y-84999024D01*
X137820659Y-84867914D01*
X137881002Y-84722232D01*
X137911765Y-84567577D01*
X137911765Y-84409893D01*
X137911765Y-84409890D01*
X137911764Y-84409888D01*
X137881002Y-84255238D01*
X137835515Y-84145421D01*
X137820662Y-84109562D01*
X137820655Y-84109549D01*
X137733054Y-83978446D01*
X137733051Y-83978442D01*
X137621557Y-83866948D01*
X137621553Y-83866945D01*
X137490450Y-83779344D01*
X137490437Y-83779337D01*
X137344766Y-83718999D01*
X137344754Y-83718996D01*
X137190110Y-83688235D01*
X137190107Y-83688235D01*
X137032423Y-83688235D01*
X137032420Y-83688235D01*
X136877775Y-83718996D01*
X136877763Y-83718999D01*
X136732092Y-83779337D01*
X136732079Y-83779344D01*
X136600976Y-83866945D01*
X136600972Y-83866948D01*
X136489478Y-83978442D01*
X136489475Y-83978446D01*
X136401874Y-84109549D01*
X136401867Y-84109562D01*
X136341529Y-84255233D01*
X136341526Y-84255245D01*
X136310765Y-84409888D01*
X135338095Y-84409888D01*
X135369737Y-84333497D01*
X135400500Y-84178842D01*
X135400500Y-84021158D01*
X135400500Y-84021155D01*
X135400499Y-84021153D01*
X135389365Y-83965179D01*
X135369737Y-83866503D01*
X135350267Y-83819497D01*
X135309397Y-83720827D01*
X135309390Y-83720814D01*
X135221789Y-83589711D01*
X135221786Y-83589707D01*
X135139232Y-83507153D01*
X143344500Y-83507153D01*
X143344500Y-83664846D01*
X143375261Y-83819489D01*
X143375264Y-83819501D01*
X143435602Y-83965172D01*
X143435609Y-83965185D01*
X143523210Y-84096288D01*
X143523213Y-84096292D01*
X143634707Y-84207786D01*
X143634711Y-84207789D01*
X143765814Y-84295390D01*
X143765827Y-84295397D01*
X143911498Y-84355735D01*
X143911503Y-84355737D01*
X143961477Y-84365677D01*
X144043924Y-84382078D01*
X144105835Y-84414463D01*
X144140410Y-84475179D01*
X144136670Y-84544948D01*
X144122835Y-84572586D01*
X144090609Y-84620814D01*
X144090602Y-84620827D01*
X144030264Y-84766498D01*
X144030261Y-84766510D01*
X143999500Y-84921153D01*
X143999500Y-85078846D01*
X144030261Y-85233489D01*
X144030264Y-85233501D01*
X144090602Y-85379172D01*
X144090609Y-85379185D01*
X144178210Y-85510288D01*
X144178213Y-85510292D01*
X144289707Y-85621786D01*
X144289711Y-85621789D01*
X144420814Y-85709390D01*
X144420827Y-85709397D01*
X144508503Y-85745713D01*
X144566503Y-85769737D01*
X144721153Y-85800499D01*
X144721156Y-85800500D01*
X144721158Y-85800500D01*
X144878844Y-85800500D01*
X144878845Y-85800499D01*
X145033497Y-85769737D01*
X145146166Y-85723067D01*
X145179172Y-85709397D01*
X145179172Y-85709396D01*
X145179179Y-85709394D01*
X145310289Y-85621789D01*
X145421789Y-85510289D01*
X145509394Y-85379179D01*
X145569737Y-85233497D01*
X145600500Y-85078842D01*
X145600500Y-84921158D01*
X145600500Y-84921155D01*
X145600499Y-84921153D01*
X145580754Y-84821890D01*
X145569737Y-84766503D01*
X145551401Y-84722236D01*
X145509397Y-84620827D01*
X145509390Y-84620814D01*
X145421789Y-84489711D01*
X145421786Y-84489707D01*
X145310292Y-84378213D01*
X145310288Y-84378210D01*
X145179185Y-84290609D01*
X145179172Y-84290602D01*
X145033501Y-84230264D01*
X145033491Y-84230261D01*
X144901074Y-84203921D01*
X144839163Y-84171536D01*
X144804589Y-84110820D01*
X144808330Y-84041050D01*
X144822160Y-84013419D01*
X144854394Y-83965179D01*
X144914737Y-83819497D01*
X144945500Y-83664842D01*
X144945500Y-83507158D01*
X144945500Y-83507155D01*
X144945499Y-83507153D01*
X144939742Y-83478210D01*
X144914737Y-83352503D01*
X144906861Y-83333489D01*
X144854397Y-83206827D01*
X144854390Y-83206814D01*
X144766789Y-83075711D01*
X144766786Y-83075707D01*
X144655292Y-82964213D01*
X144655288Y-82964210D01*
X144524185Y-82876609D01*
X144524172Y-82876602D01*
X144378501Y-82816264D01*
X144378489Y-82816261D01*
X144223845Y-82785500D01*
X144223842Y-82785500D01*
X144066158Y-82785500D01*
X144066155Y-82785500D01*
X143911510Y-82816261D01*
X143911498Y-82816264D01*
X143765827Y-82876602D01*
X143765814Y-82876609D01*
X143634711Y-82964210D01*
X143634707Y-82964213D01*
X143523213Y-83075707D01*
X143523210Y-83075711D01*
X143435609Y-83206814D01*
X143435602Y-83206827D01*
X143375264Y-83352498D01*
X143375261Y-83352510D01*
X143344500Y-83507153D01*
X135139232Y-83507153D01*
X135110292Y-83478213D01*
X135110288Y-83478210D01*
X134979185Y-83390609D01*
X134979172Y-83390602D01*
X134833501Y-83330264D01*
X134833489Y-83330261D01*
X134678845Y-83299500D01*
X134678842Y-83299500D01*
X134521158Y-83299500D01*
X134521155Y-83299500D01*
X134366510Y-83330261D01*
X134366498Y-83330264D01*
X134220827Y-83390602D01*
X134220814Y-83390609D01*
X134089711Y-83478210D01*
X134089707Y-83478213D01*
X133978213Y-83589707D01*
X133978210Y-83589711D01*
X133890609Y-83720814D01*
X133890602Y-83720827D01*
X133830264Y-83866498D01*
X133830261Y-83866510D01*
X133799500Y-84021153D01*
X122190000Y-84021153D01*
X122190000Y-82950000D01*
X120100000Y-82950000D01*
X120100000Y-84850000D01*
X119482079Y-84850000D01*
X119410292Y-84778213D01*
X119410288Y-84778210D01*
X119279185Y-84690609D01*
X119279172Y-84690602D01*
X119133501Y-84630264D01*
X119133489Y-84630261D01*
X118978845Y-84599500D01*
X118978842Y-84599500D01*
X118821158Y-84599500D01*
X118821153Y-84599500D01*
X118747951Y-84614061D01*
X118678360Y-84607834D01*
X118623182Y-84564971D01*
X118599938Y-84499081D01*
X118600358Y-84480285D01*
X118600500Y-84478843D01*
X118600500Y-84321155D01*
X118600499Y-84321153D01*
X118587389Y-84255245D01*
X118569737Y-84166503D01*
X118561005Y-84145421D01*
X118553536Y-84075952D01*
X118584812Y-84013473D01*
X118644901Y-83977821D01*
X118699758Y-83976352D01*
X118821155Y-84000500D01*
X118821158Y-84000500D01*
X118978844Y-84000500D01*
X118978845Y-84000499D01*
X119133497Y-83969737D01*
X119279179Y-83909394D01*
X119410289Y-83821789D01*
X119521789Y-83710289D01*
X119609394Y-83579179D01*
X119669737Y-83433497D01*
X119700500Y-83278842D01*
X119700500Y-83121158D01*
X119700500Y-83121155D01*
X119700499Y-83121153D01*
X119683255Y-83034464D01*
X119669737Y-82966503D01*
X119669735Y-82966498D01*
X119661282Y-82946090D01*
X119609397Y-82820827D01*
X119609390Y-82820814D01*
X119521789Y-82689711D01*
X119521786Y-82689707D01*
X119410292Y-82578213D01*
X119410288Y-82578210D01*
X119279185Y-82490609D01*
X119279172Y-82490602D01*
X119133501Y-82430264D01*
X119133489Y-82430261D01*
X118978845Y-82399500D01*
X118978842Y-82399500D01*
X118821158Y-82399500D01*
X118821155Y-82399500D01*
X118666510Y-82430261D01*
X118666498Y-82430264D01*
X118520827Y-82490602D01*
X118520814Y-82490609D01*
X118389711Y-82578210D01*
X118389707Y-82578213D01*
X118278213Y-82689707D01*
X118278210Y-82689711D01*
X118190609Y-82820814D01*
X118190602Y-82820827D01*
X118130264Y-82966498D01*
X118130261Y-82966510D01*
X118099500Y-83121153D01*
X118099500Y-83278846D01*
X118130261Y-83433489D01*
X118130264Y-83433501D01*
X118138995Y-83454580D01*
X118146462Y-83524050D01*
X118115186Y-83586528D01*
X118055096Y-83622179D01*
X118000242Y-83623647D01*
X117878846Y-83599500D01*
X117878842Y-83599500D01*
X117721158Y-83599500D01*
X117721155Y-83599500D01*
X117566510Y-83630261D01*
X117566498Y-83630264D01*
X117420827Y-83690602D01*
X117420814Y-83690609D01*
X117289711Y-83778210D01*
X117289707Y-83778213D01*
X117178213Y-83889707D01*
X117178210Y-83889711D01*
X117090609Y-84020814D01*
X117090602Y-84020827D01*
X117030264Y-84166498D01*
X117030261Y-84166510D01*
X116999500Y-84321153D01*
X116999500Y-84478846D01*
X117010949Y-84536403D01*
X117004722Y-84605994D01*
X116961859Y-84661172D01*
X116895969Y-84684416D01*
X116841881Y-84675156D01*
X116767897Y-84644512D01*
X116733497Y-84630263D01*
X116733493Y-84630262D01*
X116733489Y-84630261D01*
X116578845Y-84599500D01*
X116578842Y-84599500D01*
X116421158Y-84599500D01*
X116421155Y-84599500D01*
X116266510Y-84630261D01*
X116266498Y-84630264D01*
X116120827Y-84690602D01*
X116120814Y-84690609D01*
X115989711Y-84778210D01*
X115989707Y-84778213D01*
X115878213Y-84889707D01*
X115878210Y-84889711D01*
X115790609Y-85020814D01*
X115790602Y-85020827D01*
X115730264Y-85166498D01*
X115730261Y-85166510D01*
X115699500Y-85321153D01*
X108381348Y-85321153D01*
X108409394Y-85279179D01*
X108469737Y-85133497D01*
X108500500Y-84978842D01*
X108500500Y-84821158D01*
X108500500Y-84821155D01*
X108500499Y-84821153D01*
X108480822Y-84722232D01*
X108469737Y-84666503D01*
X108456066Y-84633497D01*
X108409397Y-84520827D01*
X108409390Y-84520814D01*
X108321789Y-84389711D01*
X108321786Y-84389707D01*
X108210292Y-84278213D01*
X108210288Y-84278210D01*
X108079185Y-84190609D01*
X108079172Y-84190602D01*
X107933501Y-84130264D01*
X107933489Y-84130261D01*
X107778845Y-84099500D01*
X107778842Y-84099500D01*
X107621158Y-84099500D01*
X107621155Y-84099500D01*
X107466510Y-84130261D01*
X107466498Y-84130264D01*
X107320827Y-84190602D01*
X107320814Y-84190609D01*
X107189711Y-84278210D01*
X107189707Y-84278213D01*
X107078213Y-84389707D01*
X107078210Y-84389711D01*
X106990609Y-84520814D01*
X106990602Y-84520827D01*
X106930264Y-84666498D01*
X106930261Y-84666510D01*
X106899500Y-84821153D01*
X105600499Y-84821153D01*
X105580822Y-84722232D01*
X105569737Y-84666503D01*
X105556066Y-84633497D01*
X105509397Y-84520827D01*
X105509390Y-84520814D01*
X105421789Y-84389711D01*
X105421786Y-84389707D01*
X105310292Y-84278213D01*
X105310288Y-84278210D01*
X105179185Y-84190609D01*
X105179172Y-84190602D01*
X105033501Y-84130264D01*
X105033489Y-84130261D01*
X104878845Y-84099500D01*
X104878842Y-84099500D01*
X104721158Y-84099500D01*
X104721155Y-84099500D01*
X104566510Y-84130261D01*
X104566498Y-84130264D01*
X104420827Y-84190602D01*
X104420814Y-84190609D01*
X104289711Y-84278210D01*
X104289707Y-84278213D01*
X104178213Y-84389707D01*
X104178210Y-84389711D01*
X104090609Y-84520814D01*
X104090602Y-84520827D01*
X104030264Y-84666498D01*
X104030261Y-84666510D01*
X103999500Y-84821153D01*
X103999500Y-84978846D01*
X104030261Y-85133489D01*
X104030264Y-85133501D01*
X104090602Y-85279172D01*
X104090609Y-85279185D01*
X104178210Y-85410288D01*
X104178213Y-85410292D01*
X104204909Y-85436988D01*
X104238394Y-85498311D01*
X104233410Y-85568003D01*
X104191538Y-85623936D01*
X104173524Y-85635153D01*
X104013568Y-85716655D01*
X103911785Y-85790606D01*
X103822490Y-85855483D01*
X103822488Y-85855485D01*
X103822487Y-85855485D01*
X103655485Y-86022487D01*
X103655485Y-86022488D01*
X103655483Y-86022490D01*
X103610923Y-86083821D01*
X103516657Y-86213566D01*
X103409433Y-86424003D01*
X103336446Y-86648631D01*
X103299500Y-86881902D01*
X100207608Y-86881902D01*
X100209418Y-86873580D01*
X100230566Y-86845329D01*
X100344104Y-86731792D01*
X100345217Y-86730261D01*
X100469048Y-86559820D01*
X100469047Y-86559820D01*
X100469051Y-86559816D01*
X100565557Y-86370412D01*
X100631246Y-86168243D01*
X100664500Y-85958287D01*
X100664500Y-85745713D01*
X100631246Y-85535757D01*
X100565557Y-85333588D01*
X100469051Y-85144184D01*
X100469049Y-85144181D01*
X100469048Y-85144179D01*
X100344109Y-84972213D01*
X100193786Y-84821890D01*
X100021820Y-84696951D01*
X100021115Y-84696591D01*
X100013054Y-84692485D01*
X99962259Y-84644512D01*
X99945463Y-84576692D01*
X99967999Y-84510556D01*
X100013054Y-84471515D01*
X100021816Y-84467051D01*
X100100495Y-84409888D01*
X100193786Y-84342109D01*
X100193788Y-84342106D01*
X100193792Y-84342104D01*
X100344104Y-84191792D01*
X100344106Y-84191788D01*
X100344109Y-84191786D01*
X100469048Y-84019820D01*
X100469047Y-84019820D01*
X100469051Y-84019816D01*
X100565557Y-83830412D01*
X100631246Y-83628243D01*
X100664500Y-83418287D01*
X100664500Y-83205713D01*
X100653204Y-83134394D01*
X100637377Y-83034464D01*
X100635268Y-83021153D01*
X102299500Y-83021153D01*
X102299500Y-83178846D01*
X102330261Y-83333489D01*
X102330264Y-83333501D01*
X102390602Y-83479172D01*
X102390609Y-83479185D01*
X102478210Y-83610288D01*
X102478213Y-83610292D01*
X102589707Y-83721786D01*
X102589711Y-83721789D01*
X102720814Y-83809390D01*
X102720827Y-83809397D01*
X102866498Y-83869735D01*
X102866503Y-83869737D01*
X103021153Y-83900499D01*
X103021156Y-83900500D01*
X103021158Y-83900500D01*
X103178844Y-83900500D01*
X103178845Y-83900499D01*
X103333497Y-83869737D01*
X103479179Y-83809394D01*
X103610289Y-83721789D01*
X103721789Y-83610289D01*
X103809394Y-83479179D01*
X103869737Y-83333497D01*
X103900500Y-83178842D01*
X103900500Y-83021158D01*
X103900500Y-83021155D01*
X103900499Y-83021153D01*
X108699500Y-83021153D01*
X108699500Y-83178846D01*
X108730261Y-83333489D01*
X108730264Y-83333501D01*
X108790602Y-83479172D01*
X108790609Y-83479185D01*
X108878210Y-83610288D01*
X108878213Y-83610292D01*
X108989707Y-83721786D01*
X108989711Y-83721789D01*
X109120814Y-83809390D01*
X109120827Y-83809397D01*
X109266498Y-83869735D01*
X109266503Y-83869737D01*
X109421153Y-83900499D01*
X109421156Y-83900500D01*
X109421158Y-83900500D01*
X109578844Y-83900500D01*
X109578845Y-83900499D01*
X109733497Y-83869737D01*
X109879179Y-83809394D01*
X110010289Y-83721789D01*
X110121789Y-83610289D01*
X110209394Y-83479179D01*
X110269737Y-83333497D01*
X110300500Y-83178842D01*
X110300500Y-83021158D01*
X110300500Y-83021155D01*
X110300499Y-83021153D01*
X112499500Y-83021153D01*
X112499500Y-83178846D01*
X112530261Y-83333489D01*
X112530264Y-83333501D01*
X112590602Y-83479172D01*
X112590609Y-83479185D01*
X112678210Y-83610288D01*
X112678213Y-83610292D01*
X112789707Y-83721786D01*
X112789711Y-83721789D01*
X112920814Y-83809390D01*
X112920827Y-83809397D01*
X113066498Y-83869735D01*
X113066503Y-83869737D01*
X113221153Y-83900499D01*
X113221156Y-83900500D01*
X113221158Y-83900500D01*
X113378844Y-83900500D01*
X113378845Y-83900499D01*
X113533497Y-83869737D01*
X113679179Y-83809394D01*
X113810289Y-83721789D01*
X113921789Y-83610289D01*
X114009394Y-83479179D01*
X114069737Y-83333497D01*
X114100500Y-83178842D01*
X114100500Y-83021158D01*
X114100500Y-83021155D01*
X114100499Y-83021153D01*
X114071747Y-82876609D01*
X114069737Y-82866503D01*
X114069735Y-82866498D01*
X114009397Y-82720827D01*
X114009390Y-82720814D01*
X113921789Y-82589711D01*
X113921786Y-82589707D01*
X113810292Y-82478213D01*
X113810288Y-82478210D01*
X113679185Y-82390609D01*
X113679172Y-82390602D01*
X113533501Y-82330264D01*
X113533489Y-82330261D01*
X113378845Y-82299500D01*
X113378842Y-82299500D01*
X113221158Y-82299500D01*
X113221155Y-82299500D01*
X113066510Y-82330261D01*
X113066498Y-82330264D01*
X112920827Y-82390602D01*
X112920814Y-82390609D01*
X112789711Y-82478210D01*
X112789707Y-82478213D01*
X112678213Y-82589707D01*
X112678210Y-82589711D01*
X112590609Y-82720814D01*
X112590602Y-82720827D01*
X112530264Y-82866498D01*
X112530261Y-82866510D01*
X112499500Y-83021153D01*
X110300499Y-83021153D01*
X110271747Y-82876609D01*
X110269737Y-82866503D01*
X110269735Y-82866498D01*
X110209397Y-82720827D01*
X110209390Y-82720814D01*
X110121789Y-82589711D01*
X110121786Y-82589707D01*
X110010292Y-82478213D01*
X110010288Y-82478210D01*
X109879185Y-82390609D01*
X109879172Y-82390602D01*
X109733501Y-82330264D01*
X109733489Y-82330261D01*
X109578845Y-82299500D01*
X109578842Y-82299500D01*
X109421158Y-82299500D01*
X109421155Y-82299500D01*
X109266510Y-82330261D01*
X109266498Y-82330264D01*
X109120827Y-82390602D01*
X109120814Y-82390609D01*
X108989711Y-82478210D01*
X108989707Y-82478213D01*
X108878213Y-82589707D01*
X108878210Y-82589711D01*
X108790609Y-82720814D01*
X108790602Y-82720827D01*
X108730264Y-82866498D01*
X108730261Y-82866510D01*
X108699500Y-83021153D01*
X103900499Y-83021153D01*
X103871747Y-82876609D01*
X103869737Y-82866503D01*
X103869735Y-82866498D01*
X103809397Y-82720827D01*
X103809390Y-82720814D01*
X103721789Y-82589711D01*
X103721786Y-82589707D01*
X103610292Y-82478213D01*
X103610288Y-82478210D01*
X103479185Y-82390609D01*
X103479172Y-82390602D01*
X103333501Y-82330264D01*
X103333489Y-82330261D01*
X103178845Y-82299500D01*
X103178842Y-82299500D01*
X103021158Y-82299500D01*
X103021155Y-82299500D01*
X102866510Y-82330261D01*
X102866498Y-82330264D01*
X102720827Y-82390602D01*
X102720814Y-82390609D01*
X102589711Y-82478210D01*
X102589707Y-82478213D01*
X102478213Y-82589707D01*
X102478210Y-82589711D01*
X102390609Y-82720814D01*
X102390602Y-82720827D01*
X102330264Y-82866498D01*
X102330261Y-82866510D01*
X102299500Y-83021153D01*
X100635268Y-83021153D01*
X100631246Y-82995759D01*
X100631246Y-82995757D01*
X100565557Y-82793588D01*
X100469051Y-82604184D01*
X100469049Y-82604181D01*
X100469048Y-82604179D01*
X100344109Y-82432213D01*
X100193786Y-82281890D01*
X100021817Y-82156949D01*
X100012504Y-82152204D01*
X99961707Y-82104230D01*
X99944912Y-82036409D01*
X99967449Y-81970274D01*
X100012507Y-81931232D01*
X100021558Y-81926620D01*
X100193459Y-81801727D01*
X100193464Y-81801723D01*
X100343723Y-81651464D01*
X100343727Y-81651459D01*
X100468620Y-81479557D01*
X100565095Y-81290217D01*
X100587536Y-81221153D01*
X106699500Y-81221153D01*
X106699500Y-81378846D01*
X106730261Y-81533489D01*
X106730264Y-81533501D01*
X106790602Y-81679172D01*
X106790609Y-81679185D01*
X106878210Y-81810288D01*
X106878213Y-81810292D01*
X106989707Y-81921786D01*
X106989711Y-81921789D01*
X107120814Y-82009390D01*
X107120827Y-82009397D01*
X107244065Y-82060443D01*
X107266503Y-82069737D01*
X107394951Y-82095287D01*
X107421153Y-82100499D01*
X107421156Y-82100500D01*
X107421158Y-82100500D01*
X107578844Y-82100500D01*
X107578845Y-82100499D01*
X107733497Y-82069737D01*
X107879179Y-82009394D01*
X108010289Y-81921789D01*
X108121789Y-81810289D01*
X108209394Y-81679179D01*
X108220724Y-81651827D01*
X108229988Y-81629460D01*
X108269737Y-81533497D01*
X108300500Y-81378842D01*
X108300500Y-81221158D01*
X108300500Y-81221155D01*
X108300499Y-81221153D01*
X108292148Y-81179172D01*
X108269737Y-81066503D01*
X108265807Y-81057014D01*
X108226666Y-80962518D01*
X108209532Y-80921153D01*
X110199500Y-80921153D01*
X110199500Y-81078846D01*
X110230261Y-81233489D01*
X110230264Y-81233501D01*
X110290602Y-81379172D01*
X110290609Y-81379185D01*
X110378210Y-81510288D01*
X110378213Y-81510292D01*
X110489707Y-81621786D01*
X110489711Y-81621789D01*
X110620814Y-81709390D01*
X110620827Y-81709397D01*
X110766498Y-81769735D01*
X110766503Y-81769737D01*
X110921153Y-81800499D01*
X110921156Y-81800500D01*
X110921158Y-81800500D01*
X111078844Y-81800500D01*
X111078845Y-81800499D01*
X111233497Y-81769737D01*
X111379179Y-81709394D01*
X111510289Y-81621789D01*
X111621789Y-81510289D01*
X111709394Y-81379179D01*
X111769737Y-81233497D01*
X111778007Y-81191919D01*
X111780563Y-81179072D01*
X111812947Y-81117161D01*
X111873663Y-81082587D01*
X111926372Y-81081646D01*
X112021155Y-81100500D01*
X112021158Y-81100500D01*
X112178844Y-81100500D01*
X112178845Y-81100499D01*
X112333497Y-81069737D01*
X112345595Y-81064725D01*
X112415062Y-81057254D01*
X112477542Y-81088527D01*
X112513197Y-81148614D01*
X112514667Y-81155094D01*
X112530261Y-81233489D01*
X112530264Y-81233501D01*
X112590602Y-81379172D01*
X112590609Y-81379185D01*
X112678210Y-81510288D01*
X112678213Y-81510292D01*
X112789707Y-81621786D01*
X112789711Y-81621789D01*
X112920814Y-81709390D01*
X112920827Y-81709397D01*
X113066498Y-81769735D01*
X113066503Y-81769737D01*
X113221153Y-81800499D01*
X113221156Y-81800500D01*
X113221158Y-81800500D01*
X113378844Y-81800500D01*
X113378845Y-81800499D01*
X113533497Y-81769737D01*
X113679179Y-81709394D01*
X113810289Y-81621789D01*
X113921789Y-81510289D01*
X114009394Y-81379179D01*
X114069737Y-81233497D01*
X114100500Y-81078842D01*
X114100500Y-80921158D01*
X114100500Y-80921155D01*
X114100499Y-80921153D01*
X114092166Y-80879257D01*
X114088565Y-80861153D01*
X116199500Y-80861153D01*
X116199500Y-81018846D01*
X116230261Y-81173489D01*
X116230264Y-81173501D01*
X116290602Y-81319172D01*
X116290609Y-81319185D01*
X116378210Y-81450288D01*
X116378213Y-81450292D01*
X116489707Y-81561786D01*
X116489711Y-81561789D01*
X116620814Y-81649390D01*
X116620827Y-81649397D01*
X116692743Y-81679185D01*
X116766503Y-81709737D01*
X116917850Y-81739842D01*
X116921153Y-81740499D01*
X116921156Y-81740500D01*
X116921158Y-81740500D01*
X117078844Y-81740500D01*
X117078845Y-81740499D01*
X117233497Y-81709737D01*
X117379179Y-81649394D01*
X117510289Y-81561789D01*
X117550925Y-81521153D01*
X122999500Y-81521153D01*
X122999500Y-81678846D01*
X123030261Y-81833489D01*
X123030264Y-81833501D01*
X123090602Y-81979172D01*
X123090609Y-81979185D01*
X123178210Y-82110288D01*
X123178213Y-82110292D01*
X123289707Y-82221786D01*
X123289711Y-82221789D01*
X123420814Y-82309390D01*
X123420827Y-82309397D01*
X123522952Y-82351698D01*
X123577356Y-82395538D01*
X123599421Y-82461833D01*
X123599500Y-82466259D01*
X123599500Y-82503846D01*
X123630261Y-82658489D01*
X123630264Y-82658501D01*
X123690602Y-82804172D01*
X123690609Y-82804185D01*
X123778210Y-82935288D01*
X123778213Y-82935292D01*
X123889707Y-83046786D01*
X123889711Y-83046789D01*
X124020814Y-83134390D01*
X124020827Y-83134397D01*
X124128138Y-83178846D01*
X124166503Y-83194737D01*
X124321153Y-83225499D01*
X124321156Y-83225500D01*
X124321158Y-83225500D01*
X124478844Y-83225500D01*
X124478845Y-83225499D01*
X124633497Y-83194737D01*
X124779179Y-83134394D01*
X124910289Y-83046789D01*
X125021789Y-82935289D01*
X125109394Y-82804179D01*
X125169737Y-82658497D01*
X125200500Y-82503842D01*
X125200500Y-82346158D01*
X125200500Y-82346155D01*
X125200499Y-82346153D01*
X125184257Y-82264501D01*
X125169737Y-82191503D01*
X125164629Y-82179172D01*
X125109397Y-82045827D01*
X125109390Y-82045814D01*
X125021789Y-81914711D01*
X125021786Y-81914707D01*
X124910292Y-81803213D01*
X124910288Y-81803210D01*
X124787482Y-81721153D01*
X136299500Y-81721153D01*
X136299500Y-81878846D01*
X136330261Y-82033489D01*
X136330264Y-82033501D01*
X136390602Y-82179172D01*
X136390609Y-82179185D01*
X136478210Y-82310288D01*
X136478213Y-82310292D01*
X136589707Y-82421786D01*
X136589711Y-82421789D01*
X136720814Y-82509390D01*
X136720827Y-82509397D01*
X136833790Y-82556187D01*
X136866503Y-82569737D01*
X137021153Y-82600499D01*
X137021156Y-82600500D01*
X137021158Y-82600500D01*
X137178844Y-82600500D01*
X137178845Y-82600499D01*
X137333497Y-82569737D01*
X137446166Y-82523067D01*
X137479172Y-82509397D01*
X137479172Y-82509396D01*
X137479179Y-82509394D01*
X137610289Y-82421789D01*
X137721789Y-82310289D01*
X137809394Y-82179179D01*
X137869737Y-82033497D01*
X137900500Y-81878842D01*
X137900500Y-81721158D01*
X137900500Y-81721155D01*
X137900499Y-81721153D01*
X137892148Y-81679172D01*
X137869737Y-81566503D01*
X137867783Y-81561786D01*
X137809397Y-81420827D01*
X137809395Y-81420823D01*
X137809394Y-81420821D01*
X137781346Y-81378844D01*
X137775339Y-81369854D01*
X137733375Y-81307050D01*
X142789603Y-81307050D01*
X142789603Y-81464743D01*
X142820364Y-81619386D01*
X142820367Y-81619398D01*
X142880705Y-81765069D01*
X142880712Y-81765082D01*
X142968313Y-81896185D01*
X142968316Y-81896189D01*
X143079810Y-82007683D01*
X143079814Y-82007686D01*
X143210917Y-82095287D01*
X143210930Y-82095294D01*
X143348320Y-82152202D01*
X143356606Y-82155634D01*
X143511256Y-82186396D01*
X143511259Y-82186397D01*
X143511261Y-82186397D01*
X143668947Y-82186397D01*
X143668948Y-82186396D01*
X143823600Y-82155634D01*
X143969282Y-82095291D01*
X144100392Y-82007686D01*
X144118192Y-81989886D01*
X144179514Y-81956399D01*
X144249206Y-81961382D01*
X144305140Y-82003252D01*
X144320436Y-82030113D01*
X144324602Y-82040172D01*
X144324609Y-82040185D01*
X144412210Y-82171288D01*
X144412213Y-82171292D01*
X144523707Y-82282786D01*
X144523711Y-82282789D01*
X144654814Y-82370390D01*
X144654827Y-82370397D01*
X144799361Y-82430264D01*
X144800503Y-82430737D01*
X144955153Y-82461499D01*
X144955156Y-82461500D01*
X144955158Y-82461500D01*
X145112844Y-82461500D01*
X145112845Y-82461499D01*
X145267497Y-82430737D01*
X145413179Y-82370394D01*
X145544289Y-82282789D01*
X145655789Y-82171289D01*
X145743394Y-82040179D01*
X145746165Y-82033489D01*
X145779855Y-81952153D01*
X146999500Y-81952153D01*
X146999500Y-82109846D01*
X147030261Y-82264489D01*
X147030264Y-82264501D01*
X147090602Y-82410172D01*
X147090609Y-82410185D01*
X147178210Y-82541288D01*
X147178213Y-82541292D01*
X147289707Y-82652786D01*
X147289711Y-82652789D01*
X147420814Y-82740390D01*
X147420827Y-82740397D01*
X147566498Y-82800735D01*
X147566503Y-82800737D01*
X147667502Y-82820827D01*
X147721153Y-82831499D01*
X147721156Y-82831500D01*
X147721158Y-82831500D01*
X147878844Y-82831500D01*
X147878845Y-82831499D01*
X148033497Y-82800737D01*
X148179179Y-82740394D01*
X148310289Y-82652789D01*
X148421789Y-82541289D01*
X148509394Y-82410179D01*
X148515459Y-82395538D01*
X148535914Y-82346153D01*
X148569737Y-82264497D01*
X148600500Y-82109842D01*
X148600500Y-81952158D01*
X148600500Y-81952155D01*
X148600499Y-81952153D01*
X148596338Y-81931234D01*
X148569737Y-81797503D01*
X148569735Y-81797498D01*
X148509397Y-81651827D01*
X148509390Y-81651814D01*
X148421789Y-81520711D01*
X148421786Y-81520707D01*
X148310292Y-81409213D01*
X148310288Y-81409210D01*
X148179185Y-81321609D01*
X148179172Y-81321602D01*
X148033501Y-81261264D01*
X148033489Y-81261261D01*
X147878845Y-81230500D01*
X147878842Y-81230500D01*
X147721158Y-81230500D01*
X147721155Y-81230500D01*
X147566510Y-81261261D01*
X147566498Y-81261264D01*
X147420827Y-81321602D01*
X147420814Y-81321609D01*
X147289711Y-81409210D01*
X147289707Y-81409213D01*
X147178213Y-81520707D01*
X147178210Y-81520711D01*
X147090609Y-81651814D01*
X147090602Y-81651827D01*
X147030264Y-81797498D01*
X147030261Y-81797510D01*
X146999500Y-81952153D01*
X145779855Y-81952153D01*
X145802032Y-81898614D01*
X145803735Y-81894501D01*
X145803737Y-81894497D01*
X145834500Y-81739842D01*
X145834500Y-81582158D01*
X145834500Y-81582155D01*
X145834499Y-81582153D01*
X145824819Y-81533489D01*
X145803737Y-81427503D01*
X145796236Y-81409394D01*
X145743397Y-81281827D01*
X145743390Y-81281814D01*
X145655789Y-81150711D01*
X145655786Y-81150707D01*
X145544292Y-81039213D01*
X145544288Y-81039210D01*
X145413185Y-80951609D01*
X145413172Y-80951602D01*
X145267501Y-80891264D01*
X145267489Y-80891261D01*
X145112845Y-80860500D01*
X145112842Y-80860500D01*
X144955158Y-80860500D01*
X144955155Y-80860500D01*
X144800510Y-80891261D01*
X144800498Y-80891264D01*
X144654827Y-80951602D01*
X144654814Y-80951609D01*
X144523711Y-81039210D01*
X144523706Y-81039214D01*
X144505906Y-81057014D01*
X144444582Y-81090498D01*
X144374891Y-81085512D01*
X144318958Y-81043639D01*
X144303666Y-81016785D01*
X144299497Y-81006718D01*
X144299494Y-81006713D01*
X144299493Y-81006711D01*
X144211892Y-80875608D01*
X144211889Y-80875604D01*
X144100395Y-80764110D01*
X144100391Y-80764107D01*
X143969288Y-80676506D01*
X143969275Y-80676499D01*
X143823604Y-80616161D01*
X143823592Y-80616158D01*
X143668948Y-80585397D01*
X143668945Y-80585397D01*
X143511261Y-80585397D01*
X143511258Y-80585397D01*
X143356613Y-80616158D01*
X143356601Y-80616161D01*
X143210930Y-80676499D01*
X143210917Y-80676506D01*
X143079814Y-80764107D01*
X143079810Y-80764110D01*
X142968316Y-80875604D01*
X142968313Y-80875608D01*
X142880712Y-81006711D01*
X142880705Y-81006724D01*
X142820367Y-81152395D01*
X142820364Y-81152407D01*
X142789603Y-81307050D01*
X137733375Y-81307050D01*
X137721789Y-81289710D01*
X137610292Y-81178213D01*
X137610288Y-81178210D01*
X137479185Y-81090609D01*
X137479172Y-81090602D01*
X137333501Y-81030264D01*
X137333489Y-81030261D01*
X137178845Y-80999500D01*
X137178842Y-80999500D01*
X137021158Y-80999500D01*
X137021155Y-80999500D01*
X136866510Y-81030261D01*
X136866498Y-81030264D01*
X136720827Y-81090602D01*
X136720814Y-81090609D01*
X136589711Y-81178210D01*
X136589707Y-81178213D01*
X136478213Y-81289707D01*
X136478210Y-81289711D01*
X136390609Y-81420814D01*
X136390602Y-81420827D01*
X136330264Y-81566498D01*
X136330261Y-81566510D01*
X136299500Y-81721153D01*
X124787482Y-81721153D01*
X124779185Y-81715609D01*
X124779175Y-81715604D01*
X124677047Y-81673301D01*
X124622644Y-81629460D01*
X124600579Y-81563166D01*
X124600500Y-81558740D01*
X124600500Y-81521155D01*
X124600499Y-81521153D01*
X124581872Y-81427510D01*
X124569737Y-81366503D01*
X124551215Y-81321786D01*
X124509397Y-81220827D01*
X124509390Y-81220814D01*
X124421789Y-81089711D01*
X124421786Y-81089707D01*
X124310292Y-80978213D01*
X124310288Y-80978210D01*
X124179185Y-80890609D01*
X124179172Y-80890602D01*
X124033501Y-80830264D01*
X124033489Y-80830261D01*
X123878845Y-80799500D01*
X123878842Y-80799500D01*
X123721158Y-80799500D01*
X123721155Y-80799500D01*
X123566510Y-80830261D01*
X123566498Y-80830264D01*
X123420827Y-80890602D01*
X123420814Y-80890609D01*
X123289711Y-80978210D01*
X123289707Y-80978213D01*
X123178213Y-81089707D01*
X123178210Y-81089711D01*
X123090609Y-81220814D01*
X123090602Y-81220827D01*
X123030264Y-81366498D01*
X123030261Y-81366510D01*
X122999500Y-81521153D01*
X117550925Y-81521153D01*
X117621789Y-81450289D01*
X117709394Y-81319179D01*
X117769737Y-81173497D01*
X117800500Y-81018842D01*
X117800500Y-80861158D01*
X117800500Y-80861155D01*
X117800499Y-80861153D01*
X117794355Y-80830264D01*
X117769737Y-80706503D01*
X117709394Y-80560821D01*
X117709393Y-80560819D01*
X117709390Y-80560814D01*
X117682889Y-80521153D01*
X120999500Y-80521153D01*
X120999500Y-80678846D01*
X121030261Y-80833489D01*
X121030264Y-80833501D01*
X121090602Y-80979172D01*
X121090609Y-80979185D01*
X121178210Y-81110288D01*
X121178213Y-81110292D01*
X121289707Y-81221786D01*
X121289711Y-81221789D01*
X121420814Y-81309390D01*
X121420827Y-81309397D01*
X121558683Y-81366498D01*
X121566503Y-81369737D01*
X121721153Y-81400499D01*
X121721156Y-81400500D01*
X121721158Y-81400500D01*
X121878844Y-81400500D01*
X121878845Y-81400499D01*
X121889179Y-81398443D01*
X121914287Y-81393450D01*
X121914292Y-81393449D01*
X121999800Y-81376439D01*
X122033497Y-81369737D01*
X122179179Y-81309394D01*
X122310289Y-81221789D01*
X122421789Y-81110289D01*
X122509394Y-80979179D01*
X122569737Y-80833497D01*
X122600500Y-80678842D01*
X122600500Y-80621153D01*
X128499500Y-80621153D01*
X128499500Y-80778846D01*
X128530261Y-80933489D01*
X128530264Y-80933501D01*
X128590602Y-81079172D01*
X128590609Y-81079185D01*
X128678210Y-81210288D01*
X128678213Y-81210292D01*
X128789707Y-81321786D01*
X128789711Y-81321789D01*
X128920814Y-81409390D01*
X128920827Y-81409397D01*
X129054446Y-81464743D01*
X129066503Y-81469737D01*
X129221153Y-81500499D01*
X129221156Y-81500500D01*
X129221158Y-81500500D01*
X129378844Y-81500500D01*
X129378845Y-81500499D01*
X129533497Y-81469737D01*
X129651606Y-81420815D01*
X129679172Y-81409397D01*
X129679172Y-81409396D01*
X129679179Y-81409394D01*
X129810289Y-81321789D01*
X129921789Y-81210289D01*
X130009394Y-81079179D01*
X130069737Y-80933497D01*
X130100500Y-80778842D01*
X130100500Y-80721153D01*
X134499500Y-80721153D01*
X134499500Y-80878846D01*
X134530261Y-81033489D01*
X134530264Y-81033501D01*
X134590602Y-81179172D01*
X134590609Y-81179185D01*
X134678210Y-81310288D01*
X134678213Y-81310292D01*
X134789707Y-81421786D01*
X134789711Y-81421789D01*
X134920814Y-81509390D01*
X134920827Y-81509397D01*
X135050639Y-81563166D01*
X135066503Y-81569737D01*
X135221153Y-81600499D01*
X135221156Y-81600500D01*
X135221158Y-81600500D01*
X135378844Y-81600500D01*
X135378845Y-81600499D01*
X135389179Y-81598443D01*
X135414287Y-81593450D01*
X135414292Y-81593449D01*
X135504660Y-81575473D01*
X135533497Y-81569737D01*
X135651867Y-81520707D01*
X135679172Y-81509397D01*
X135679172Y-81509396D01*
X135679179Y-81509394D01*
X135810289Y-81421789D01*
X135921789Y-81310289D01*
X136009394Y-81179179D01*
X136069737Y-81033497D01*
X136100500Y-80878842D01*
X136100500Y-80721158D01*
X136100500Y-80721155D01*
X136100499Y-80721153D01*
X136096194Y-80699511D01*
X136069737Y-80566503D01*
X136067386Y-80560827D01*
X136009397Y-80420827D01*
X136009390Y-80420814D01*
X135921789Y-80289711D01*
X135921786Y-80289707D01*
X135810292Y-80178213D01*
X135810288Y-80178210D01*
X135679185Y-80090609D01*
X135679172Y-80090602D01*
X135533501Y-80030264D01*
X135533489Y-80030261D01*
X135378845Y-79999500D01*
X135378842Y-79999500D01*
X135221158Y-79999500D01*
X135221155Y-79999500D01*
X135066510Y-80030261D01*
X135066498Y-80030264D01*
X134920827Y-80090602D01*
X134920814Y-80090609D01*
X134789711Y-80178210D01*
X134789707Y-80178213D01*
X134678213Y-80289707D01*
X134678210Y-80289711D01*
X134590609Y-80420814D01*
X134590602Y-80420827D01*
X134530264Y-80566498D01*
X134530261Y-80566510D01*
X134499500Y-80721153D01*
X130100500Y-80721153D01*
X130100500Y-80621158D01*
X130100500Y-80621155D01*
X130100499Y-80621153D01*
X130093387Y-80585397D01*
X130069737Y-80466503D01*
X130065333Y-80455870D01*
X130009397Y-80320827D01*
X130009390Y-80320814D01*
X129921789Y-80189711D01*
X129921786Y-80189707D01*
X129810292Y-80078213D01*
X129810288Y-80078210D01*
X129679185Y-79990609D01*
X129679172Y-79990602D01*
X129533501Y-79930264D01*
X129533489Y-79930261D01*
X129378845Y-79899500D01*
X129378842Y-79899500D01*
X129221158Y-79899500D01*
X129221155Y-79899500D01*
X129066510Y-79930261D01*
X129066498Y-79930264D01*
X128920827Y-79990602D01*
X128920814Y-79990609D01*
X128789711Y-80078210D01*
X128789707Y-80078213D01*
X128678213Y-80189707D01*
X128678210Y-80189711D01*
X128590609Y-80320814D01*
X128590602Y-80320827D01*
X128530264Y-80466498D01*
X128530261Y-80466510D01*
X128499500Y-80621153D01*
X122600500Y-80621153D01*
X122600500Y-80521158D01*
X122600500Y-80521155D01*
X122600499Y-80521153D01*
X122580543Y-80420827D01*
X122569737Y-80366503D01*
X122542398Y-80300500D01*
X122509397Y-80220827D01*
X122509390Y-80220814D01*
X122421789Y-80089711D01*
X122421786Y-80089707D01*
X122310292Y-79978213D01*
X122310288Y-79978210D01*
X122179185Y-79890609D01*
X122179172Y-79890602D01*
X122033501Y-79830264D01*
X122033489Y-79830261D01*
X121878845Y-79799500D01*
X121878842Y-79799500D01*
X121721158Y-79799500D01*
X121721155Y-79799500D01*
X121566510Y-79830261D01*
X121566498Y-79830264D01*
X121420827Y-79890602D01*
X121420814Y-79890609D01*
X121289711Y-79978210D01*
X121289707Y-79978213D01*
X121178213Y-80089707D01*
X121178210Y-80089711D01*
X121090609Y-80220814D01*
X121090602Y-80220827D01*
X121030264Y-80366498D01*
X121030261Y-80366510D01*
X120999500Y-80521153D01*
X117682889Y-80521153D01*
X117621789Y-80429711D01*
X117621786Y-80429707D01*
X117510292Y-80318213D01*
X117510288Y-80318210D01*
X117379185Y-80230609D01*
X117379172Y-80230602D01*
X117233501Y-80170264D01*
X117233489Y-80170261D01*
X117078845Y-80139500D01*
X117078842Y-80139500D01*
X116921158Y-80139500D01*
X116921155Y-80139500D01*
X116766510Y-80170261D01*
X116766498Y-80170264D01*
X116620827Y-80230602D01*
X116620814Y-80230609D01*
X116489711Y-80318210D01*
X116489707Y-80318213D01*
X116378213Y-80429707D01*
X116378210Y-80429711D01*
X116290609Y-80560814D01*
X116290602Y-80560827D01*
X116230264Y-80706498D01*
X116230261Y-80706510D01*
X116199500Y-80861153D01*
X114088565Y-80861153D01*
X114069738Y-80766508D01*
X114069737Y-80766507D01*
X114069737Y-80766503D01*
X114050955Y-80721158D01*
X114009397Y-80620827D01*
X114009390Y-80620814D01*
X113921789Y-80489711D01*
X113921786Y-80489707D01*
X113810292Y-80378213D01*
X113810288Y-80378210D01*
X113679185Y-80290609D01*
X113679172Y-80290602D01*
X113533501Y-80230264D01*
X113533489Y-80230261D01*
X113378845Y-80199500D01*
X113378842Y-80199500D01*
X113221158Y-80199500D01*
X113221155Y-80199500D01*
X113066510Y-80230261D01*
X113066494Y-80230265D01*
X113054398Y-80235276D01*
X112984929Y-80242743D01*
X112922451Y-80211467D01*
X112886800Y-80151377D01*
X112885339Y-80144940D01*
X112869737Y-80066503D01*
X112865022Y-80055119D01*
X112809397Y-79920827D01*
X112809390Y-79920814D01*
X112721789Y-79789711D01*
X112721786Y-79789707D01*
X112610292Y-79678213D01*
X112610288Y-79678210D01*
X112479185Y-79590609D01*
X112479172Y-79590602D01*
X112333501Y-79530264D01*
X112333489Y-79530261D01*
X112178845Y-79499500D01*
X112178842Y-79499500D01*
X112021158Y-79499500D01*
X112021155Y-79499500D01*
X111866510Y-79530261D01*
X111866498Y-79530264D01*
X111720827Y-79590602D01*
X111720814Y-79590609D01*
X111589711Y-79678210D01*
X111589707Y-79678213D01*
X111478213Y-79789707D01*
X111478210Y-79789711D01*
X111390609Y-79920814D01*
X111390602Y-79920827D01*
X111330264Y-80066498D01*
X111330261Y-80066507D01*
X111319436Y-80120929D01*
X111287050Y-80182840D01*
X111226334Y-80217413D01*
X111173628Y-80218353D01*
X111078846Y-80199500D01*
X111078842Y-80199500D01*
X110921158Y-80199500D01*
X110921155Y-80199500D01*
X110766510Y-80230261D01*
X110766498Y-80230264D01*
X110620827Y-80290602D01*
X110620814Y-80290609D01*
X110489711Y-80378210D01*
X110489707Y-80378213D01*
X110378213Y-80489707D01*
X110378210Y-80489711D01*
X110290609Y-80620814D01*
X110290602Y-80620827D01*
X110230264Y-80766498D01*
X110230261Y-80766510D01*
X110199500Y-80921153D01*
X108209532Y-80921153D01*
X108209395Y-80920823D01*
X108209390Y-80920814D01*
X108121789Y-80789711D01*
X108121786Y-80789707D01*
X108010292Y-80678213D01*
X108010288Y-80678210D01*
X107879185Y-80590609D01*
X107879172Y-80590602D01*
X107733501Y-80530264D01*
X107733489Y-80530261D01*
X107578845Y-80499500D01*
X107578842Y-80499500D01*
X107421158Y-80499500D01*
X107421155Y-80499500D01*
X107266510Y-80530261D01*
X107266498Y-80530264D01*
X107120827Y-80590602D01*
X107120814Y-80590609D01*
X106989711Y-80678210D01*
X106989707Y-80678213D01*
X106878213Y-80789707D01*
X106878210Y-80789711D01*
X106790609Y-80920814D01*
X106790602Y-80920827D01*
X106730264Y-81066498D01*
X106730261Y-81066510D01*
X106699500Y-81221153D01*
X100587536Y-81221153D01*
X100601964Y-81176748D01*
X100601964Y-81176747D01*
X100630756Y-81088133D01*
X100630757Y-81088126D01*
X100641231Y-81022000D01*
X99747012Y-81022000D01*
X99779925Y-80964993D01*
X99814000Y-80837826D01*
X99814000Y-80706174D01*
X99779925Y-80579007D01*
X99747012Y-80522000D01*
X100641231Y-80522000D01*
X100630757Y-80455873D01*
X100630757Y-80455870D01*
X100565095Y-80253782D01*
X100468620Y-80064442D01*
X100343727Y-79892540D01*
X100343723Y-79892535D01*
X100193464Y-79742276D01*
X100193459Y-79742272D01*
X100021557Y-79617379D01*
X99841337Y-79525551D01*
X99841335Y-79525549D01*
X99832220Y-79520905D01*
X99832216Y-79520903D01*
X99630124Y-79455241D01*
X99564000Y-79444768D01*
X99564000Y-80338988D01*
X99506993Y-80306075D01*
X99379826Y-80272000D01*
X99248174Y-80272000D01*
X99121007Y-80306075D01*
X99064000Y-80338988D01*
X99064000Y-79444768D01*
X99063999Y-79444768D01*
X98997875Y-79455241D01*
X98795784Y-79520903D01*
X98606442Y-79617379D01*
X98434540Y-79742272D01*
X98434535Y-79742276D01*
X98284276Y-79892535D01*
X98224818Y-79974373D01*
X98169488Y-80017038D01*
X98099875Y-80023017D01*
X98038080Y-79990411D01*
X98003722Y-79929572D01*
X98000500Y-79901487D01*
X98000500Y-79421153D01*
X102299500Y-79421153D01*
X102299500Y-79578846D01*
X102330261Y-79733489D01*
X102330264Y-79733501D01*
X102390602Y-79879172D01*
X102390609Y-79879185D01*
X102478210Y-80010288D01*
X102478213Y-80010292D01*
X102589707Y-80121786D01*
X102589711Y-80121789D01*
X102720814Y-80209390D01*
X102720827Y-80209397D01*
X102837206Y-80257602D01*
X102866503Y-80269737D01*
X103021153Y-80300499D01*
X103021156Y-80300500D01*
X103021158Y-80300500D01*
X103178844Y-80300500D01*
X103178845Y-80300499D01*
X103333497Y-80269737D01*
X103451592Y-80220821D01*
X103479172Y-80209397D01*
X103479172Y-80209396D01*
X103479179Y-80209394D01*
X103610289Y-80121789D01*
X103721789Y-80010289D01*
X103809394Y-79879179D01*
X103869737Y-79733497D01*
X103900500Y-79578842D01*
X103900500Y-79421158D01*
X103900500Y-79421155D01*
X103900499Y-79421153D01*
X103878269Y-79309397D01*
X103869737Y-79266503D01*
X103848686Y-79215681D01*
X142415500Y-79215681D01*
X142415500Y-79373374D01*
X142446261Y-79528017D01*
X142446264Y-79528029D01*
X142506602Y-79673700D01*
X142506609Y-79673713D01*
X142594210Y-79804816D01*
X142594213Y-79804820D01*
X142705707Y-79916314D01*
X142705711Y-79916317D01*
X142836814Y-80003918D01*
X142836827Y-80003925D01*
X142982498Y-80064263D01*
X142982503Y-80064265D01*
X143137153Y-80095027D01*
X143137156Y-80095028D01*
X143137158Y-80095028D01*
X143294844Y-80095028D01*
X143294845Y-80095027D01*
X143449497Y-80064265D01*
X143595179Y-80003922D01*
X143726289Y-79916317D01*
X143837789Y-79804817D01*
X143925394Y-79673707D01*
X143985737Y-79528025D01*
X144016500Y-79373370D01*
X144016500Y-79215686D01*
X144016500Y-79215683D01*
X144016499Y-79215681D01*
X143997630Y-79120821D01*
X143985737Y-79061031D01*
X143964350Y-79009397D01*
X143925397Y-78915355D01*
X143925390Y-78915342D01*
X143837789Y-78784239D01*
X143837786Y-78784235D01*
X143726292Y-78672741D01*
X143726288Y-78672738D01*
X143595185Y-78585137D01*
X143595172Y-78585130D01*
X143449501Y-78524792D01*
X143449489Y-78524789D01*
X143294845Y-78494028D01*
X143294842Y-78494028D01*
X143137158Y-78494028D01*
X143137155Y-78494028D01*
X142982510Y-78524789D01*
X142982498Y-78524792D01*
X142836827Y-78585130D01*
X142836814Y-78585137D01*
X142705711Y-78672738D01*
X142705707Y-78672741D01*
X142594213Y-78784235D01*
X142594210Y-78784239D01*
X142506609Y-78915342D01*
X142506602Y-78915355D01*
X142446264Y-79061026D01*
X142446261Y-79061038D01*
X142415500Y-79215681D01*
X103848686Y-79215681D01*
X103809397Y-79120827D01*
X103809390Y-79120814D01*
X103721789Y-78989711D01*
X103721786Y-78989707D01*
X103610292Y-78878213D01*
X103610288Y-78878210D01*
X103479185Y-78790609D01*
X103479172Y-78790602D01*
X103333501Y-78730264D01*
X103333489Y-78730261D01*
X103178845Y-78699500D01*
X103178842Y-78699500D01*
X103021158Y-78699500D01*
X103021155Y-78699500D01*
X102866510Y-78730261D01*
X102866498Y-78730264D01*
X102720827Y-78790602D01*
X102720814Y-78790609D01*
X102589711Y-78878210D01*
X102589707Y-78878213D01*
X102478213Y-78989707D01*
X102478210Y-78989711D01*
X102390609Y-79120814D01*
X102390602Y-79120827D01*
X102330264Y-79266498D01*
X102330261Y-79266510D01*
X102299500Y-79421153D01*
X98000500Y-79421153D01*
X98000500Y-77192840D01*
X129827813Y-77192840D01*
X129827813Y-77350533D01*
X129858574Y-77505176D01*
X129858577Y-77505188D01*
X129918915Y-77650859D01*
X129918922Y-77650872D01*
X130006523Y-77781975D01*
X130006526Y-77781979D01*
X130118020Y-77893473D01*
X130118024Y-77893476D01*
X130249127Y-77981077D01*
X130249140Y-77981084D01*
X130377262Y-78034153D01*
X130394816Y-78041424D01*
X130520861Y-78066496D01*
X130549466Y-78072186D01*
X130549469Y-78072187D01*
X130549471Y-78072187D01*
X130707157Y-78072187D01*
X130707158Y-78072186D01*
X130861810Y-78041424D01*
X131007492Y-77981081D01*
X131138602Y-77893476D01*
X131250102Y-77781976D01*
X131337707Y-77650866D01*
X131398050Y-77505184D01*
X131428813Y-77350529D01*
X131428813Y-77192845D01*
X131428813Y-77192842D01*
X131428812Y-77192840D01*
X131398265Y-77039270D01*
X131398263Y-77039262D01*
X131398051Y-77038197D01*
X131398050Y-77038190D01*
X131390993Y-77021153D01*
X132499500Y-77021153D01*
X132499500Y-77178846D01*
X132530261Y-77333489D01*
X132530264Y-77333501D01*
X132590602Y-77479172D01*
X132590609Y-77479185D01*
X132678210Y-77610288D01*
X132678213Y-77610292D01*
X132789707Y-77721786D01*
X132789711Y-77721789D01*
X132920814Y-77809390D01*
X132920827Y-77809397D01*
X133066498Y-77869735D01*
X133066503Y-77869737D01*
X133218644Y-77900000D01*
X133221153Y-77900499D01*
X133221156Y-77900500D01*
X133221158Y-77900500D01*
X133378844Y-77900500D01*
X133378845Y-77900499D01*
X133533497Y-77869737D01*
X133679179Y-77809394D01*
X133731110Y-77774694D01*
X133797785Y-77753816D01*
X133865165Y-77772300D01*
X133868863Y-77774676D01*
X133920821Y-77809394D01*
X133920823Y-77809395D01*
X133920825Y-77809396D01*
X134066498Y-77869735D01*
X134066503Y-77869737D01*
X134218644Y-77900000D01*
X134221153Y-77900499D01*
X134221156Y-77900500D01*
X134221158Y-77900500D01*
X134378844Y-77900500D01*
X134378845Y-77900499D01*
X134533497Y-77869737D01*
X134661461Y-77816733D01*
X134679172Y-77809397D01*
X134679172Y-77809396D01*
X134679179Y-77809394D01*
X134781111Y-77741284D01*
X134847786Y-77720408D01*
X134915166Y-77738892D01*
X134918847Y-77741257D01*
X135020821Y-77809394D01*
X135020823Y-77809395D01*
X135020827Y-77809397D01*
X135166498Y-77869735D01*
X135166503Y-77869737D01*
X135318644Y-77900000D01*
X135321153Y-77900499D01*
X135321156Y-77900500D01*
X135321158Y-77900500D01*
X135478844Y-77900500D01*
X135478845Y-77900499D01*
X135633497Y-77869737D01*
X135761461Y-77816733D01*
X135779172Y-77809397D01*
X135779172Y-77809396D01*
X135779179Y-77809394D01*
X135910289Y-77721789D01*
X136021789Y-77610289D01*
X136081348Y-77521153D01*
X138699500Y-77521153D01*
X138699500Y-77678846D01*
X138730261Y-77833489D01*
X138730264Y-77833501D01*
X138790602Y-77979172D01*
X138790609Y-77979185D01*
X138878210Y-78110288D01*
X138878213Y-78110292D01*
X138989707Y-78221786D01*
X138989711Y-78221789D01*
X139120814Y-78309390D01*
X139120827Y-78309397D01*
X139258683Y-78366498D01*
X139266503Y-78369737D01*
X139421153Y-78400499D01*
X139421156Y-78400500D01*
X139421158Y-78400500D01*
X139578844Y-78400500D01*
X139578845Y-78400499D01*
X139733497Y-78369737D01*
X139879179Y-78309394D01*
X140010289Y-78221789D01*
X140010925Y-78221153D01*
X140599500Y-78221153D01*
X140599500Y-78378846D01*
X140630261Y-78533489D01*
X140630264Y-78533501D01*
X140690602Y-78679172D01*
X140690609Y-78679185D01*
X140778210Y-78810288D01*
X140778213Y-78810292D01*
X140889707Y-78921786D01*
X140889711Y-78921789D01*
X141020814Y-79009390D01*
X141020827Y-79009397D01*
X141166498Y-79069735D01*
X141166503Y-79069737D01*
X141321153Y-79100499D01*
X141321156Y-79100500D01*
X141321158Y-79100500D01*
X141478844Y-79100500D01*
X141478845Y-79100499D01*
X141494697Y-79097346D01*
X141541802Y-79087977D01*
X141588255Y-79078736D01*
X141633497Y-79069737D01*
X141779179Y-79009394D01*
X141910289Y-78921789D01*
X142021789Y-78810289D01*
X142109394Y-78679179D01*
X142169737Y-78533497D01*
X142200500Y-78378842D01*
X142200500Y-78221158D01*
X142200500Y-78221155D01*
X142200499Y-78221153D01*
X142169739Y-78066512D01*
X142169738Y-78066510D01*
X142169737Y-78066503D01*
X142156337Y-78034153D01*
X145241500Y-78034153D01*
X145241500Y-78191846D01*
X145272261Y-78346489D01*
X145272264Y-78346501D01*
X145332602Y-78492172D01*
X145332609Y-78492185D01*
X145420210Y-78623288D01*
X145420213Y-78623292D01*
X145531707Y-78734786D01*
X145531711Y-78734789D01*
X145662814Y-78822390D01*
X145662827Y-78822397D01*
X145722749Y-78847217D01*
X145808503Y-78882737D01*
X145963153Y-78913499D01*
X145963156Y-78913500D01*
X145963158Y-78913500D01*
X146120844Y-78913500D01*
X146120845Y-78913499D01*
X146275497Y-78882737D01*
X146421179Y-78822394D01*
X146552289Y-78734789D01*
X146663789Y-78623289D01*
X146751394Y-78492179D01*
X146811737Y-78346497D01*
X146842500Y-78191842D01*
X146842500Y-78034158D01*
X146842500Y-78034155D01*
X146842499Y-78034153D01*
X146831564Y-77979179D01*
X146811737Y-77879503D01*
X146793393Y-77835217D01*
X146751397Y-77733827D01*
X146751390Y-77733814D01*
X146663789Y-77602711D01*
X146663786Y-77602707D01*
X146552292Y-77491213D01*
X146552288Y-77491210D01*
X146421185Y-77403609D01*
X146421172Y-77403602D01*
X146275501Y-77343264D01*
X146275489Y-77343261D01*
X146120845Y-77312500D01*
X146120842Y-77312500D01*
X145963158Y-77312500D01*
X145963155Y-77312500D01*
X145808510Y-77343261D01*
X145808498Y-77343264D01*
X145662827Y-77403602D01*
X145662814Y-77403609D01*
X145531711Y-77491210D01*
X145531707Y-77491213D01*
X145420213Y-77602707D01*
X145420210Y-77602711D01*
X145332609Y-77733814D01*
X145332602Y-77733827D01*
X145272264Y-77879498D01*
X145272261Y-77879510D01*
X145241500Y-78034153D01*
X142156337Y-78034153D01*
X142142398Y-78000500D01*
X142109397Y-77920827D01*
X142109390Y-77920814D01*
X142021789Y-77789711D01*
X142021786Y-77789707D01*
X141910292Y-77678213D01*
X141910288Y-77678210D01*
X141779185Y-77590609D01*
X141779172Y-77590602D01*
X141633501Y-77530264D01*
X141633489Y-77530261D01*
X141478845Y-77499500D01*
X141478842Y-77499500D01*
X141321158Y-77499500D01*
X141321155Y-77499500D01*
X141166510Y-77530261D01*
X141166498Y-77530264D01*
X141020827Y-77590602D01*
X141020814Y-77590609D01*
X140889711Y-77678210D01*
X140889707Y-77678213D01*
X140778213Y-77789707D01*
X140778210Y-77789711D01*
X140690609Y-77920814D01*
X140690602Y-77920827D01*
X140630264Y-78066498D01*
X140630261Y-78066510D01*
X140599500Y-78221153D01*
X140010925Y-78221153D01*
X140040236Y-78191842D01*
X140104694Y-78127385D01*
X140121786Y-78110292D01*
X140121789Y-78110289D01*
X140209394Y-77979179D01*
X140269737Y-77833497D01*
X140300500Y-77678842D01*
X140300500Y-77521158D01*
X140300500Y-77521155D01*
X140300499Y-77521153D01*
X140296192Y-77499500D01*
X140269737Y-77366503D01*
X140263121Y-77350531D01*
X140209397Y-77220827D01*
X140209390Y-77220814D01*
X140121789Y-77089711D01*
X140121786Y-77089707D01*
X140010292Y-76978213D01*
X140010288Y-76978210D01*
X139879185Y-76890609D01*
X139879172Y-76890602D01*
X139733501Y-76830264D01*
X139733489Y-76830261D01*
X139578845Y-76799500D01*
X139578842Y-76799500D01*
X139421158Y-76799500D01*
X139421155Y-76799500D01*
X139266510Y-76830261D01*
X139266498Y-76830264D01*
X139120827Y-76890602D01*
X139120814Y-76890609D01*
X138989711Y-76978210D01*
X138989707Y-76978213D01*
X138878213Y-77089707D01*
X138878210Y-77089711D01*
X138790609Y-77220814D01*
X138790602Y-77220827D01*
X138730264Y-77366498D01*
X138730261Y-77366510D01*
X138699500Y-77521153D01*
X136081348Y-77521153D01*
X136109394Y-77479179D01*
X136169737Y-77333497D01*
X136200500Y-77178842D01*
X136200500Y-77021158D01*
X136200500Y-77021155D01*
X136200499Y-77021153D01*
X136191957Y-76978210D01*
X136169737Y-76866503D01*
X136169735Y-76866498D01*
X136109397Y-76720827D01*
X136109390Y-76720814D01*
X136021789Y-76589711D01*
X136021786Y-76589707D01*
X135910292Y-76478213D01*
X135910288Y-76478210D01*
X135779185Y-76390609D01*
X135779172Y-76390602D01*
X135633501Y-76330264D01*
X135633489Y-76330261D01*
X135478845Y-76299500D01*
X135478842Y-76299500D01*
X135321158Y-76299500D01*
X135321155Y-76299500D01*
X135166510Y-76330261D01*
X135166498Y-76330264D01*
X135020827Y-76390602D01*
X135020814Y-76390609D01*
X134918891Y-76458713D01*
X134852213Y-76479591D01*
X134784833Y-76461107D01*
X134781109Y-76458713D01*
X134679185Y-76390609D01*
X134679172Y-76390602D01*
X134533501Y-76330264D01*
X134533489Y-76330261D01*
X134378845Y-76299500D01*
X134378842Y-76299500D01*
X134221158Y-76299500D01*
X134221155Y-76299500D01*
X134066510Y-76330261D01*
X134066498Y-76330264D01*
X133920827Y-76390602D01*
X133920814Y-76390609D01*
X133868891Y-76425304D01*
X133802214Y-76446182D01*
X133734833Y-76427698D01*
X133731109Y-76425304D01*
X133679185Y-76390609D01*
X133679172Y-76390602D01*
X133533501Y-76330264D01*
X133533489Y-76330261D01*
X133378845Y-76299500D01*
X133378842Y-76299500D01*
X133221158Y-76299500D01*
X133221155Y-76299500D01*
X133066510Y-76330261D01*
X133066498Y-76330264D01*
X132920827Y-76390602D01*
X132920814Y-76390609D01*
X132789711Y-76478210D01*
X132789707Y-76478213D01*
X132678213Y-76589707D01*
X132678210Y-76589711D01*
X132590609Y-76720814D01*
X132590602Y-76720827D01*
X132530264Y-76866498D01*
X132530261Y-76866510D01*
X132499500Y-77021153D01*
X131390993Y-77021153D01*
X131373206Y-76978210D01*
X131337710Y-76892514D01*
X131337703Y-76892501D01*
X131250102Y-76761398D01*
X131250099Y-76761394D01*
X131138605Y-76649900D01*
X131138601Y-76649897D01*
X131007498Y-76562296D01*
X131007485Y-76562289D01*
X130861814Y-76501951D01*
X130861802Y-76501948D01*
X130707158Y-76471187D01*
X130707155Y-76471187D01*
X130549471Y-76471187D01*
X130549468Y-76471187D01*
X130394823Y-76501948D01*
X130394811Y-76501951D01*
X130249140Y-76562289D01*
X130249127Y-76562296D01*
X130118024Y-76649897D01*
X130118020Y-76649900D01*
X130006526Y-76761394D01*
X130006523Y-76761398D01*
X129918922Y-76892501D01*
X129918915Y-76892514D01*
X129858577Y-77038185D01*
X129858574Y-77038197D01*
X129827813Y-77192840D01*
X98000500Y-77192840D01*
X98000500Y-75629420D01*
X98020185Y-75562381D01*
X98072989Y-75516626D01*
X98142147Y-75506682D01*
X98205703Y-75535707D01*
X98242154Y-75592427D01*
X98242643Y-75592262D01*
X98243308Y-75594222D01*
X98243477Y-75594485D01*
X98243856Y-75595838D01*
X98243945Y-75596098D01*
X98319777Y-75779172D01*
X98336776Y-75820212D01*
X98458064Y-76030289D01*
X98458066Y-76030292D01*
X98458067Y-76030293D01*
X98605733Y-76222736D01*
X98605739Y-76222743D01*
X98777256Y-76394260D01*
X98777263Y-76394266D01*
X98824177Y-76430264D01*
X98969711Y-76541936D01*
X99179788Y-76663224D01*
X99403900Y-76756054D01*
X99638211Y-76818838D01*
X99818586Y-76842584D01*
X99878711Y-76850500D01*
X99878712Y-76850500D01*
X100121289Y-76850500D01*
X100169388Y-76844167D01*
X100361789Y-76818838D01*
X100596100Y-76756054D01*
X100820212Y-76663224D01*
X101030289Y-76541936D01*
X101222738Y-76394265D01*
X101394265Y-76222738D01*
X101541936Y-76030289D01*
X101663224Y-75820212D01*
X101756054Y-75596100D01*
X101818838Y-75361789D01*
X101824188Y-75321153D01*
X124899500Y-75321153D01*
X124899500Y-75478846D01*
X124930261Y-75633489D01*
X124930264Y-75633501D01*
X124990602Y-75779172D01*
X124990609Y-75779185D01*
X125078210Y-75910288D01*
X125078213Y-75910292D01*
X125189707Y-76021786D01*
X125189711Y-76021789D01*
X125320814Y-76109390D01*
X125320827Y-76109397D01*
X125466498Y-76169735D01*
X125466503Y-76169737D01*
X125621153Y-76200499D01*
X125621156Y-76200500D01*
X125621158Y-76200500D01*
X125778844Y-76200500D01*
X125778845Y-76200499D01*
X125933497Y-76169737D01*
X126079179Y-76109394D01*
X126210289Y-76021789D01*
X126321789Y-75910289D01*
X126409394Y-75779179D01*
X126469737Y-75633497D01*
X126500500Y-75478842D01*
X126500500Y-75321158D01*
X126500500Y-75321155D01*
X126500499Y-75321153D01*
X126487266Y-75254628D01*
X126469737Y-75166503D01*
X126464704Y-75154351D01*
X126409395Y-75020823D01*
X126397765Y-75003417D01*
X126376887Y-74936739D01*
X126395372Y-74869359D01*
X126431975Y-74831425D01*
X126494289Y-74789789D01*
X126605789Y-74678289D01*
X126693394Y-74547179D01*
X126700521Y-74529974D01*
X126721700Y-74478842D01*
X126753737Y-74401497D01*
X126784500Y-74246842D01*
X126784500Y-74089158D01*
X126784500Y-74089155D01*
X126784499Y-74089153D01*
X126762540Y-73978760D01*
X126753737Y-73934503D01*
X126735182Y-73889707D01*
X126693397Y-73788827D01*
X126693390Y-73788814D01*
X126605789Y-73657711D01*
X126605786Y-73657707D01*
X126494292Y-73546213D01*
X126494288Y-73546210D01*
X126363185Y-73458609D01*
X126363172Y-73458602D01*
X126217501Y-73398264D01*
X126217489Y-73398261D01*
X126062845Y-73367500D01*
X126062842Y-73367500D01*
X125905158Y-73367500D01*
X125905155Y-73367500D01*
X125750510Y-73398261D01*
X125750498Y-73398264D01*
X125604827Y-73458602D01*
X125604814Y-73458609D01*
X125473711Y-73546210D01*
X125473707Y-73546213D01*
X125362213Y-73657707D01*
X125362210Y-73657711D01*
X125274609Y-73788814D01*
X125274602Y-73788827D01*
X125214264Y-73934498D01*
X125214261Y-73934510D01*
X125183500Y-74089153D01*
X125183500Y-74246846D01*
X125214261Y-74401489D01*
X125214264Y-74401501D01*
X125274602Y-74547171D01*
X125274608Y-74547182D01*
X125286235Y-74564583D01*
X125307112Y-74631261D01*
X125288627Y-74698641D01*
X125252023Y-74736575D01*
X125189711Y-74778210D01*
X125189707Y-74778213D01*
X125078213Y-74889707D01*
X125078210Y-74889711D01*
X124990609Y-75020814D01*
X124990602Y-75020827D01*
X124930264Y-75166498D01*
X124930261Y-75166510D01*
X124899500Y-75321153D01*
X101824188Y-75321153D01*
X101850500Y-75121288D01*
X101850500Y-74878712D01*
X101850326Y-74877394D01*
X101842584Y-74818586D01*
X101818838Y-74638211D01*
X101756054Y-74403900D01*
X101756051Y-74403892D01*
X101738914Y-74362518D01*
X101721780Y-74321153D01*
X115999500Y-74321153D01*
X115999500Y-74478846D01*
X116030261Y-74633489D01*
X116030264Y-74633501D01*
X116090602Y-74779172D01*
X116090609Y-74779185D01*
X116178210Y-74910288D01*
X116178213Y-74910292D01*
X116289707Y-75021786D01*
X116289711Y-75021789D01*
X116420814Y-75109390D01*
X116420827Y-75109397D01*
X116558683Y-75166498D01*
X116566503Y-75169737D01*
X116682800Y-75192870D01*
X116721153Y-75200499D01*
X116721156Y-75200500D01*
X116721158Y-75200500D01*
X116878844Y-75200500D01*
X116878845Y-75200499D01*
X117033497Y-75169737D01*
X117179179Y-75109394D01*
X117310289Y-75021789D01*
X117421789Y-74910289D01*
X117509394Y-74779179D01*
X117569737Y-74633497D01*
X117600500Y-74478842D01*
X117600500Y-74321158D01*
X117600500Y-74321155D01*
X117600499Y-74321153D01*
X117585718Y-74246844D01*
X117569737Y-74166503D01*
X117529522Y-74069414D01*
X117509397Y-74020827D01*
X117509390Y-74020814D01*
X117421789Y-73889711D01*
X117421786Y-73889707D01*
X117310292Y-73778213D01*
X117310288Y-73778210D01*
X117179185Y-73690609D01*
X117179172Y-73690602D01*
X117033501Y-73630264D01*
X117033489Y-73630261D01*
X116878845Y-73599500D01*
X116878842Y-73599500D01*
X116721158Y-73599500D01*
X116721155Y-73599500D01*
X116566510Y-73630261D01*
X116566498Y-73630264D01*
X116420827Y-73690602D01*
X116420814Y-73690609D01*
X116289711Y-73778210D01*
X116289707Y-73778213D01*
X116178213Y-73889707D01*
X116178210Y-73889711D01*
X116090609Y-74020814D01*
X116090602Y-74020827D01*
X116030264Y-74166498D01*
X116030261Y-74166510D01*
X115999500Y-74321153D01*
X101721780Y-74321153D01*
X101680853Y-74222348D01*
X101663224Y-74179788D01*
X101541936Y-73969711D01*
X101448903Y-73848468D01*
X101394266Y-73777263D01*
X101394260Y-73777256D01*
X101222743Y-73605739D01*
X101222736Y-73605733D01*
X101030293Y-73458067D01*
X101030292Y-73458066D01*
X101030289Y-73458064D01*
X100822635Y-73338175D01*
X100820214Y-73336777D01*
X100820205Y-73336773D01*
X100596098Y-73243945D01*
X100592262Y-73242643D01*
X100592671Y-73241435D01*
X100537670Y-73207914D01*
X100507138Y-73145068D01*
X100515430Y-73075692D01*
X100559913Y-73021812D01*
X100626464Y-73000535D01*
X100629420Y-73000500D01*
X121660138Y-73000500D01*
X121727177Y-73020185D01*
G37*
%TD.AperFunction*%
%TD*%
M02*
