%TF.GenerationSoftware,KiCad,Pcbnew,9.0.3*%
%TF.CreationDate,2026-05-26T19:26:16-04:00*%
%TF.ProjectId,Vanguard,56616e67-7561-4726-942e-6b696361645f,rev?*%
%TF.SameCoordinates,Original*%
%TF.FileFunction,Copper,L3,Inr*%
%TF.FilePolarity,Positive*%
%FSLAX46Y46*%
G04 Gerber Fmt 4.6, Leading zero omitted, Abs format (unit mm)*
G04 Created by KiCad (PCBNEW 9.0.3) date 2026-05-26 19:26:16*
%MOMM*%
%LPD*%
G01*
G04 APERTURE LIST*
%TA.AperFunction,ComponentPad*%
%ADD10R,1.700000X1.700000*%
%TD*%
%TA.AperFunction,ComponentPad*%
%ADD11O,1.700000X1.700000*%
%TD*%
%TA.AperFunction,ComponentPad*%
%ADD12O,1.900000X1.050000*%
%TD*%
%TA.AperFunction,ComponentPad*%
%ADD13R,2.000000X2.000000*%
%TD*%
%TA.AperFunction,ComponentPad*%
%ADD14C,2.000000*%
%TD*%
%TA.AperFunction,ViaPad*%
%ADD15C,0.600000*%
%TD*%
G04 APERTURE END LIST*
D10*
%TO.N,C1_P*%
%TO.C,J1*%
X99314000Y-92197000D03*
D11*
%TO.N,GND*%
X99314000Y-94737000D03*
%TD*%
D10*
%TO.N,I2C1_SDA*%
%TO.C,J5*%
X142616000Y-74295000D03*
D11*
%TO.N,I2C1_SCL*%
X145156000Y-74295000D03*
%TD*%
D12*
%TO.N,GND*%
%TO.C,J8*%
X151892000Y-86906000D03*
X151892000Y-79756000D03*
%TD*%
D10*
%TO.N,SERVO_1_PWM*%
%TO.C,J2*%
X128778000Y-74295000D03*
D11*
%TO.N,SERVO_2_PWM*%
X131318000Y-74295000D03*
%TO.N,SERVO_3_PWM*%
X133858000Y-74295000D03*
%TO.N,SERVO_4_PWM*%
X136398000Y-74295000D03*
%TO.N,SERVO_5_PWM*%
X138938000Y-74295000D03*
%TD*%
D10*
%TO.N,GND*%
%TO.C,J4*%
X99314000Y-88392000D03*
D11*
%TO.N,Net-(J4-Pin_2)*%
X99314000Y-85852000D03*
%TO.N,Net-(J4-Pin_3)*%
X99314000Y-83312000D03*
%TO.N,+3.3V*%
X99314000Y-80772000D03*
%TD*%
D13*
%TO.N,C1_M*%
%TO.C,J6*%
X104800000Y-94620000D03*
D14*
%TO.N,C1_P*%
X104800000Y-92080000D03*
%TO.N,C2_M*%
X104800000Y-89540000D03*
%TO.N,C1_P*%
X104800000Y-87000000D03*
%TD*%
D15*
%TO.N,GND*%
X118900000Y-85400000D03*
X101100000Y-88400000D03*
X134600000Y-84100000D03*
X149600000Y-78600000D03*
X121200000Y-94600000D03*
X144800000Y-85000000D03*
X144500000Y-94000000D03*
X107700000Y-94900000D03*
X146800000Y-75800000D03*
X152200000Y-77200000D03*
X150800000Y-96400000D03*
X113300000Y-81000000D03*
X102000000Y-94700000D03*
X146800000Y-74000000D03*
X143900000Y-91800000D03*
X104300000Y-98800000D03*
X106700000Y-98800000D03*
X149600000Y-77200000D03*
X116800000Y-74400000D03*
X139600000Y-85400000D03*
X129300000Y-80700000D03*
X109500000Y-83100000D03*
X143590103Y-81385897D03*
X117400000Y-91400000D03*
X124400000Y-82425000D03*
X146042000Y-78113000D03*
X107700000Y-93400000D03*
X109200000Y-94200000D03*
X137000000Y-87500000D03*
X116500000Y-85400000D03*
X121200000Y-96800000D03*
X148400000Y-74000000D03*
X117400000Y-101200000D03*
X117400000Y-98800000D03*
X117400000Y-96800000D03*
X117800000Y-84400000D03*
X141400000Y-78300000D03*
X107700000Y-84900000D03*
X130200000Y-101981000D03*
X103100000Y-83100000D03*
X147600000Y-99000000D03*
X102000000Y-96700000D03*
X103100000Y-79500000D03*
X111000000Y-81000000D03*
X137100000Y-97600000D03*
X147600000Y-96400000D03*
X146100000Y-94000000D03*
X136300000Y-92300000D03*
X113300000Y-83100000D03*
X119600000Y-89300000D03*
X121200000Y-101200000D03*
X102000000Y-98800000D03*
X109100000Y-96000000D03*
X148200000Y-101400000D03*
X118900000Y-83200000D03*
X111600000Y-86500000D03*
X147800000Y-82031000D03*
X133800000Y-97600000D03*
X135500000Y-96700000D03*
X99400000Y-96800000D03*
X125700000Y-75400000D03*
X104800000Y-84900000D03*
X124714000Y-88773000D03*
X117400000Y-94600000D03*
X139319000Y-102100000D03*
X137100000Y-81800000D03*
X148400000Y-75800000D03*
%TO.N,+3.3V*%
X129400000Y-85600000D03*
X123400000Y-93400000D03*
X144081500Y-77533500D03*
X127508000Y-77597000D03*
X129200000Y-98000000D03*
X137100000Y-102000000D03*
X145669000Y-100358000D03*
X125200000Y-83300000D03*
X140650000Y-80901000D03*
X108526000Y-75438000D03*
X124400000Y-95800000D03*
X132800000Y-96700000D03*
X138000000Y-92300000D03*
X151600000Y-88600000D03*
X104200000Y-100800000D03*
X120650000Y-89281000D03*
%TO.N,VBUS*%
X144145000Y-83586000D03*
%TO.N,I2C1_SDA*%
X145034000Y-81661000D03*
X134250000Y-86550000D03*
X117000000Y-80940000D03*
X124500046Y-100499954D03*
X140300000Y-97500000D03*
X140300000Y-92200000D03*
X123800000Y-81600000D03*
%TO.N,I2C1_SCL*%
X138237000Y-86463000D03*
X143216000Y-79294528D03*
X137900000Y-100330000D03*
X135300000Y-80800000D03*
X124500000Y-98700000D03*
%TO.N,SERVO_4_PWM*%
X134300000Y-77100000D03*
%TO.N,SERVO_3_PWM*%
X133300000Y-77100000D03*
%TO.N,SERVO_5_PWM*%
X135400000Y-77100000D03*
%TO.N,SD_CS*%
X132500000Y-89600000D03*
%TO.N,SPI1_MOSI*%
X131700000Y-92900000D03*
X122900000Y-97700000D03*
%TO.N,SPI1_SCK*%
X130500000Y-91600000D03*
X122900000Y-95900000D03*
%TO.N,SPI1_MISO*%
X119850000Y-98650000D03*
X130650000Y-92550000D03*
%TO.N,BOOT0*%
X125984000Y-74168000D03*
X130628313Y-77271687D03*
%TO.N,SWDIO*%
X137111265Y-84488735D03*
X114100000Y-87100000D03*
%TO.N,SWCLK*%
X107500000Y-81300000D03*
X121800000Y-80600000D03*
X139500000Y-77600000D03*
X112100000Y-80300000D03*
%TO.N,TELEM_CS*%
X124200000Y-91700000D03*
%TD*%
%TA.AperFunction,Conductor*%
%TO.N,GND*%
G36*
X121727177Y-73020185D02*
G01*
X121772932Y-73072989D01*
X121782876Y-73142147D01*
X121753851Y-73205703D01*
X121747819Y-73212181D01*
X121732000Y-73228000D01*
X121732000Y-75318000D01*
X123632000Y-75318000D01*
X123632000Y-74089153D01*
X125183500Y-74089153D01*
X125183500Y-74246846D01*
X125214261Y-74401489D01*
X125214264Y-74401501D01*
X125274602Y-74547172D01*
X125274609Y-74547185D01*
X125362210Y-74678288D01*
X125362213Y-74678292D01*
X125473707Y-74789786D01*
X125473711Y-74789789D01*
X125604814Y-74877390D01*
X125604827Y-74877397D01*
X125723285Y-74926463D01*
X125750503Y-74937737D01*
X125905153Y-74968499D01*
X125905156Y-74968500D01*
X125905158Y-74968500D01*
X126062844Y-74968500D01*
X126062845Y-74968499D01*
X126217497Y-74937737D01*
X126359997Y-74878712D01*
X126363172Y-74877397D01*
X126363172Y-74877396D01*
X126363179Y-74877394D01*
X126494289Y-74789789D01*
X126605789Y-74678289D01*
X126693394Y-74547179D01*
X126700521Y-74529974D01*
X126720188Y-74482491D01*
X126753737Y-74401497D01*
X126784500Y-74246842D01*
X126784500Y-74089158D01*
X126784500Y-74089155D01*
X126784499Y-74089153D01*
X126762540Y-73978759D01*
X126753737Y-73934503D01*
X126711838Y-73833349D01*
X126693397Y-73788827D01*
X126693390Y-73788814D01*
X126605789Y-73657711D01*
X126605786Y-73657707D01*
X126494292Y-73546213D01*
X126494288Y-73546210D01*
X126363185Y-73458609D01*
X126363172Y-73458602D01*
X126217501Y-73398264D01*
X126217489Y-73398261D01*
X126062845Y-73367500D01*
X126062842Y-73367500D01*
X125905158Y-73367500D01*
X125905155Y-73367500D01*
X125750510Y-73398261D01*
X125750498Y-73398264D01*
X125604827Y-73458602D01*
X125604814Y-73458609D01*
X125473711Y-73546210D01*
X125473707Y-73546213D01*
X125362213Y-73657707D01*
X125362210Y-73657711D01*
X125274609Y-73788814D01*
X125274602Y-73788827D01*
X125214264Y-73934498D01*
X125214261Y-73934510D01*
X125183500Y-74089153D01*
X123632000Y-74089153D01*
X123632000Y-73228000D01*
X123616181Y-73212181D01*
X123582696Y-73150858D01*
X123587680Y-73081166D01*
X123629552Y-73025233D01*
X123695016Y-73000816D01*
X123703862Y-73000500D01*
X127387825Y-73000500D01*
X127454864Y-73020185D01*
X127500619Y-73072989D01*
X127510563Y-73142147D01*
X127487092Y-73198810D01*
X127484206Y-73202664D01*
X127484202Y-73202671D01*
X127433908Y-73337517D01*
X127427501Y-73397116D01*
X127427500Y-73397135D01*
X127427500Y-75192870D01*
X127427501Y-75192876D01*
X127433908Y-75252483D01*
X127484202Y-75387328D01*
X127484206Y-75387335D01*
X127570452Y-75502544D01*
X127570455Y-75502547D01*
X127685664Y-75588793D01*
X127685671Y-75588797D01*
X127820517Y-75639091D01*
X127820516Y-75639091D01*
X127827444Y-75639835D01*
X127880127Y-75645500D01*
X129675872Y-75645499D01*
X129735483Y-75639091D01*
X129870331Y-75588796D01*
X129985546Y-75502546D01*
X130071796Y-75387331D01*
X130120810Y-75255916D01*
X130162681Y-75199984D01*
X130228145Y-75175566D01*
X130296418Y-75190417D01*
X130324673Y-75211569D01*
X130438213Y-75325109D01*
X130610179Y-75450048D01*
X130610181Y-75450049D01*
X130610184Y-75450051D01*
X130799588Y-75546557D01*
X131001757Y-75612246D01*
X131211713Y-75645500D01*
X131211714Y-75645500D01*
X131424286Y-75645500D01*
X131424287Y-75645500D01*
X131634243Y-75612246D01*
X131836412Y-75546557D01*
X132025816Y-75450051D01*
X132112138Y-75387335D01*
X132197786Y-75325109D01*
X132197788Y-75325106D01*
X132197792Y-75325104D01*
X132348104Y-75174792D01*
X132348106Y-75174788D01*
X132348109Y-75174786D01*
X132473048Y-75002820D01*
X132473047Y-75002820D01*
X132473051Y-75002816D01*
X132477514Y-74994054D01*
X132525488Y-74943259D01*
X132593308Y-74926463D01*
X132659444Y-74948999D01*
X132698486Y-74994056D01*
X132702951Y-75002820D01*
X132827890Y-75174786D01*
X132978213Y-75325109D01*
X133150179Y-75450048D01*
X133150181Y-75450049D01*
X133150184Y-75450051D01*
X133339588Y-75546557D01*
X133541757Y-75612246D01*
X133751713Y-75645500D01*
X133751714Y-75645500D01*
X133964286Y-75645500D01*
X133964287Y-75645500D01*
X134174243Y-75612246D01*
X134376412Y-75546557D01*
X134565816Y-75450051D01*
X134652138Y-75387335D01*
X134737786Y-75325109D01*
X134737788Y-75325106D01*
X134737792Y-75325104D01*
X134888104Y-75174792D01*
X134888106Y-75174788D01*
X134888109Y-75174786D01*
X135013048Y-75002820D01*
X135013047Y-75002820D01*
X135013051Y-75002816D01*
X135017514Y-74994054D01*
X135065488Y-74943259D01*
X135133308Y-74926463D01*
X135199444Y-74948999D01*
X135238486Y-74994056D01*
X135242951Y-75002820D01*
X135367890Y-75174786D01*
X135518213Y-75325109D01*
X135690179Y-75450048D01*
X135690181Y-75450049D01*
X135690184Y-75450051D01*
X135879588Y-75546557D01*
X136081757Y-75612246D01*
X136291713Y-75645500D01*
X136291714Y-75645500D01*
X136504286Y-75645500D01*
X136504287Y-75645500D01*
X136714243Y-75612246D01*
X136916412Y-75546557D01*
X137105816Y-75450051D01*
X137192138Y-75387335D01*
X137277786Y-75325109D01*
X137277788Y-75325106D01*
X137277792Y-75325104D01*
X137428104Y-75174792D01*
X137428106Y-75174788D01*
X137428109Y-75174786D01*
X137553048Y-75002820D01*
X137553047Y-75002820D01*
X137553051Y-75002816D01*
X137557514Y-74994054D01*
X137605488Y-74943259D01*
X137673308Y-74926463D01*
X137739444Y-74948999D01*
X137778486Y-74994056D01*
X137782951Y-75002820D01*
X137907890Y-75174786D01*
X138058213Y-75325109D01*
X138230179Y-75450048D01*
X138230181Y-75450049D01*
X138230184Y-75450051D01*
X138419588Y-75546557D01*
X138621757Y-75612246D01*
X138831713Y-75645500D01*
X138831714Y-75645500D01*
X139044286Y-75645500D01*
X139044287Y-75645500D01*
X139254243Y-75612246D01*
X139456412Y-75546557D01*
X139645816Y-75450051D01*
X139732138Y-75387335D01*
X139817786Y-75325109D01*
X139817788Y-75325106D01*
X139817792Y-75325104D01*
X139968104Y-75174792D01*
X139968106Y-75174788D01*
X139968109Y-75174786D01*
X140093048Y-75002820D01*
X140093047Y-75002820D01*
X140093051Y-75002816D01*
X140189557Y-74813412D01*
X140255246Y-74611243D01*
X140288500Y-74401287D01*
X140288500Y-74188713D01*
X140255246Y-73978757D01*
X140189557Y-73776588D01*
X140093051Y-73587184D01*
X140093049Y-73587181D01*
X140093048Y-73587179D01*
X139968109Y-73415213D01*
X139817792Y-73264896D01*
X139817788Y-73264893D01*
X139762629Y-73224818D01*
X139719964Y-73169489D01*
X139713985Y-73099876D01*
X139746590Y-73038080D01*
X139807429Y-73003723D01*
X139835515Y-73000500D01*
X141225825Y-73000500D01*
X141292864Y-73020185D01*
X141338619Y-73072989D01*
X141348563Y-73142147D01*
X141325092Y-73198810D01*
X141322206Y-73202664D01*
X141322202Y-73202671D01*
X141271908Y-73337517D01*
X141265501Y-73397116D01*
X141265500Y-73397135D01*
X141265500Y-75192870D01*
X141265501Y-75192876D01*
X141271908Y-75252483D01*
X141322202Y-75387328D01*
X141322206Y-75387335D01*
X141408452Y-75502544D01*
X141408455Y-75502547D01*
X141523664Y-75588793D01*
X141523671Y-75588797D01*
X141658517Y-75639091D01*
X141658516Y-75639091D01*
X141665444Y-75639835D01*
X141718127Y-75645500D01*
X143513872Y-75645499D01*
X143573483Y-75639091D01*
X143708331Y-75588796D01*
X143823546Y-75502546D01*
X143909796Y-75387331D01*
X143958810Y-75255916D01*
X144000681Y-75199984D01*
X144066145Y-75175566D01*
X144134418Y-75190417D01*
X144162673Y-75211569D01*
X144276213Y-75325109D01*
X144448179Y-75450048D01*
X144448181Y-75450049D01*
X144448184Y-75450051D01*
X144637588Y-75546557D01*
X144839757Y-75612246D01*
X145049713Y-75645500D01*
X145049714Y-75645500D01*
X145262286Y-75645500D01*
X145262287Y-75645500D01*
X145472243Y-75612246D01*
X145674412Y-75546557D01*
X145863816Y-75450051D01*
X145950138Y-75387335D01*
X146035786Y-75325109D01*
X146035788Y-75325106D01*
X146035792Y-75325104D01*
X146186104Y-75174792D01*
X146186106Y-75174788D01*
X146186109Y-75174786D01*
X146311048Y-75002820D01*
X146311047Y-75002820D01*
X146311051Y-75002816D01*
X146407557Y-74813412D01*
X146473246Y-74611243D01*
X146506500Y-74401287D01*
X146506500Y-74188713D01*
X146473246Y-73978757D01*
X146407557Y-73776588D01*
X146311051Y-73587184D01*
X146311049Y-73587181D01*
X146311048Y-73587179D01*
X146186109Y-73415213D01*
X146035792Y-73264896D01*
X146035788Y-73264893D01*
X145980629Y-73224818D01*
X145937964Y-73169489D01*
X145931985Y-73099876D01*
X145964590Y-73038080D01*
X146025429Y-73003723D01*
X146053515Y-73000500D01*
X150170580Y-73000500D01*
X150237619Y-73020185D01*
X150283374Y-73072989D01*
X150293318Y-73142147D01*
X150264293Y-73205703D01*
X150207572Y-73242154D01*
X150207738Y-73242643D01*
X150205777Y-73243308D01*
X150205515Y-73243477D01*
X150204161Y-73243856D01*
X150203901Y-73243945D01*
X149979794Y-73336773D01*
X149979785Y-73336777D01*
X149769706Y-73458067D01*
X149577263Y-73605733D01*
X149577256Y-73605739D01*
X149405739Y-73777256D01*
X149405733Y-73777263D01*
X149258067Y-73969706D01*
X149136777Y-74179785D01*
X149136773Y-74179794D01*
X149043947Y-74403895D01*
X148981161Y-74638214D01*
X148949500Y-74878711D01*
X148949500Y-75121288D01*
X148981161Y-75361785D01*
X149043947Y-75596104D01*
X149064408Y-75645500D01*
X149136776Y-75820212D01*
X149258064Y-76030289D01*
X149258066Y-76030292D01*
X149258067Y-76030293D01*
X149405733Y-76222736D01*
X149405739Y-76222743D01*
X149577256Y-76394260D01*
X149577262Y-76394265D01*
X149769711Y-76541936D01*
X149979788Y-76663224D01*
X150203900Y-76756054D01*
X150438211Y-76818838D01*
X150618586Y-76842584D01*
X150678711Y-76850500D01*
X150678712Y-76850500D01*
X150921289Y-76850500D01*
X150969388Y-76844167D01*
X151161789Y-76818838D01*
X151396100Y-76756054D01*
X151620212Y-76663224D01*
X151830289Y-76541936D01*
X152022738Y-76394265D01*
X152194265Y-76222738D01*
X152341936Y-76030289D01*
X152463224Y-75820212D01*
X152556054Y-75596100D01*
X152618838Y-75361789D01*
X152632561Y-75257549D01*
X152660827Y-75193653D01*
X152719152Y-75155182D01*
X152789016Y-75154351D01*
X152848240Y-75191423D01*
X152878019Y-75254628D01*
X152879500Y-75273735D01*
X152879500Y-78693963D01*
X152859815Y-78761002D01*
X152807011Y-78806757D01*
X152737853Y-78816701D01*
X152708048Y-78808525D01*
X152615974Y-78770388D01*
X152615974Y-78770387D01*
X152417958Y-78731000D01*
X152142000Y-78731000D01*
X152142000Y-79531000D01*
X151447245Y-79531000D01*
X151364548Y-79565254D01*
X151301254Y-79628548D01*
X151267000Y-79711245D01*
X151267000Y-79800755D01*
X151301254Y-79883452D01*
X151364548Y-79946746D01*
X151447245Y-79981000D01*
X152142000Y-79981000D01*
X152142000Y-80781000D01*
X152417955Y-80781000D01*
X152417958Y-80780999D01*
X152615974Y-80741612D01*
X152615979Y-80741610D01*
X152708047Y-80703475D01*
X152777517Y-80696006D01*
X152839996Y-80727281D01*
X152875648Y-80787370D01*
X152879500Y-80818036D01*
X152879500Y-85843963D01*
X152859815Y-85911002D01*
X152807011Y-85956757D01*
X152737853Y-85966701D01*
X152708048Y-85958525D01*
X152615974Y-85920388D01*
X152615974Y-85920387D01*
X152417958Y-85881000D01*
X152142000Y-85881000D01*
X152142000Y-86681000D01*
X151447245Y-86681000D01*
X151364548Y-86715254D01*
X151301254Y-86778548D01*
X151267000Y-86861245D01*
X151267000Y-86950755D01*
X151301254Y-87033452D01*
X151364548Y-87096746D01*
X151447245Y-87131000D01*
X151835430Y-87131000D01*
X151819511Y-87144794D01*
X151768000Y-87156000D01*
X150471647Y-87156000D01*
X150481387Y-87204974D01*
X150481390Y-87204983D01*
X150558652Y-87391513D01*
X150558659Y-87391526D01*
X150670829Y-87559399D01*
X150670832Y-87559403D01*
X150813596Y-87702167D01*
X150813600Y-87702170D01*
X150981473Y-87814340D01*
X150981480Y-87814344D01*
X151002427Y-87823020D01*
X151056831Y-87866860D01*
X151078897Y-87933154D01*
X151061619Y-88000854D01*
X151042658Y-88025263D01*
X150978210Y-88089711D01*
X150890609Y-88220814D01*
X150890602Y-88220827D01*
X150830264Y-88366498D01*
X150830261Y-88366510D01*
X150799500Y-88521153D01*
X150799500Y-88678846D01*
X150830261Y-88833489D01*
X150830264Y-88833501D01*
X150890602Y-88979172D01*
X150890609Y-88979185D01*
X150978210Y-89110288D01*
X150978213Y-89110292D01*
X151089707Y-89221786D01*
X151089711Y-89221789D01*
X151220814Y-89309390D01*
X151220827Y-89309397D01*
X151358683Y-89366498D01*
X151366503Y-89369737D01*
X151521153Y-89400499D01*
X151521156Y-89400500D01*
X151521158Y-89400500D01*
X151678844Y-89400500D01*
X151678845Y-89400499D01*
X151833497Y-89369737D01*
X151979179Y-89309394D01*
X152110289Y-89221789D01*
X152221789Y-89110289D01*
X152309394Y-88979179D01*
X152369737Y-88833497D01*
X152400500Y-88678842D01*
X152400500Y-88521158D01*
X152400500Y-88521155D01*
X152400499Y-88521153D01*
X152398531Y-88511261D01*
X152369737Y-88366503D01*
X152365561Y-88356421D01*
X152309397Y-88220827D01*
X152309390Y-88220814D01*
X152244628Y-88123891D01*
X152223750Y-88057213D01*
X152242235Y-87989833D01*
X152294213Y-87943143D01*
X152347730Y-87931000D01*
X152417955Y-87931000D01*
X152417958Y-87930999D01*
X152615974Y-87891612D01*
X152615979Y-87891610D01*
X152708047Y-87853475D01*
X152777517Y-87846006D01*
X152839996Y-87877281D01*
X152875648Y-87937370D01*
X152879500Y-87968036D01*
X152879500Y-100126264D01*
X152859815Y-100193303D01*
X152807011Y-100239058D01*
X152737853Y-100249002D01*
X152674297Y-100219977D01*
X152636523Y-100161199D01*
X152632561Y-100142449D01*
X152618838Y-100038214D01*
X152618838Y-100038211D01*
X152556054Y-99803900D01*
X152463224Y-99579788D01*
X152341936Y-99369711D01*
X152219610Y-99210292D01*
X152194266Y-99177263D01*
X152194260Y-99177256D01*
X152022743Y-99005739D01*
X152022736Y-99005733D01*
X151830293Y-98858067D01*
X151830292Y-98858066D01*
X151830289Y-98858064D01*
X151620212Y-98736776D01*
X151620205Y-98736773D01*
X151396104Y-98643947D01*
X151161785Y-98581161D01*
X150921289Y-98549500D01*
X150921288Y-98549500D01*
X150678712Y-98549500D01*
X150678711Y-98549500D01*
X150438214Y-98581161D01*
X150203895Y-98643947D01*
X149979794Y-98736773D01*
X149979785Y-98736777D01*
X149769706Y-98858067D01*
X149577263Y-99005733D01*
X149577256Y-99005739D01*
X149405739Y-99177256D01*
X149405733Y-99177263D01*
X149258067Y-99369706D01*
X149136777Y-99579785D01*
X149136773Y-99579794D01*
X149043947Y-99803895D01*
X148981161Y-100038214D01*
X148949500Y-100278711D01*
X148949500Y-100521288D01*
X148981161Y-100761785D01*
X149043947Y-100996104D01*
X149136773Y-101220205D01*
X149136777Y-101220214D01*
X149148033Y-101239710D01*
X149258064Y-101430289D01*
X149258066Y-101430292D01*
X149258067Y-101430293D01*
X149405733Y-101622736D01*
X149405739Y-101622743D01*
X149577256Y-101794260D01*
X149577262Y-101794265D01*
X149769711Y-101941936D01*
X149979788Y-102063224D01*
X150203900Y-102156054D01*
X150438211Y-102218838D01*
X150531046Y-102231059D01*
X150542449Y-102232561D01*
X150606346Y-102260827D01*
X150644817Y-102319152D01*
X150645648Y-102389016D01*
X150608576Y-102448240D01*
X150545370Y-102478019D01*
X150526264Y-102479500D01*
X137953418Y-102479500D01*
X137886379Y-102459815D01*
X137840624Y-102407011D01*
X137830680Y-102337853D01*
X137838855Y-102308051D01*
X137869737Y-102233497D01*
X137900500Y-102078842D01*
X137900500Y-101921158D01*
X137900500Y-101921155D01*
X137900499Y-101921153D01*
X137869738Y-101766510D01*
X137869737Y-101766503D01*
X137869735Y-101766498D01*
X137809397Y-101620827D01*
X137809390Y-101620814D01*
X137721789Y-101489711D01*
X137721786Y-101489707D01*
X137610292Y-101378213D01*
X137610288Y-101378210D01*
X137479185Y-101290609D01*
X137479172Y-101290602D01*
X137333501Y-101230264D01*
X137333489Y-101230261D01*
X137178845Y-101199500D01*
X137178842Y-101199500D01*
X137021158Y-101199500D01*
X137021155Y-101199500D01*
X136866510Y-101230261D01*
X136866498Y-101230264D01*
X136720827Y-101290602D01*
X136720814Y-101290609D01*
X136589711Y-101378210D01*
X136589707Y-101378213D01*
X136478213Y-101489707D01*
X136478210Y-101489711D01*
X136390609Y-101620814D01*
X136390602Y-101620827D01*
X136330264Y-101766498D01*
X136330261Y-101766510D01*
X136299500Y-101921153D01*
X136299500Y-102078846D01*
X136330261Y-102233489D01*
X136330263Y-102233497D01*
X136361143Y-102308049D01*
X136368612Y-102377516D01*
X136337337Y-102439996D01*
X136277248Y-102475648D01*
X136246582Y-102479500D01*
X100273736Y-102479500D01*
X100206697Y-102459815D01*
X100160942Y-102407011D01*
X100150998Y-102337853D01*
X100180023Y-102274297D01*
X100238801Y-102236523D01*
X100257551Y-102232561D01*
X100266343Y-102231403D01*
X100361789Y-102218838D01*
X100596100Y-102156054D01*
X100820212Y-102063224D01*
X101030289Y-101941936D01*
X101222738Y-101794265D01*
X101394265Y-101622738D01*
X101541936Y-101430289D01*
X101663224Y-101220212D01*
X101756054Y-100996100D01*
X101818838Y-100761789D01*
X101824188Y-100721153D01*
X103399500Y-100721153D01*
X103399500Y-100878846D01*
X103430261Y-101033489D01*
X103430264Y-101033501D01*
X103490602Y-101179172D01*
X103490609Y-101179185D01*
X103578210Y-101310288D01*
X103578213Y-101310292D01*
X103689707Y-101421786D01*
X103689711Y-101421789D01*
X103820814Y-101509390D01*
X103820827Y-101509397D01*
X103935171Y-101556759D01*
X103966503Y-101569737D01*
X104121153Y-101600499D01*
X104121156Y-101600500D01*
X104121158Y-101600500D01*
X104278844Y-101600500D01*
X104278845Y-101600499D01*
X104433497Y-101569737D01*
X104579179Y-101509394D01*
X104710289Y-101421789D01*
X104821789Y-101310289D01*
X104909394Y-101179179D01*
X104969737Y-101033497D01*
X105000500Y-100878842D01*
X105000500Y-100721158D01*
X105000500Y-100721155D01*
X105000499Y-100721153D01*
X104996069Y-100698881D01*
X104969737Y-100566503D01*
X104968489Y-100563489D01*
X104909397Y-100420827D01*
X104909390Y-100420814D01*
X104821789Y-100289711D01*
X104821786Y-100289707D01*
X104710292Y-100178213D01*
X104710288Y-100178210D01*
X104579185Y-100090609D01*
X104579172Y-100090602D01*
X104433501Y-100030264D01*
X104433489Y-100030261D01*
X104278845Y-99999500D01*
X104278842Y-99999500D01*
X104121158Y-99999500D01*
X104121155Y-99999500D01*
X103966510Y-100030261D01*
X103966498Y-100030264D01*
X103820827Y-100090602D01*
X103820814Y-100090609D01*
X103689711Y-100178210D01*
X103689707Y-100178213D01*
X103578213Y-100289707D01*
X103578210Y-100289711D01*
X103490609Y-100420814D01*
X103490602Y-100420827D01*
X103430264Y-100566498D01*
X103430261Y-100566510D01*
X103399500Y-100721153D01*
X101824188Y-100721153D01*
X101841257Y-100591501D01*
X101850500Y-100521288D01*
X101850500Y-100278711D01*
X101830198Y-100124503D01*
X101818838Y-100038211D01*
X101756054Y-99803900D01*
X101663224Y-99579788D01*
X101541936Y-99369711D01*
X101419610Y-99210292D01*
X101394266Y-99177263D01*
X101394260Y-99177256D01*
X101222743Y-99005739D01*
X101222736Y-99005733D01*
X101030293Y-98858067D01*
X101030292Y-98858066D01*
X101030289Y-98858064D01*
X100820212Y-98736776D01*
X100801062Y-98728844D01*
X100682242Y-98679627D01*
X100596104Y-98643947D01*
X100361785Y-98581161D01*
X100285765Y-98571153D01*
X119049500Y-98571153D01*
X119049500Y-98728846D01*
X119080261Y-98883489D01*
X119080264Y-98883501D01*
X119140602Y-99029172D01*
X119140609Y-99029185D01*
X119228210Y-99160288D01*
X119228213Y-99160292D01*
X119339707Y-99271786D01*
X119339711Y-99271789D01*
X119470814Y-99359390D01*
X119470827Y-99359397D01*
X119616498Y-99419735D01*
X119616503Y-99419737D01*
X119771153Y-99450499D01*
X119771156Y-99450500D01*
X119771158Y-99450500D01*
X119928844Y-99450500D01*
X119928845Y-99450499D01*
X120083497Y-99419737D01*
X120229179Y-99359394D01*
X120360289Y-99271789D01*
X120471789Y-99160289D01*
X120559394Y-99029179D01*
X120619737Y-98883497D01*
X120650500Y-98728842D01*
X120650500Y-98621153D01*
X123699500Y-98621153D01*
X123699500Y-98778846D01*
X123730261Y-98933489D01*
X123730264Y-98933501D01*
X123790602Y-99079172D01*
X123790609Y-99079185D01*
X123878210Y-99210288D01*
X123878213Y-99210292D01*
X123989707Y-99321786D01*
X123989711Y-99321789D01*
X124120814Y-99409390D01*
X124120827Y-99409397D01*
X124220060Y-99450500D01*
X124266503Y-99469737D01*
X124309874Y-99478364D01*
X124371784Y-99510748D01*
X124406358Y-99571464D01*
X124402619Y-99641233D01*
X124361753Y-99697905D01*
X124309875Y-99721598D01*
X124266553Y-99730215D01*
X124266544Y-99730218D01*
X124120873Y-99790556D01*
X124120860Y-99790563D01*
X123989757Y-99878164D01*
X123989753Y-99878167D01*
X123878259Y-99989661D01*
X123878256Y-99989665D01*
X123790655Y-100120768D01*
X123790648Y-100120781D01*
X123730310Y-100266452D01*
X123730307Y-100266464D01*
X123699546Y-100421107D01*
X123699546Y-100578800D01*
X123730307Y-100733443D01*
X123730310Y-100733455D01*
X123790648Y-100879126D01*
X123790655Y-100879139D01*
X123878256Y-101010242D01*
X123878259Y-101010246D01*
X123989753Y-101121740D01*
X123989757Y-101121743D01*
X124120860Y-101209344D01*
X124120873Y-101209351D01*
X124237484Y-101257652D01*
X124266549Y-101269691D01*
X124421199Y-101300453D01*
X124421202Y-101300454D01*
X124421204Y-101300454D01*
X124578890Y-101300454D01*
X124578891Y-101300453D01*
X124733543Y-101269691D01*
X124879225Y-101209348D01*
X125010335Y-101121743D01*
X125121835Y-101010243D01*
X125209440Y-100879133D01*
X125213931Y-100868292D01*
X125258047Y-100761785D01*
X125269783Y-100733451D01*
X125300546Y-100578796D01*
X125300546Y-100421112D01*
X125300546Y-100421109D01*
X125276641Y-100300936D01*
X125269783Y-100266457D01*
X125263444Y-100251153D01*
X137099500Y-100251153D01*
X137099500Y-100408846D01*
X137130261Y-100563489D01*
X137130264Y-100563501D01*
X137190602Y-100709172D01*
X137190609Y-100709185D01*
X137278210Y-100840288D01*
X137278213Y-100840292D01*
X137389707Y-100951786D01*
X137389711Y-100951789D01*
X137520814Y-101039390D01*
X137520827Y-101039397D01*
X137666498Y-101099735D01*
X137666503Y-101099737D01*
X137777119Y-101121740D01*
X137821153Y-101130499D01*
X137821156Y-101130500D01*
X137821158Y-101130500D01*
X137978844Y-101130500D01*
X137978845Y-101130499D01*
X138133497Y-101099737D01*
X138279179Y-101039394D01*
X138410289Y-100951789D01*
X138521789Y-100840289D01*
X138609394Y-100709179D01*
X138669737Y-100563497D01*
X138700500Y-100408842D01*
X138700500Y-100279153D01*
X144868500Y-100279153D01*
X144868500Y-100436846D01*
X144899261Y-100591489D01*
X144899264Y-100591501D01*
X144959602Y-100737172D01*
X144959609Y-100737185D01*
X145047210Y-100868288D01*
X145047213Y-100868292D01*
X145158707Y-100979786D01*
X145158711Y-100979789D01*
X145289814Y-101067390D01*
X145289827Y-101067397D01*
X145421025Y-101121740D01*
X145435503Y-101127737D01*
X145581747Y-101156827D01*
X145590153Y-101158499D01*
X145590156Y-101158500D01*
X145590158Y-101158500D01*
X145747844Y-101158500D01*
X145747845Y-101158499D01*
X145902497Y-101127737D01*
X146048179Y-101067394D01*
X146179289Y-100979789D01*
X146290789Y-100868289D01*
X146378394Y-100737179D01*
X146379942Y-100733443D01*
X146394257Y-100698881D01*
X146438737Y-100591497D01*
X146469500Y-100436842D01*
X146469500Y-100279158D01*
X146469500Y-100279155D01*
X146469499Y-100279153D01*
X146463929Y-100251153D01*
X146438737Y-100124503D01*
X146424695Y-100090602D01*
X146378397Y-99978827D01*
X146378390Y-99978814D01*
X146290789Y-99847711D01*
X146290786Y-99847707D01*
X146179292Y-99736213D01*
X146179288Y-99736210D01*
X146048185Y-99648609D01*
X146048172Y-99648602D01*
X145902501Y-99588264D01*
X145902489Y-99588261D01*
X145747845Y-99557500D01*
X145747842Y-99557500D01*
X145590158Y-99557500D01*
X145590155Y-99557500D01*
X145435510Y-99588261D01*
X145435498Y-99588264D01*
X145289827Y-99648602D01*
X145289814Y-99648609D01*
X145158711Y-99736210D01*
X145158707Y-99736213D01*
X145047213Y-99847707D01*
X145047210Y-99847711D01*
X144959609Y-99978814D01*
X144959602Y-99978827D01*
X144899264Y-100124498D01*
X144899261Y-100124510D01*
X144868500Y-100279153D01*
X138700500Y-100279153D01*
X138700500Y-100251158D01*
X138700500Y-100251155D01*
X138700499Y-100251153D01*
X138685990Y-100178211D01*
X138669737Y-100096503D01*
X138642299Y-100030261D01*
X138609397Y-99950827D01*
X138609390Y-99950814D01*
X138521789Y-99819711D01*
X138521786Y-99819707D01*
X138410292Y-99708213D01*
X138410288Y-99708210D01*
X138279185Y-99620609D01*
X138279172Y-99620602D01*
X138133501Y-99560264D01*
X138133489Y-99560261D01*
X137978845Y-99529500D01*
X137978842Y-99529500D01*
X137821158Y-99529500D01*
X137821155Y-99529500D01*
X137666510Y-99560261D01*
X137666498Y-99560264D01*
X137520827Y-99620602D01*
X137520814Y-99620609D01*
X137389711Y-99708210D01*
X137389707Y-99708213D01*
X137278213Y-99819707D01*
X137278210Y-99819711D01*
X137190609Y-99950814D01*
X137190602Y-99950827D01*
X137130264Y-100096498D01*
X137130261Y-100096510D01*
X137099500Y-100251153D01*
X125263444Y-100251153D01*
X125239482Y-100193303D01*
X125209443Y-100120781D01*
X125209436Y-100120768D01*
X125121835Y-99989665D01*
X125121832Y-99989661D01*
X125010338Y-99878167D01*
X125010334Y-99878164D01*
X124879231Y-99790563D01*
X124879218Y-99790556D01*
X124733547Y-99730218D01*
X124733537Y-99730215D01*
X124690171Y-99721589D01*
X124628260Y-99689204D01*
X124593686Y-99628487D01*
X124597427Y-99558718D01*
X124638293Y-99502046D01*
X124690170Y-99478355D01*
X124733497Y-99469737D01*
X124879179Y-99409394D01*
X125010289Y-99321789D01*
X125121789Y-99210289D01*
X125209394Y-99079179D01*
X125269737Y-98933497D01*
X125300500Y-98778842D01*
X125300500Y-98621158D01*
X125300500Y-98621155D01*
X125300499Y-98621153D01*
X125278447Y-98510292D01*
X125269737Y-98466503D01*
X125269735Y-98466498D01*
X125209397Y-98320827D01*
X125209390Y-98320814D01*
X125121789Y-98189711D01*
X125121786Y-98189707D01*
X125010292Y-98078213D01*
X125010288Y-98078210D01*
X124920429Y-98018168D01*
X124879185Y-97990609D01*
X124879172Y-97990602D01*
X124733501Y-97930264D01*
X124733489Y-97930261D01*
X124687701Y-97921153D01*
X128399500Y-97921153D01*
X128399500Y-98078846D01*
X128430261Y-98233489D01*
X128430264Y-98233501D01*
X128490602Y-98379172D01*
X128490609Y-98379185D01*
X128578210Y-98510288D01*
X128578213Y-98510292D01*
X128689707Y-98621786D01*
X128689711Y-98621789D01*
X128820814Y-98709390D01*
X128820827Y-98709397D01*
X128966498Y-98769735D01*
X128966503Y-98769737D01*
X129121153Y-98800499D01*
X129121156Y-98800500D01*
X129121158Y-98800500D01*
X129278844Y-98800500D01*
X129278845Y-98800499D01*
X129433497Y-98769737D01*
X129579179Y-98709394D01*
X129710289Y-98621789D01*
X129821789Y-98510289D01*
X129909394Y-98379179D01*
X129969737Y-98233497D01*
X130000500Y-98078842D01*
X130000500Y-97921158D01*
X130000500Y-97921155D01*
X130000499Y-97921153D01*
X129972192Y-97778846D01*
X129969737Y-97766503D01*
X129909534Y-97621158D01*
X129909397Y-97620827D01*
X129909390Y-97620814D01*
X129821789Y-97489711D01*
X129821786Y-97489707D01*
X129710292Y-97378213D01*
X129710288Y-97378210D01*
X129579185Y-97290609D01*
X129579172Y-97290602D01*
X129433501Y-97230264D01*
X129433489Y-97230261D01*
X129278845Y-97199500D01*
X129278842Y-97199500D01*
X129121158Y-97199500D01*
X129121155Y-97199500D01*
X128966510Y-97230261D01*
X128966498Y-97230264D01*
X128820827Y-97290602D01*
X128820814Y-97290609D01*
X128689711Y-97378210D01*
X128689707Y-97378213D01*
X128578213Y-97489707D01*
X128578210Y-97489711D01*
X128490609Y-97620814D01*
X128490602Y-97620827D01*
X128430264Y-97766498D01*
X128430261Y-97766510D01*
X128399500Y-97921153D01*
X124687701Y-97921153D01*
X124578845Y-97899500D01*
X124578842Y-97899500D01*
X124421158Y-97899500D01*
X124421155Y-97899500D01*
X124266510Y-97930261D01*
X124266498Y-97930264D01*
X124120827Y-97990602D01*
X124120814Y-97990609D01*
X123989711Y-98078210D01*
X123989707Y-98078213D01*
X123878213Y-98189707D01*
X123878210Y-98189711D01*
X123790609Y-98320814D01*
X123790602Y-98320827D01*
X123730264Y-98466498D01*
X123730261Y-98466510D01*
X123699500Y-98621153D01*
X120650500Y-98621153D01*
X120650500Y-98571158D01*
X120650500Y-98571155D01*
X120650499Y-98571153D01*
X120635043Y-98493450D01*
X120619737Y-98416503D01*
X120616791Y-98409390D01*
X120559397Y-98270827D01*
X120559390Y-98270814D01*
X120471789Y-98139711D01*
X120471786Y-98139707D01*
X120360292Y-98028213D01*
X120360288Y-98028210D01*
X120229185Y-97940609D01*
X120229172Y-97940602D01*
X120083501Y-97880264D01*
X120083489Y-97880261D01*
X119928845Y-97849500D01*
X119928842Y-97849500D01*
X119771158Y-97849500D01*
X119771155Y-97849500D01*
X119616510Y-97880261D01*
X119616498Y-97880264D01*
X119470827Y-97940602D01*
X119470814Y-97940609D01*
X119339711Y-98028210D01*
X119339707Y-98028213D01*
X119228213Y-98139707D01*
X119228210Y-98139711D01*
X119140609Y-98270814D01*
X119140602Y-98270827D01*
X119080264Y-98416498D01*
X119080261Y-98416510D01*
X119049500Y-98571153D01*
X100285765Y-98571153D01*
X100121289Y-98549500D01*
X100121288Y-98549500D01*
X99878712Y-98549500D01*
X99878711Y-98549500D01*
X99638214Y-98581161D01*
X99403895Y-98643947D01*
X99179794Y-98736773D01*
X99179785Y-98736777D01*
X98969706Y-98858067D01*
X98777263Y-99005733D01*
X98777256Y-99005739D01*
X98605739Y-99177256D01*
X98605733Y-99177263D01*
X98458067Y-99369706D01*
X98336777Y-99579785D01*
X98336773Y-99579794D01*
X98243945Y-99803901D01*
X98242643Y-99807738D01*
X98241438Y-99807329D01*
X98207905Y-99862337D01*
X98145057Y-99892863D01*
X98075682Y-99884565D01*
X98021806Y-99840077D01*
X98000535Y-99773524D01*
X98000500Y-99770579D01*
X98000500Y-95607512D01*
X98020185Y-95540473D01*
X98072989Y-95494718D01*
X98142147Y-95484774D01*
X98205703Y-95513799D01*
X98224818Y-95534627D01*
X98284272Y-95616459D01*
X98284276Y-95616464D01*
X98434535Y-95766723D01*
X98434540Y-95766727D01*
X98606442Y-95891620D01*
X98795782Y-95988095D01*
X98997871Y-96053757D01*
X99064000Y-96064231D01*
X99064000Y-95170012D01*
X99121007Y-95202925D01*
X99248174Y-95237000D01*
X99379826Y-95237000D01*
X99506993Y-95202925D01*
X99564000Y-95170012D01*
X99564000Y-96064230D01*
X99630126Y-96053757D01*
X99630129Y-96053757D01*
X99832217Y-95988095D01*
X100021557Y-95891620D01*
X100193459Y-95766727D01*
X100193464Y-95766723D01*
X100343723Y-95616464D01*
X100343727Y-95616459D01*
X100468620Y-95444557D01*
X100565095Y-95255217D01*
X100630757Y-95053129D01*
X100630757Y-95053126D01*
X100641231Y-94987000D01*
X99747012Y-94987000D01*
X99779925Y-94929993D01*
X99814000Y-94802826D01*
X99814000Y-94671174D01*
X99779925Y-94544007D01*
X99747012Y-94487000D01*
X100641231Y-94487000D01*
X100630757Y-94420873D01*
X100630757Y-94420870D01*
X100565095Y-94218782D01*
X100468620Y-94029442D01*
X100343727Y-93857540D01*
X100343723Y-93857535D01*
X100230053Y-93743865D01*
X100196568Y-93682542D01*
X100201552Y-93612850D01*
X100243424Y-93556917D01*
X100274400Y-93540002D01*
X100406331Y-93490796D01*
X100521546Y-93404546D01*
X100607796Y-93289331D01*
X100658091Y-93154483D01*
X100664500Y-93094873D01*
X100664499Y-91299128D01*
X100658091Y-91239517D01*
X100651115Y-91220814D01*
X100607797Y-91104671D01*
X100607793Y-91104664D01*
X100521547Y-90989455D01*
X100521544Y-90989452D01*
X100406335Y-90903206D01*
X100406328Y-90903202D01*
X100271482Y-90852908D01*
X100271483Y-90852908D01*
X100211883Y-90846501D01*
X100211881Y-90846500D01*
X100211873Y-90846500D01*
X100211864Y-90846500D01*
X98416129Y-90846500D01*
X98416123Y-90846501D01*
X98356516Y-90852908D01*
X98221671Y-90903202D01*
X98221669Y-90903203D01*
X98198810Y-90920316D01*
X98133345Y-90944732D01*
X98065072Y-90929880D01*
X98015667Y-90880474D01*
X98000500Y-90821048D01*
X98000500Y-89767327D01*
X98020185Y-89700288D01*
X98072989Y-89654533D01*
X98142147Y-89644589D01*
X98198812Y-89668061D01*
X98221910Y-89685352D01*
X98221913Y-89685354D01*
X98356620Y-89735596D01*
X98356627Y-89735598D01*
X98416155Y-89741999D01*
X98416172Y-89742000D01*
X99064000Y-89742000D01*
X99064000Y-88825012D01*
X99121007Y-88857925D01*
X99248174Y-88892000D01*
X99379826Y-88892000D01*
X99506993Y-88857925D01*
X99564000Y-88825012D01*
X99564000Y-89742000D01*
X100211828Y-89742000D01*
X100211844Y-89741999D01*
X100271372Y-89735598D01*
X100271379Y-89735596D01*
X100406086Y-89685354D01*
X100406093Y-89685350D01*
X100521187Y-89599190D01*
X100521190Y-89599187D01*
X100607350Y-89484093D01*
X100607354Y-89484086D01*
X100657596Y-89349379D01*
X100657598Y-89349372D01*
X100663999Y-89289844D01*
X100664000Y-89289827D01*
X100664000Y-88642000D01*
X99747012Y-88642000D01*
X99779925Y-88584993D01*
X99814000Y-88457826D01*
X99814000Y-88326174D01*
X99779925Y-88199007D01*
X99747012Y-88142000D01*
X100664000Y-88142000D01*
X100664000Y-87494172D01*
X100663999Y-87494155D01*
X100657598Y-87434627D01*
X100657596Y-87434620D01*
X100607354Y-87299913D01*
X100607350Y-87299906D01*
X100521190Y-87184812D01*
X100521187Y-87184809D01*
X100406093Y-87098649D01*
X100406088Y-87098646D01*
X100274528Y-87049577D01*
X100218595Y-87007705D01*
X100194178Y-86942241D01*
X100207304Y-86881902D01*
X103299500Y-86881902D01*
X103299500Y-87118097D01*
X103336446Y-87351368D01*
X103409433Y-87575996D01*
X103483719Y-87721789D01*
X103516657Y-87786433D01*
X103655483Y-87977510D01*
X103822490Y-88144517D01*
X103857127Y-88169683D01*
X103899792Y-88225013D01*
X103905771Y-88294626D01*
X103873165Y-88356421D01*
X103857130Y-88370315D01*
X103839365Y-88383222D01*
X103822488Y-88395484D01*
X103655485Y-88562487D01*
X103655485Y-88562488D01*
X103655483Y-88562490D01*
X103648863Y-88571602D01*
X103516657Y-88753566D01*
X103409433Y-88964003D01*
X103336446Y-89188631D01*
X103299500Y-89421902D01*
X103299500Y-89658097D01*
X103336446Y-89891368D01*
X103409433Y-90115996D01*
X103463338Y-90221789D01*
X103516657Y-90326433D01*
X103655483Y-90517510D01*
X103822490Y-90684517D01*
X103857127Y-90709683D01*
X103899792Y-90765013D01*
X103905771Y-90834626D01*
X103873165Y-90896421D01*
X103857130Y-90910315D01*
X103839365Y-90923222D01*
X103822488Y-90935484D01*
X103655485Y-91102487D01*
X103655485Y-91102488D01*
X103655483Y-91102490D01*
X103615517Y-91157498D01*
X103516657Y-91293566D01*
X103409433Y-91504003D01*
X103336446Y-91728631D01*
X103299500Y-91961902D01*
X103299500Y-92198097D01*
X103336446Y-92431368D01*
X103409433Y-92655996D01*
X103493588Y-92821158D01*
X103516657Y-92866433D01*
X103556873Y-92921786D01*
X103606549Y-92990158D01*
X103630029Y-93055965D01*
X103614204Y-93124019D01*
X103565255Y-93171589D01*
X103565454Y-93171953D01*
X103564146Y-93172667D01*
X103564098Y-93172714D01*
X103563885Y-93172809D01*
X103557664Y-93176206D01*
X103442455Y-93262452D01*
X103442452Y-93262455D01*
X103356206Y-93377664D01*
X103356202Y-93377671D01*
X103305908Y-93512517D01*
X103299501Y-93572116D01*
X103299501Y-93572123D01*
X103299500Y-93572135D01*
X103299500Y-95667870D01*
X103299501Y-95667876D01*
X103305908Y-95727483D01*
X103356202Y-95862328D01*
X103356206Y-95862335D01*
X103442452Y-95977544D01*
X103442455Y-95977547D01*
X103557664Y-96063793D01*
X103557671Y-96063797D01*
X103692517Y-96114091D01*
X103692516Y-96114091D01*
X103699444Y-96114835D01*
X103752127Y-96120500D01*
X105847872Y-96120499D01*
X105907483Y-96114091D01*
X106042331Y-96063796D01*
X106157546Y-95977546D01*
X106243796Y-95862331D01*
X106259155Y-95821153D01*
X122099500Y-95821153D01*
X122099500Y-95978846D01*
X122130261Y-96133489D01*
X122130264Y-96133501D01*
X122190602Y-96279172D01*
X122190609Y-96279185D01*
X122278210Y-96410288D01*
X122278213Y-96410292D01*
X122389707Y-96521786D01*
X122389711Y-96521789D01*
X122520814Y-96609390D01*
X122520827Y-96609397D01*
X122666498Y-96669735D01*
X122666503Y-96669737D01*
X122666507Y-96669737D01*
X122666508Y-96669738D01*
X122709967Y-96678383D01*
X122771878Y-96710768D01*
X122806452Y-96771484D01*
X122802712Y-96841253D01*
X122761845Y-96897925D01*
X122709967Y-96921617D01*
X122666508Y-96930261D01*
X122666498Y-96930264D01*
X122520827Y-96990602D01*
X122520814Y-96990609D01*
X122389711Y-97078210D01*
X122389707Y-97078213D01*
X122278213Y-97189707D01*
X122278210Y-97189711D01*
X122190609Y-97320814D01*
X122190602Y-97320827D01*
X122130264Y-97466498D01*
X122130261Y-97466510D01*
X122099500Y-97621153D01*
X122099500Y-97778846D01*
X122130261Y-97933489D01*
X122130264Y-97933501D01*
X122190602Y-98079172D01*
X122190609Y-98079185D01*
X122278210Y-98210288D01*
X122278213Y-98210292D01*
X122389707Y-98321786D01*
X122389711Y-98321789D01*
X122520814Y-98409390D01*
X122520827Y-98409397D01*
X122658683Y-98466498D01*
X122666503Y-98469737D01*
X122821153Y-98500499D01*
X122821156Y-98500500D01*
X122821158Y-98500500D01*
X122978844Y-98500500D01*
X122978845Y-98500499D01*
X122989179Y-98498443D01*
X123014287Y-98493450D01*
X123014292Y-98493449D01*
X123099800Y-98476439D01*
X123133497Y-98469737D01*
X123279179Y-98409394D01*
X123410289Y-98321789D01*
X123521789Y-98210289D01*
X123609394Y-98079179D01*
X123669737Y-97933497D01*
X123700500Y-97778842D01*
X123700500Y-97621158D01*
X123700500Y-97621155D01*
X123700499Y-97621153D01*
X123700432Y-97620814D01*
X123669737Y-97466503D01*
X123650955Y-97421158D01*
X123609397Y-97320827D01*
X123609390Y-97320814D01*
X123521789Y-97189711D01*
X123521786Y-97189707D01*
X123410292Y-97078213D01*
X123410288Y-97078210D01*
X123279185Y-96990609D01*
X123279172Y-96990602D01*
X123133501Y-96930264D01*
X123133489Y-96930261D01*
X123090033Y-96921617D01*
X123028122Y-96889232D01*
X122993548Y-96828517D01*
X122997287Y-96758747D01*
X123038154Y-96702075D01*
X123090033Y-96678383D01*
X123107940Y-96674820D01*
X123133497Y-96669737D01*
X123250790Y-96621153D01*
X131999500Y-96621153D01*
X131999500Y-96778846D01*
X132030261Y-96933489D01*
X132030264Y-96933501D01*
X132090602Y-97079172D01*
X132090609Y-97079185D01*
X132178210Y-97210288D01*
X132178213Y-97210292D01*
X132289707Y-97321786D01*
X132289711Y-97321789D01*
X132420814Y-97409390D01*
X132420827Y-97409397D01*
X132558683Y-97466498D01*
X132566503Y-97469737D01*
X132721153Y-97500499D01*
X132721156Y-97500500D01*
X132721158Y-97500500D01*
X132878844Y-97500500D01*
X132878845Y-97500499D01*
X133033497Y-97469737D01*
X133150790Y-97421153D01*
X139499500Y-97421153D01*
X139499500Y-97578846D01*
X139530261Y-97733489D01*
X139530264Y-97733501D01*
X139590602Y-97879172D01*
X139590609Y-97879185D01*
X139678210Y-98010288D01*
X139678213Y-98010292D01*
X139789707Y-98121786D01*
X139789711Y-98121789D01*
X139920814Y-98209390D01*
X139920827Y-98209397D01*
X140066498Y-98269735D01*
X140066503Y-98269737D01*
X140221153Y-98300499D01*
X140221156Y-98300500D01*
X140221158Y-98300500D01*
X140378844Y-98300500D01*
X140378845Y-98300499D01*
X140533497Y-98269737D01*
X140679179Y-98209394D01*
X140810289Y-98121789D01*
X140921789Y-98010289D01*
X141009394Y-97879179D01*
X141069737Y-97733497D01*
X141100500Y-97578842D01*
X141100500Y-97421158D01*
X141100500Y-97421155D01*
X141100499Y-97421153D01*
X141080734Y-97321788D01*
X141069737Y-97266503D01*
X141069735Y-97266498D01*
X141009397Y-97120827D01*
X141009390Y-97120814D01*
X140921789Y-96989711D01*
X140921786Y-96989707D01*
X140810292Y-96878213D01*
X140810288Y-96878210D01*
X140679185Y-96790609D01*
X140679172Y-96790602D01*
X140533501Y-96730264D01*
X140533489Y-96730261D01*
X140378845Y-96699500D01*
X140378842Y-96699500D01*
X140221158Y-96699500D01*
X140221155Y-96699500D01*
X140066510Y-96730261D01*
X140066498Y-96730264D01*
X139920827Y-96790602D01*
X139920814Y-96790609D01*
X139789711Y-96878210D01*
X139789707Y-96878213D01*
X139678213Y-96989707D01*
X139678210Y-96989711D01*
X139590609Y-97120814D01*
X139590602Y-97120827D01*
X139530264Y-97266498D01*
X139530261Y-97266510D01*
X139499500Y-97421153D01*
X133150790Y-97421153D01*
X133179179Y-97409394D01*
X133310289Y-97321789D01*
X133421789Y-97210289D01*
X133509394Y-97079179D01*
X133569737Y-96933497D01*
X133600500Y-96778842D01*
X133600500Y-96621158D01*
X133600500Y-96621155D01*
X133600499Y-96621153D01*
X133580734Y-96521789D01*
X133569737Y-96466503D01*
X133546454Y-96410292D01*
X133509397Y-96320827D01*
X133509390Y-96320814D01*
X133421789Y-96189711D01*
X133421786Y-96189707D01*
X133310292Y-96078213D01*
X133310288Y-96078210D01*
X133179185Y-95990609D01*
X133179172Y-95990602D01*
X133033501Y-95930264D01*
X133033489Y-95930261D01*
X132878845Y-95899500D01*
X132878842Y-95899500D01*
X132721158Y-95899500D01*
X132721155Y-95899500D01*
X132566510Y-95930261D01*
X132566498Y-95930264D01*
X132420827Y-95990602D01*
X132420814Y-95990609D01*
X132289711Y-96078210D01*
X132289707Y-96078213D01*
X132178213Y-96189707D01*
X132178210Y-96189711D01*
X132090609Y-96320814D01*
X132090602Y-96320827D01*
X132030264Y-96466498D01*
X132030261Y-96466510D01*
X131999500Y-96621153D01*
X123250790Y-96621153D01*
X123279179Y-96609394D01*
X123410289Y-96521789D01*
X123521789Y-96410289D01*
X123580811Y-96321956D01*
X123634421Y-96277152D01*
X123703746Y-96268445D01*
X123766774Y-96298599D01*
X123773867Y-96306017D01*
X123773903Y-96305982D01*
X123889707Y-96421786D01*
X123889711Y-96421789D01*
X124020814Y-96509390D01*
X124020827Y-96509397D01*
X124166498Y-96569735D01*
X124166503Y-96569737D01*
X124321153Y-96600499D01*
X124321156Y-96600500D01*
X124321158Y-96600500D01*
X124478844Y-96600500D01*
X124478845Y-96600499D01*
X124633497Y-96569737D01*
X124779179Y-96509394D01*
X124910289Y-96421789D01*
X125021789Y-96310289D01*
X125109394Y-96179179D01*
X125169737Y-96033497D01*
X125200500Y-95878842D01*
X125200500Y-95721158D01*
X125200500Y-95721155D01*
X125200499Y-95721153D01*
X125177894Y-95607512D01*
X125169737Y-95566503D01*
X125150812Y-95520814D01*
X125109397Y-95420827D01*
X125109390Y-95420814D01*
X125021789Y-95289711D01*
X125021786Y-95289707D01*
X124910292Y-95178213D01*
X124910288Y-95178210D01*
X124779185Y-95090609D01*
X124779172Y-95090602D01*
X124633501Y-95030264D01*
X124633489Y-95030261D01*
X124478845Y-94999500D01*
X124478842Y-94999500D01*
X124321158Y-94999500D01*
X124321155Y-94999500D01*
X124166510Y-95030261D01*
X124166498Y-95030264D01*
X124020827Y-95090602D01*
X124020814Y-95090609D01*
X123889711Y-95178210D01*
X123889707Y-95178213D01*
X123778213Y-95289707D01*
X123778210Y-95289711D01*
X123719189Y-95378042D01*
X123665576Y-95422847D01*
X123596251Y-95431554D01*
X123533224Y-95401399D01*
X123526132Y-95393982D01*
X123526097Y-95394018D01*
X123410292Y-95278213D01*
X123410288Y-95278210D01*
X123279185Y-95190609D01*
X123279172Y-95190602D01*
X123133501Y-95130264D01*
X123133489Y-95130261D01*
X122978845Y-95099500D01*
X122978842Y-95099500D01*
X122821158Y-95099500D01*
X122821155Y-95099500D01*
X122666510Y-95130261D01*
X122666498Y-95130264D01*
X122520827Y-95190602D01*
X122520814Y-95190609D01*
X122389711Y-95278210D01*
X122389707Y-95278213D01*
X122278213Y-95389707D01*
X122278210Y-95389711D01*
X122190609Y-95520814D01*
X122190602Y-95520827D01*
X122130264Y-95666498D01*
X122130261Y-95666510D01*
X122099500Y-95821153D01*
X106259155Y-95821153D01*
X106279456Y-95766723D01*
X106294091Y-95727482D01*
X106294771Y-95721155D01*
X106300500Y-95667873D01*
X106300499Y-93572128D01*
X106294091Y-93512517D01*
X106291627Y-93505912D01*
X106270807Y-93450090D01*
X106243796Y-93377669D01*
X106243792Y-93377664D01*
X106243792Y-93377663D01*
X106201488Y-93321153D01*
X122599500Y-93321153D01*
X122599500Y-93478846D01*
X122630261Y-93633489D01*
X122630264Y-93633501D01*
X122690602Y-93779172D01*
X122690609Y-93779185D01*
X122778210Y-93910288D01*
X122778213Y-93910292D01*
X122889707Y-94021786D01*
X122889711Y-94021789D01*
X123020814Y-94109390D01*
X123020827Y-94109397D01*
X123166498Y-94169735D01*
X123166503Y-94169737D01*
X123321153Y-94200499D01*
X123321156Y-94200500D01*
X123321158Y-94200500D01*
X123478844Y-94200500D01*
X123478845Y-94200499D01*
X123633497Y-94169737D01*
X123779179Y-94109394D01*
X123910289Y-94021789D01*
X124021789Y-93910289D01*
X124109394Y-93779179D01*
X124169737Y-93633497D01*
X124200500Y-93478842D01*
X124200500Y-93321158D01*
X124200500Y-93321155D01*
X124200499Y-93321153D01*
X124194169Y-93289331D01*
X124169737Y-93166503D01*
X124142398Y-93100500D01*
X124109397Y-93020827D01*
X124109390Y-93020814D01*
X124021789Y-92889711D01*
X124021786Y-92889707D01*
X123910292Y-92778213D01*
X123910288Y-92778210D01*
X123779185Y-92690609D01*
X123779172Y-92690602D01*
X123633501Y-92630264D01*
X123633489Y-92630261D01*
X123478845Y-92599500D01*
X123478842Y-92599500D01*
X123321158Y-92599500D01*
X123321155Y-92599500D01*
X123166510Y-92630261D01*
X123166498Y-92630264D01*
X123020827Y-92690602D01*
X123020814Y-92690609D01*
X122889711Y-92778210D01*
X122889707Y-92778213D01*
X122778213Y-92889707D01*
X122778210Y-92889711D01*
X122690609Y-93020814D01*
X122690602Y-93020827D01*
X122630264Y-93166498D01*
X122630261Y-93166510D01*
X122599500Y-93321153D01*
X106201488Y-93321153D01*
X106157547Y-93262455D01*
X106157544Y-93262452D01*
X106042335Y-93176206D01*
X106034546Y-93171953D01*
X106036331Y-93168683D01*
X105994448Y-93137284D01*
X105970078Y-93071803D01*
X105984978Y-93003540D01*
X105993441Y-92990171D01*
X106083343Y-92866433D01*
X106190568Y-92655992D01*
X106263553Y-92431368D01*
X106270151Y-92389711D01*
X106300500Y-92198097D01*
X106300500Y-91961902D01*
X106271506Y-91778846D01*
X106263553Y-91728632D01*
X106263552Y-91728628D01*
X106263552Y-91728627D01*
X106239104Y-91653384D01*
X106228631Y-91621153D01*
X123399500Y-91621153D01*
X123399500Y-91778846D01*
X123430261Y-91933489D01*
X123430264Y-91933501D01*
X123490602Y-92079172D01*
X123490609Y-92079185D01*
X123578210Y-92210288D01*
X123578213Y-92210292D01*
X123689707Y-92321786D01*
X123689711Y-92321789D01*
X123820814Y-92409390D01*
X123820827Y-92409397D01*
X123966498Y-92469735D01*
X123966503Y-92469737D01*
X124121153Y-92500499D01*
X124121156Y-92500500D01*
X124121158Y-92500500D01*
X124278844Y-92500500D01*
X124278845Y-92500499D01*
X124433497Y-92469737D01*
X124579179Y-92409394D01*
X124710289Y-92321789D01*
X124821789Y-92210289D01*
X124909394Y-92079179D01*
X124969737Y-91933497D01*
X125000500Y-91778842D01*
X125000500Y-91621158D01*
X125000500Y-91621155D01*
X124984209Y-91539258D01*
X124984209Y-91539257D01*
X124980608Y-91521153D01*
X129699500Y-91521153D01*
X129699500Y-91678846D01*
X129730261Y-91833489D01*
X129730264Y-91833501D01*
X129790602Y-91979172D01*
X129790609Y-91979185D01*
X129878210Y-92110288D01*
X129878213Y-92110292D01*
X129881473Y-92113552D01*
X129914958Y-92174875D01*
X129909974Y-92244567D01*
X129908354Y-92248684D01*
X129880262Y-92316506D01*
X129880260Y-92316511D01*
X129849500Y-92471153D01*
X129849500Y-92628846D01*
X129880261Y-92783489D01*
X129880264Y-92783501D01*
X129940602Y-92929172D01*
X129940609Y-92929185D01*
X130028210Y-93060288D01*
X130028213Y-93060292D01*
X130139707Y-93171786D01*
X130139711Y-93171789D01*
X130270814Y-93259390D01*
X130270827Y-93259397D01*
X130416498Y-93319735D01*
X130416503Y-93319737D01*
X130571153Y-93350499D01*
X130571156Y-93350500D01*
X130571158Y-93350500D01*
X130728844Y-93350500D01*
X130728845Y-93350499D01*
X130883497Y-93319737D01*
X130894591Y-93315141D01*
X130964056Y-93307669D01*
X131026537Y-93338940D01*
X131045149Y-93360809D01*
X131078210Y-93410288D01*
X131078213Y-93410292D01*
X131189707Y-93521786D01*
X131189711Y-93521789D01*
X131320814Y-93609390D01*
X131320827Y-93609397D01*
X131412424Y-93647337D01*
X131466503Y-93669737D01*
X131621153Y-93700499D01*
X131621156Y-93700500D01*
X131621158Y-93700500D01*
X131778844Y-93700500D01*
X131778845Y-93700499D01*
X131933497Y-93669737D01*
X132057931Y-93618195D01*
X132079172Y-93609397D01*
X132079172Y-93609396D01*
X132079179Y-93609394D01*
X132210289Y-93521789D01*
X132321789Y-93410289D01*
X132409394Y-93279179D01*
X132416323Y-93262452D01*
X132452047Y-93176204D01*
X132469737Y-93133497D01*
X132500500Y-92978842D01*
X132500500Y-92821158D01*
X132500500Y-92821155D01*
X132500499Y-92821153D01*
X132498338Y-92810288D01*
X132469737Y-92666503D01*
X132465383Y-92655992D01*
X132409397Y-92520827D01*
X132409390Y-92520814D01*
X132321789Y-92389711D01*
X132321786Y-92389707D01*
X132210292Y-92278213D01*
X132210288Y-92278210D01*
X132124897Y-92221153D01*
X137199500Y-92221153D01*
X137199500Y-92378846D01*
X137230261Y-92533489D01*
X137230264Y-92533501D01*
X137290602Y-92679172D01*
X137290609Y-92679185D01*
X137378210Y-92810288D01*
X137378213Y-92810292D01*
X137489707Y-92921786D01*
X137489711Y-92921789D01*
X137620814Y-93009390D01*
X137620827Y-93009397D01*
X137766498Y-93069735D01*
X137766503Y-93069737D01*
X137892920Y-93094883D01*
X137921153Y-93100499D01*
X137921156Y-93100500D01*
X137921158Y-93100500D01*
X138078844Y-93100500D01*
X138078845Y-93100499D01*
X138233497Y-93069737D01*
X138351592Y-93020821D01*
X138379172Y-93009397D01*
X138379172Y-93009396D01*
X138379179Y-93009394D01*
X138510289Y-92921789D01*
X138621789Y-92810289D01*
X138709394Y-92679179D01*
X138769737Y-92533497D01*
X138800500Y-92378842D01*
X138800500Y-92221158D01*
X138800500Y-92221155D01*
X138784209Y-92139258D01*
X138784209Y-92139257D01*
X138780607Y-92121153D01*
X139499500Y-92121153D01*
X139499500Y-92278846D01*
X139530261Y-92433489D01*
X139530264Y-92433501D01*
X139590602Y-92579172D01*
X139590609Y-92579185D01*
X139678210Y-92710288D01*
X139678213Y-92710292D01*
X139789707Y-92821786D01*
X139789711Y-92821789D01*
X139920814Y-92909390D01*
X139920827Y-92909397D01*
X140066498Y-92969735D01*
X140066503Y-92969737D01*
X140169166Y-92990158D01*
X140221153Y-93000499D01*
X140221156Y-93000500D01*
X140221158Y-93000500D01*
X140378844Y-93000500D01*
X140378845Y-93000499D01*
X140533497Y-92969737D01*
X140679179Y-92909394D01*
X140810289Y-92821789D01*
X140921789Y-92710289D01*
X141009394Y-92579179D01*
X141069737Y-92433497D01*
X141100500Y-92278842D01*
X141100500Y-92121158D01*
X141100500Y-92121155D01*
X141100499Y-92121153D01*
X141075894Y-91997457D01*
X141069737Y-91966503D01*
X141042735Y-91901313D01*
X141009397Y-91820827D01*
X141009390Y-91820814D01*
X140921789Y-91689711D01*
X140921786Y-91689707D01*
X140810292Y-91578213D01*
X140810288Y-91578210D01*
X140679185Y-91490609D01*
X140679172Y-91490602D01*
X140533501Y-91430264D01*
X140533489Y-91430261D01*
X140378845Y-91399500D01*
X140378842Y-91399500D01*
X140221158Y-91399500D01*
X140221155Y-91399500D01*
X140066510Y-91430261D01*
X140066498Y-91430264D01*
X139920827Y-91490602D01*
X139920814Y-91490609D01*
X139789711Y-91578210D01*
X139789707Y-91578213D01*
X139678213Y-91689707D01*
X139678210Y-91689711D01*
X139590609Y-91820814D01*
X139590602Y-91820827D01*
X139530264Y-91966498D01*
X139530261Y-91966510D01*
X139499500Y-92121153D01*
X138780607Y-92121153D01*
X138778446Y-92110288D01*
X138769737Y-92066503D01*
X138769735Y-92066498D01*
X138709397Y-91920827D01*
X138709390Y-91920814D01*
X138621789Y-91789711D01*
X138621786Y-91789707D01*
X138510292Y-91678213D01*
X138510288Y-91678210D01*
X138379185Y-91590609D01*
X138379172Y-91590602D01*
X138233501Y-91530264D01*
X138233489Y-91530261D01*
X138078845Y-91499500D01*
X138078842Y-91499500D01*
X137921158Y-91499500D01*
X137921155Y-91499500D01*
X137766510Y-91530261D01*
X137766498Y-91530264D01*
X137620827Y-91590602D01*
X137620814Y-91590609D01*
X137489711Y-91678210D01*
X137489707Y-91678213D01*
X137378213Y-91789707D01*
X137378210Y-91789711D01*
X137290609Y-91920814D01*
X137290602Y-91920827D01*
X137230264Y-92066498D01*
X137230261Y-92066510D01*
X137199500Y-92221153D01*
X132124897Y-92221153D01*
X132079185Y-92190609D01*
X132079172Y-92190602D01*
X131933501Y-92130264D01*
X131933489Y-92130261D01*
X131778845Y-92099500D01*
X131778842Y-92099500D01*
X131621158Y-92099500D01*
X131621155Y-92099500D01*
X131466511Y-92130260D01*
X131466501Y-92130263D01*
X131455402Y-92134861D01*
X131426044Y-92138016D01*
X131397084Y-92143822D01*
X131391690Y-92141709D01*
X131385932Y-92142328D01*
X131359523Y-92129107D01*
X131332028Y-92118337D01*
X131326794Y-92112724D01*
X131323454Y-92111052D01*
X131307483Y-92092976D01*
X131306127Y-92091102D01*
X131271789Y-92039711D01*
X131261535Y-92029457D01*
X131255738Y-92021443D01*
X131247236Y-91997457D01*
X131235041Y-91975124D01*
X131235759Y-91965079D01*
X131232395Y-91955588D01*
X131238209Y-91930815D01*
X131240025Y-91905432D01*
X131241646Y-91901313D01*
X131269737Y-91833497D01*
X131300500Y-91678842D01*
X131300500Y-91521158D01*
X131300500Y-91521155D01*
X131300499Y-91521153D01*
X131282419Y-91430261D01*
X131269737Y-91366503D01*
X131239526Y-91293566D01*
X131209397Y-91220827D01*
X131209390Y-91220814D01*
X131121789Y-91089711D01*
X131121786Y-91089707D01*
X131010292Y-90978213D01*
X131010288Y-90978210D01*
X130879185Y-90890609D01*
X130879172Y-90890602D01*
X130733501Y-90830264D01*
X130733489Y-90830261D01*
X130578845Y-90799500D01*
X130578842Y-90799500D01*
X130421158Y-90799500D01*
X130421155Y-90799500D01*
X130266510Y-90830261D01*
X130266498Y-90830264D01*
X130120827Y-90890602D01*
X130120814Y-90890609D01*
X129989711Y-90978210D01*
X129989707Y-90978213D01*
X129878213Y-91089707D01*
X129878210Y-91089711D01*
X129790609Y-91220814D01*
X129790602Y-91220827D01*
X129730264Y-91366498D01*
X129730261Y-91366510D01*
X129699500Y-91521153D01*
X124980608Y-91521153D01*
X124977196Y-91504003D01*
X124969737Y-91466503D01*
X124969735Y-91466498D01*
X124909397Y-91320827D01*
X124909390Y-91320814D01*
X124821789Y-91189711D01*
X124821786Y-91189707D01*
X124710292Y-91078213D01*
X124710288Y-91078210D01*
X124579185Y-90990609D01*
X124579172Y-90990602D01*
X124433501Y-90930264D01*
X124433489Y-90930261D01*
X124278845Y-90899500D01*
X124278842Y-90899500D01*
X124121158Y-90899500D01*
X124121155Y-90899500D01*
X123966510Y-90930261D01*
X123966498Y-90930264D01*
X123820827Y-90990602D01*
X123820814Y-90990609D01*
X123689711Y-91078210D01*
X123689707Y-91078213D01*
X123578213Y-91189707D01*
X123578210Y-91189711D01*
X123490609Y-91320814D01*
X123490602Y-91320827D01*
X123430264Y-91466498D01*
X123430261Y-91466510D01*
X123399500Y-91621153D01*
X106228631Y-91621153D01*
X106190566Y-91504003D01*
X106120503Y-91366498D01*
X106083343Y-91293567D01*
X105944517Y-91102490D01*
X105777510Y-90935483D01*
X105742872Y-90910317D01*
X105700207Y-90854989D01*
X105694228Y-90785375D01*
X105726833Y-90723580D01*
X105742873Y-90709682D01*
X105777510Y-90684517D01*
X105944517Y-90517510D01*
X106083343Y-90326433D01*
X106190568Y-90115992D01*
X106263553Y-89891368D01*
X106272720Y-89833489D01*
X106300500Y-89658097D01*
X106300500Y-89421902D01*
X106267803Y-89215464D01*
X106265695Y-89202153D01*
X119849500Y-89202153D01*
X119849500Y-89359846D01*
X119880261Y-89514489D01*
X119880264Y-89514501D01*
X119940602Y-89660172D01*
X119940609Y-89660185D01*
X120028210Y-89791288D01*
X120028213Y-89791292D01*
X120139707Y-89902786D01*
X120139711Y-89902789D01*
X120270814Y-89990390D01*
X120270827Y-89990397D01*
X120416498Y-90050735D01*
X120416503Y-90050737D01*
X120571153Y-90081499D01*
X120571156Y-90081500D01*
X120571158Y-90081500D01*
X120728844Y-90081500D01*
X120728845Y-90081499D01*
X120883497Y-90050737D01*
X121029179Y-89990394D01*
X121160289Y-89902789D01*
X121271789Y-89791289D01*
X121359394Y-89660179D01*
X121360259Y-89658092D01*
X121384656Y-89599190D01*
X121416980Y-89521153D01*
X131699500Y-89521153D01*
X131699500Y-89678846D01*
X131730261Y-89833489D01*
X131730264Y-89833501D01*
X131790602Y-89979172D01*
X131790609Y-89979185D01*
X131878210Y-90110288D01*
X131878213Y-90110292D01*
X131989707Y-90221786D01*
X131989711Y-90221789D01*
X132120814Y-90309390D01*
X132120827Y-90309397D01*
X132266498Y-90369735D01*
X132266503Y-90369737D01*
X132421153Y-90400499D01*
X132421156Y-90400500D01*
X132421158Y-90400500D01*
X132578844Y-90400500D01*
X132578845Y-90400499D01*
X132733497Y-90369737D01*
X132879179Y-90309394D01*
X133010289Y-90221789D01*
X133121789Y-90110289D01*
X133209394Y-89979179D01*
X133269737Y-89833497D01*
X133300500Y-89678842D01*
X133300500Y-89521158D01*
X133300500Y-89521155D01*
X133300499Y-89521153D01*
X133280758Y-89421908D01*
X133269737Y-89366503D01*
X133209794Y-89221786D01*
X133209397Y-89220827D01*
X133209390Y-89220814D01*
X133121789Y-89089711D01*
X133121786Y-89089707D01*
X133010292Y-88978213D01*
X133010288Y-88978210D01*
X132879185Y-88890609D01*
X132879172Y-88890602D01*
X132733501Y-88830264D01*
X132733489Y-88830261D01*
X132578845Y-88799500D01*
X132578842Y-88799500D01*
X132421158Y-88799500D01*
X132421155Y-88799500D01*
X132266510Y-88830261D01*
X132266498Y-88830264D01*
X132120827Y-88890602D01*
X132120814Y-88890609D01*
X131989711Y-88978210D01*
X131989707Y-88978213D01*
X131878213Y-89089707D01*
X131878210Y-89089711D01*
X131790609Y-89220814D01*
X131790602Y-89220827D01*
X131730264Y-89366498D01*
X131730261Y-89366510D01*
X131699500Y-89521153D01*
X121416980Y-89521153D01*
X121419737Y-89514497D01*
X121449176Y-89366498D01*
X121450500Y-89359844D01*
X121450500Y-89202155D01*
X121450499Y-89202153D01*
X121447809Y-89188631D01*
X121419737Y-89047503D01*
X121391439Y-88979185D01*
X121359397Y-88901827D01*
X121359390Y-88901814D01*
X121271789Y-88770711D01*
X121271786Y-88770707D01*
X121160292Y-88659213D01*
X121160288Y-88659210D01*
X121029185Y-88571609D01*
X121029172Y-88571602D01*
X120883501Y-88511264D01*
X120883489Y-88511261D01*
X120728845Y-88480500D01*
X120728842Y-88480500D01*
X120571158Y-88480500D01*
X120571155Y-88480500D01*
X120416510Y-88511261D01*
X120416498Y-88511264D01*
X120270827Y-88571602D01*
X120270814Y-88571609D01*
X120139711Y-88659210D01*
X120139707Y-88659213D01*
X120028213Y-88770707D01*
X120028210Y-88770711D01*
X119940609Y-88901814D01*
X119940602Y-88901827D01*
X119880264Y-89047498D01*
X119880261Y-89047510D01*
X119849500Y-89202153D01*
X106265695Y-89202153D01*
X106263553Y-89188631D01*
X106229689Y-89084412D01*
X106190568Y-88964008D01*
X106190566Y-88964005D01*
X106190566Y-88964003D01*
X106122422Y-88830264D01*
X106083343Y-88753567D01*
X105944517Y-88562490D01*
X105777510Y-88395483D01*
X105742872Y-88370317D01*
X105700207Y-88314989D01*
X105694228Y-88245375D01*
X105726833Y-88183580D01*
X105742873Y-88169682D01*
X105777510Y-88144517D01*
X105944517Y-87977510D01*
X106083343Y-87786433D01*
X106190568Y-87575992D01*
X106263553Y-87351368D01*
X106266383Y-87333501D01*
X106300500Y-87118097D01*
X106300500Y-87021153D01*
X113299500Y-87021153D01*
X113299500Y-87178846D01*
X113330261Y-87333489D01*
X113330264Y-87333501D01*
X113390602Y-87479172D01*
X113390609Y-87479185D01*
X113478210Y-87610288D01*
X113478213Y-87610292D01*
X113589707Y-87721786D01*
X113589711Y-87721789D01*
X113720814Y-87809390D01*
X113720827Y-87809397D01*
X113859557Y-87866860D01*
X113866503Y-87869737D01*
X113978426Y-87892000D01*
X114021153Y-87900499D01*
X114021156Y-87900500D01*
X114021158Y-87900500D01*
X114178844Y-87900500D01*
X114178845Y-87900499D01*
X114333497Y-87869737D01*
X114479179Y-87809394D01*
X114610289Y-87721789D01*
X114721789Y-87610289D01*
X114809394Y-87479179D01*
X114869737Y-87333497D01*
X114900500Y-87178842D01*
X114900500Y-87021158D01*
X114900500Y-87021155D01*
X114900499Y-87021153D01*
X114882204Y-86929179D01*
X114869737Y-86866503D01*
X114833305Y-86778548D01*
X114809397Y-86720827D01*
X114809390Y-86720814D01*
X114721789Y-86589711D01*
X114721786Y-86589707D01*
X114610292Y-86478213D01*
X114610288Y-86478210D01*
X114599727Y-86471153D01*
X133449500Y-86471153D01*
X133449500Y-86628846D01*
X133480261Y-86783489D01*
X133480264Y-86783501D01*
X133540602Y-86929172D01*
X133540609Y-86929185D01*
X133628210Y-87060288D01*
X133628213Y-87060292D01*
X133739707Y-87171786D01*
X133739711Y-87171789D01*
X133870814Y-87259390D01*
X133870827Y-87259397D01*
X133968626Y-87299906D01*
X134016503Y-87319737D01*
X134171153Y-87350499D01*
X134171156Y-87350500D01*
X134171158Y-87350500D01*
X134328844Y-87350500D01*
X134328845Y-87350499D01*
X134483497Y-87319737D01*
X134629179Y-87259394D01*
X134760289Y-87171789D01*
X134871789Y-87060289D01*
X134959394Y-86929179D01*
X135019737Y-86783497D01*
X135050500Y-86628842D01*
X135050500Y-86471158D01*
X135050500Y-86471155D01*
X135036795Y-86402258D01*
X135036795Y-86402257D01*
X135033194Y-86384153D01*
X137436500Y-86384153D01*
X137436500Y-86541846D01*
X137467261Y-86696489D01*
X137467264Y-86696501D01*
X137527602Y-86842172D01*
X137527609Y-86842185D01*
X137615210Y-86973288D01*
X137615213Y-86973292D01*
X137726707Y-87084786D01*
X137726711Y-87084789D01*
X137857814Y-87172390D01*
X137857827Y-87172397D01*
X137936498Y-87204983D01*
X138003503Y-87232737D01*
X138137496Y-87259390D01*
X138158153Y-87263499D01*
X138158156Y-87263500D01*
X138158158Y-87263500D01*
X138315844Y-87263500D01*
X138315845Y-87263499D01*
X138470497Y-87232737D01*
X138586206Y-87184809D01*
X138616172Y-87172397D01*
X138616172Y-87172396D01*
X138616179Y-87172394D01*
X138747289Y-87084789D01*
X138858789Y-86973289D01*
X138946394Y-86842179D01*
X139006737Y-86696497D01*
X139014728Y-86656324D01*
X139014792Y-86656000D01*
X150471647Y-86656000D01*
X151642000Y-86656000D01*
X151642000Y-85881000D01*
X151366041Y-85881000D01*
X151168025Y-85920387D01*
X151168016Y-85920390D01*
X150981486Y-85997652D01*
X150981473Y-85997659D01*
X150813600Y-86109829D01*
X150813596Y-86109832D01*
X150670832Y-86252596D01*
X150670829Y-86252600D01*
X150558659Y-86420473D01*
X150558652Y-86420486D01*
X150481390Y-86607016D01*
X150481387Y-86607025D01*
X150471647Y-86656000D01*
X139014792Y-86656000D01*
X139037500Y-86541844D01*
X139037500Y-86384155D01*
X139037499Y-86384153D01*
X139026780Y-86330264D01*
X139006737Y-86229503D01*
X139000136Y-86213566D01*
X138946397Y-86083827D01*
X138946390Y-86083814D01*
X138858789Y-85952711D01*
X138858786Y-85952707D01*
X138747292Y-85841213D01*
X138747288Y-85841210D01*
X138616185Y-85753609D01*
X138616172Y-85753602D01*
X138470501Y-85693264D01*
X138470489Y-85693261D01*
X138315845Y-85662500D01*
X138315842Y-85662500D01*
X138158158Y-85662500D01*
X138158155Y-85662500D01*
X138003510Y-85693261D01*
X138003498Y-85693264D01*
X137857827Y-85753602D01*
X137857814Y-85753609D01*
X137726711Y-85841210D01*
X137726707Y-85841213D01*
X137615213Y-85952707D01*
X137615210Y-85952711D01*
X137527609Y-86083814D01*
X137527602Y-86083827D01*
X137467264Y-86229498D01*
X137467261Y-86229510D01*
X137436500Y-86384153D01*
X135033194Y-86384153D01*
X135022474Y-86330263D01*
X135019737Y-86316503D01*
X134983699Y-86229498D01*
X134959397Y-86170827D01*
X134959390Y-86170814D01*
X134871789Y-86039711D01*
X134871786Y-86039707D01*
X134760292Y-85928213D01*
X134760288Y-85928210D01*
X134629185Y-85840609D01*
X134629172Y-85840602D01*
X134483501Y-85780264D01*
X134483489Y-85780261D01*
X134328845Y-85749500D01*
X134328842Y-85749500D01*
X134171158Y-85749500D01*
X134171155Y-85749500D01*
X134016510Y-85780261D01*
X134016498Y-85780264D01*
X133870827Y-85840602D01*
X133870814Y-85840609D01*
X133739711Y-85928210D01*
X133739707Y-85928213D01*
X133628213Y-86039707D01*
X133628210Y-86039711D01*
X133540609Y-86170814D01*
X133540602Y-86170827D01*
X133480264Y-86316498D01*
X133480261Y-86316510D01*
X133449500Y-86471153D01*
X114599727Y-86471153D01*
X114479185Y-86390609D01*
X114479172Y-86390602D01*
X114333501Y-86330264D01*
X114333489Y-86330261D01*
X114178845Y-86299500D01*
X114178842Y-86299500D01*
X114021158Y-86299500D01*
X114021155Y-86299500D01*
X113866510Y-86330261D01*
X113866498Y-86330264D01*
X113720827Y-86390602D01*
X113720814Y-86390609D01*
X113589711Y-86478210D01*
X113589707Y-86478213D01*
X113478213Y-86589707D01*
X113478210Y-86589711D01*
X113390609Y-86720814D01*
X113390602Y-86720827D01*
X113330264Y-86866498D01*
X113330261Y-86866510D01*
X113299500Y-87021153D01*
X106300500Y-87021153D01*
X106300500Y-86881902D01*
X106263553Y-86648631D01*
X106208180Y-86478213D01*
X106190568Y-86424008D01*
X106190566Y-86424005D01*
X106190566Y-86424003D01*
X106091466Y-86229510D01*
X106083343Y-86213567D01*
X105944517Y-86022490D01*
X105777510Y-85855483D01*
X105586433Y-85716657D01*
X105480144Y-85662500D01*
X105407628Y-85625551D01*
X105407626Y-85625549D01*
X105375999Y-85609434D01*
X105151368Y-85536446D01*
X105054810Y-85521153D01*
X128599500Y-85521153D01*
X128599500Y-85678846D01*
X128630261Y-85833489D01*
X128630264Y-85833501D01*
X128690602Y-85979172D01*
X128690609Y-85979185D01*
X128778210Y-86110288D01*
X128778213Y-86110292D01*
X128889707Y-86221786D01*
X128889711Y-86221789D01*
X129020814Y-86309390D01*
X129020827Y-86309397D01*
X129120070Y-86350504D01*
X129166503Y-86369737D01*
X129321153Y-86400499D01*
X129321156Y-86400500D01*
X129321158Y-86400500D01*
X129478844Y-86400500D01*
X129478845Y-86400499D01*
X129633497Y-86369737D01*
X129779179Y-86309394D01*
X129910289Y-86221789D01*
X130021789Y-86110289D01*
X130109394Y-85979179D01*
X130169737Y-85833497D01*
X130200500Y-85678842D01*
X130200500Y-85521158D01*
X130200500Y-85521155D01*
X130200499Y-85521153D01*
X130169738Y-85366510D01*
X130169737Y-85366503D01*
X130137732Y-85289235D01*
X130109397Y-85220827D01*
X130109390Y-85220814D01*
X130021789Y-85089711D01*
X130021786Y-85089707D01*
X129910292Y-84978213D01*
X129910288Y-84978210D01*
X129779185Y-84890609D01*
X129779172Y-84890602D01*
X129633501Y-84830264D01*
X129633489Y-84830261D01*
X129478845Y-84799500D01*
X129478842Y-84799500D01*
X129321158Y-84799500D01*
X129321155Y-84799500D01*
X129166510Y-84830261D01*
X129166498Y-84830264D01*
X129020827Y-84890602D01*
X129020814Y-84890609D01*
X128889711Y-84978210D01*
X128889707Y-84978213D01*
X128778213Y-85089707D01*
X128778210Y-85089711D01*
X128690609Y-85220814D01*
X128690602Y-85220827D01*
X128630264Y-85366498D01*
X128630261Y-85366510D01*
X128599500Y-85521153D01*
X105054810Y-85521153D01*
X104918097Y-85499500D01*
X104918092Y-85499500D01*
X104681908Y-85499500D01*
X104681903Y-85499500D01*
X104448631Y-85536446D01*
X104224003Y-85609433D01*
X104013566Y-85716657D01*
X103962711Y-85753606D01*
X103822490Y-85855483D01*
X103822488Y-85855485D01*
X103822487Y-85855485D01*
X103655485Y-86022487D01*
X103655485Y-86022488D01*
X103655483Y-86022490D01*
X103610923Y-86083821D01*
X103516657Y-86213566D01*
X103409433Y-86424003D01*
X103336446Y-86648631D01*
X103299500Y-86881902D01*
X100207304Y-86881902D01*
X100209030Y-86873968D01*
X100230178Y-86845717D01*
X100344104Y-86731792D01*
X100352071Y-86720827D01*
X100469048Y-86559820D01*
X100469047Y-86559820D01*
X100469051Y-86559816D01*
X100565557Y-86370412D01*
X100631246Y-86168243D01*
X100664500Y-85958287D01*
X100664500Y-85745713D01*
X100631246Y-85535757D01*
X100565557Y-85333588D01*
X100469051Y-85144184D01*
X100469049Y-85144181D01*
X100469048Y-85144179D01*
X100344109Y-84972213D01*
X100221896Y-84850000D01*
X120100000Y-84850000D01*
X122190000Y-84850000D01*
X122190000Y-84409888D01*
X136310765Y-84409888D01*
X136310765Y-84567581D01*
X136341526Y-84722224D01*
X136341529Y-84722236D01*
X136401867Y-84867907D01*
X136401874Y-84867920D01*
X136489475Y-84999023D01*
X136489478Y-84999027D01*
X136600972Y-85110521D01*
X136600976Y-85110524D01*
X136732079Y-85198125D01*
X136732092Y-85198132D01*
X136877763Y-85258470D01*
X136877768Y-85258472D01*
X137032418Y-85289234D01*
X137032421Y-85289235D01*
X137032423Y-85289235D01*
X137190109Y-85289235D01*
X137190110Y-85289234D01*
X137344762Y-85258472D01*
X137490444Y-85198129D01*
X137621554Y-85110524D01*
X137733054Y-84999024D01*
X137820659Y-84867914D01*
X137881002Y-84722232D01*
X137911765Y-84567577D01*
X137911765Y-84409893D01*
X137911765Y-84409890D01*
X137911764Y-84409888D01*
X137900993Y-84355738D01*
X137881002Y-84255238D01*
X137851231Y-84183363D01*
X137820662Y-84109562D01*
X137820655Y-84109549D01*
X137733054Y-83978446D01*
X137733051Y-83978442D01*
X137621557Y-83866948D01*
X137621553Y-83866945D01*
X137490450Y-83779344D01*
X137490437Y-83779337D01*
X137344766Y-83718999D01*
X137344754Y-83718996D01*
X137190110Y-83688235D01*
X137190107Y-83688235D01*
X137032423Y-83688235D01*
X137032420Y-83688235D01*
X136877775Y-83718996D01*
X136877763Y-83718999D01*
X136732092Y-83779337D01*
X136732079Y-83779344D01*
X136600976Y-83866945D01*
X136600972Y-83866948D01*
X136489478Y-83978442D01*
X136489475Y-83978446D01*
X136401874Y-84109549D01*
X136401867Y-84109562D01*
X136341529Y-84255233D01*
X136341526Y-84255245D01*
X136310765Y-84409888D01*
X122190000Y-84409888D01*
X122190000Y-83221153D01*
X124399500Y-83221153D01*
X124399500Y-83378846D01*
X124430261Y-83533489D01*
X124430264Y-83533501D01*
X124490602Y-83679172D01*
X124490609Y-83679185D01*
X124578210Y-83810288D01*
X124578213Y-83810292D01*
X124689707Y-83921786D01*
X124689711Y-83921789D01*
X124820814Y-84009390D01*
X124820827Y-84009397D01*
X124966498Y-84069735D01*
X124966503Y-84069737D01*
X125066612Y-84089650D01*
X125121153Y-84100499D01*
X125121156Y-84100500D01*
X125121158Y-84100500D01*
X125278844Y-84100500D01*
X125278845Y-84100499D01*
X125433497Y-84069737D01*
X125579179Y-84009394D01*
X125710289Y-83921789D01*
X125821789Y-83810289D01*
X125909394Y-83679179D01*
X125969737Y-83533497D01*
X125974977Y-83507153D01*
X143344500Y-83507153D01*
X143344500Y-83664846D01*
X143375261Y-83819489D01*
X143375264Y-83819501D01*
X143435602Y-83965172D01*
X143435609Y-83965185D01*
X143523210Y-84096288D01*
X143523213Y-84096292D01*
X143634707Y-84207786D01*
X143634711Y-84207789D01*
X143765814Y-84295390D01*
X143765827Y-84295397D01*
X143911498Y-84355735D01*
X143911503Y-84355737D01*
X144066153Y-84386499D01*
X144066156Y-84386500D01*
X144066158Y-84386500D01*
X144223844Y-84386500D01*
X144223845Y-84386499D01*
X144378497Y-84355737D01*
X144524179Y-84295394D01*
X144655289Y-84207789D01*
X144766789Y-84096289D01*
X144854394Y-83965179D01*
X144914737Y-83819497D01*
X144945500Y-83664842D01*
X144945500Y-83507158D01*
X144945500Y-83507155D01*
X144945499Y-83507153D01*
X144919977Y-83378846D01*
X144914737Y-83352503D01*
X144860333Y-83221158D01*
X144854397Y-83206827D01*
X144854390Y-83206814D01*
X144766789Y-83075711D01*
X144766786Y-83075707D01*
X144655292Y-82964213D01*
X144655288Y-82964210D01*
X144524185Y-82876609D01*
X144524172Y-82876602D01*
X144378501Y-82816264D01*
X144378489Y-82816261D01*
X144223845Y-82785500D01*
X144223842Y-82785500D01*
X144066158Y-82785500D01*
X144066155Y-82785500D01*
X143911510Y-82816261D01*
X143911498Y-82816264D01*
X143765827Y-82876602D01*
X143765814Y-82876609D01*
X143634711Y-82964210D01*
X143634707Y-82964213D01*
X143523213Y-83075707D01*
X143523210Y-83075711D01*
X143435609Y-83206814D01*
X143435602Y-83206827D01*
X143375264Y-83352498D01*
X143375261Y-83352510D01*
X143344500Y-83507153D01*
X125974977Y-83507153D01*
X125992654Y-83418286D01*
X126000500Y-83378844D01*
X126000500Y-83221155D01*
X126000499Y-83221153D01*
X125997428Y-83205713D01*
X125969737Y-83066503D01*
X125940435Y-82995760D01*
X125909397Y-82920827D01*
X125909390Y-82920814D01*
X125821789Y-82789711D01*
X125821786Y-82789707D01*
X125710292Y-82678213D01*
X125710288Y-82678210D01*
X125579185Y-82590609D01*
X125579172Y-82590602D01*
X125433501Y-82530264D01*
X125433489Y-82530261D01*
X125278845Y-82499500D01*
X125278842Y-82499500D01*
X125121158Y-82499500D01*
X125121155Y-82499500D01*
X124966510Y-82530261D01*
X124966498Y-82530264D01*
X124820827Y-82590602D01*
X124820814Y-82590609D01*
X124689711Y-82678210D01*
X124689707Y-82678213D01*
X124578213Y-82789707D01*
X124578210Y-82789711D01*
X124490609Y-82920814D01*
X124490602Y-82920827D01*
X124430264Y-83066498D01*
X124430261Y-83066510D01*
X124399500Y-83221153D01*
X122190000Y-83221153D01*
X122190000Y-82950000D01*
X120100000Y-82950000D01*
X120100000Y-84850000D01*
X100221896Y-84850000D01*
X100193786Y-84821890D01*
X100021820Y-84696951D01*
X100021115Y-84696591D01*
X100013054Y-84692485D01*
X99962259Y-84644512D01*
X99945463Y-84576692D01*
X99967999Y-84510556D01*
X100013054Y-84471515D01*
X100021816Y-84467051D01*
X100132686Y-84386500D01*
X100193786Y-84342109D01*
X100193788Y-84342106D01*
X100193792Y-84342104D01*
X100344104Y-84191792D01*
X100344106Y-84191788D01*
X100344109Y-84191786D01*
X100469048Y-84019820D01*
X100469047Y-84019820D01*
X100469051Y-84019816D01*
X100565557Y-83830412D01*
X100631246Y-83628243D01*
X100664500Y-83418287D01*
X100664500Y-83205713D01*
X100631246Y-82995757D01*
X100565557Y-82793588D01*
X100469051Y-82604184D01*
X100469049Y-82604181D01*
X100469048Y-82604179D01*
X100344109Y-82432213D01*
X100193786Y-82281890D01*
X100021820Y-82156951D01*
X100021115Y-82156591D01*
X100013054Y-82152485D01*
X99962259Y-82104512D01*
X99945463Y-82036692D01*
X99967999Y-81970556D01*
X100013054Y-81931515D01*
X100021816Y-81927051D01*
X100066634Y-81894489D01*
X100193786Y-81802109D01*
X100193788Y-81802106D01*
X100193792Y-81802104D01*
X100344104Y-81651792D01*
X100344106Y-81651788D01*
X100344109Y-81651786D01*
X100469048Y-81479820D01*
X100469047Y-81479820D01*
X100469051Y-81479816D01*
X100565557Y-81290412D01*
X100588061Y-81221153D01*
X106699500Y-81221153D01*
X106699500Y-81378846D01*
X106730261Y-81533489D01*
X106730264Y-81533501D01*
X106790602Y-81679172D01*
X106790609Y-81679185D01*
X106878210Y-81810288D01*
X106878213Y-81810292D01*
X106989707Y-81921786D01*
X106989711Y-81921789D01*
X107120814Y-82009390D01*
X107120827Y-82009397D01*
X107244065Y-82060443D01*
X107266503Y-82069737D01*
X107421153Y-82100499D01*
X107421156Y-82100500D01*
X107421158Y-82100500D01*
X107578844Y-82100500D01*
X107578845Y-82100499D01*
X107733497Y-82069737D01*
X107879179Y-82009394D01*
X108010289Y-81921789D01*
X108121789Y-81810289D01*
X108209394Y-81679179D01*
X108269737Y-81533497D01*
X108300500Y-81378842D01*
X108300500Y-81221158D01*
X108300500Y-81221155D01*
X108300499Y-81221153D01*
X108291020Y-81173501D01*
X108269737Y-81066503D01*
X108258433Y-81039213D01*
X108209397Y-80920827D01*
X108209390Y-80920814D01*
X108121789Y-80789711D01*
X108121786Y-80789707D01*
X108010292Y-80678213D01*
X108010288Y-80678210D01*
X107879185Y-80590609D01*
X107879172Y-80590602D01*
X107733501Y-80530264D01*
X107733489Y-80530261D01*
X107578845Y-80499500D01*
X107578842Y-80499500D01*
X107421158Y-80499500D01*
X107421155Y-80499500D01*
X107266510Y-80530261D01*
X107266498Y-80530264D01*
X107120827Y-80590602D01*
X107120814Y-80590609D01*
X106989711Y-80678210D01*
X106989707Y-80678213D01*
X106878213Y-80789707D01*
X106878210Y-80789711D01*
X106790609Y-80920814D01*
X106790602Y-80920827D01*
X106730264Y-81066498D01*
X106730261Y-81066510D01*
X106699500Y-81221153D01*
X100588061Y-81221153D01*
X100631246Y-81088243D01*
X100664500Y-80878287D01*
X100664500Y-80665713D01*
X100631246Y-80455757D01*
X100565557Y-80253588D01*
X100549031Y-80221153D01*
X111299500Y-80221153D01*
X111299500Y-80378846D01*
X111330261Y-80533489D01*
X111330264Y-80533501D01*
X111390602Y-80679172D01*
X111390609Y-80679185D01*
X111478210Y-80810288D01*
X111478213Y-80810292D01*
X111589707Y-80921786D01*
X111589711Y-80921789D01*
X111720814Y-81009390D01*
X111720827Y-81009397D01*
X111858683Y-81066498D01*
X111866503Y-81069737D01*
X112017493Y-81099771D01*
X112021153Y-81100499D01*
X112021156Y-81100500D01*
X112021158Y-81100500D01*
X112178844Y-81100500D01*
X112178845Y-81100499D01*
X112333497Y-81069737D01*
X112479179Y-81009394D01*
X112610289Y-80921789D01*
X112670925Y-80861153D01*
X116199500Y-80861153D01*
X116199500Y-81018846D01*
X116230261Y-81173489D01*
X116230264Y-81173501D01*
X116290602Y-81319172D01*
X116290609Y-81319185D01*
X116378210Y-81450288D01*
X116378213Y-81450292D01*
X116489707Y-81561786D01*
X116489711Y-81561789D01*
X116620814Y-81649390D01*
X116620827Y-81649397D01*
X116746617Y-81701500D01*
X116766503Y-81709737D01*
X116917850Y-81739842D01*
X116921153Y-81740499D01*
X116921156Y-81740500D01*
X116921158Y-81740500D01*
X117078844Y-81740500D01*
X117078845Y-81740499D01*
X117233497Y-81709737D01*
X117379179Y-81649394D01*
X117510289Y-81561789D01*
X117550925Y-81521153D01*
X122999500Y-81521153D01*
X122999500Y-81678846D01*
X123030261Y-81833489D01*
X123030264Y-81833501D01*
X123090602Y-81979172D01*
X123090609Y-81979185D01*
X123178210Y-82110288D01*
X123178213Y-82110292D01*
X123289707Y-82221786D01*
X123289711Y-82221789D01*
X123420814Y-82309390D01*
X123420827Y-82309397D01*
X123566498Y-82369735D01*
X123566503Y-82369737D01*
X123721153Y-82400499D01*
X123721156Y-82400500D01*
X123721158Y-82400500D01*
X123878844Y-82400500D01*
X123878845Y-82400499D01*
X124033497Y-82369737D01*
X124179179Y-82309394D01*
X124310289Y-82221789D01*
X124421789Y-82110289D01*
X124509394Y-81979179D01*
X124569737Y-81833497D01*
X124600500Y-81678842D01*
X124600500Y-81521158D01*
X124600500Y-81521155D01*
X124600499Y-81521153D01*
X124592277Y-81479820D01*
X124569737Y-81366503D01*
X124569735Y-81366498D01*
X124509397Y-81220827D01*
X124509390Y-81220814D01*
X124421789Y-81089711D01*
X124421786Y-81089707D01*
X124310292Y-80978213D01*
X124310288Y-80978210D01*
X124179185Y-80890609D01*
X124179172Y-80890602D01*
X124033501Y-80830264D01*
X124033489Y-80830261D01*
X123878845Y-80799500D01*
X123878842Y-80799500D01*
X123721158Y-80799500D01*
X123721155Y-80799500D01*
X123566510Y-80830261D01*
X123566498Y-80830264D01*
X123420827Y-80890602D01*
X123420814Y-80890609D01*
X123289711Y-80978210D01*
X123289707Y-80978213D01*
X123178213Y-81089707D01*
X123178210Y-81089711D01*
X123090609Y-81220814D01*
X123090602Y-81220827D01*
X123030264Y-81366498D01*
X123030261Y-81366510D01*
X122999500Y-81521153D01*
X117550925Y-81521153D01*
X117621789Y-81450289D01*
X117709394Y-81319179D01*
X117769737Y-81173497D01*
X117800500Y-81018842D01*
X117800500Y-80861158D01*
X117800500Y-80861155D01*
X117800499Y-80861153D01*
X117794355Y-80830264D01*
X117769737Y-80706503D01*
X117709394Y-80560821D01*
X117709393Y-80560819D01*
X117709390Y-80560814D01*
X117682889Y-80521153D01*
X120999500Y-80521153D01*
X120999500Y-80678846D01*
X121030261Y-80833489D01*
X121030264Y-80833501D01*
X121090602Y-80979172D01*
X121090609Y-80979185D01*
X121178210Y-81110288D01*
X121178213Y-81110292D01*
X121289707Y-81221786D01*
X121289711Y-81221789D01*
X121420814Y-81309390D01*
X121420827Y-81309397D01*
X121558683Y-81366498D01*
X121566503Y-81369737D01*
X121721153Y-81400499D01*
X121721156Y-81400500D01*
X121721158Y-81400500D01*
X121878844Y-81400500D01*
X121878845Y-81400499D01*
X121889179Y-81398443D01*
X121914287Y-81393450D01*
X121914292Y-81393449D01*
X121999800Y-81376439D01*
X122033497Y-81369737D01*
X122179179Y-81309394D01*
X122310289Y-81221789D01*
X122421789Y-81110289D01*
X122509394Y-80979179D01*
X122569737Y-80833497D01*
X122592084Y-80721153D01*
X134499500Y-80721153D01*
X134499500Y-80878846D01*
X134530261Y-81033489D01*
X134530264Y-81033501D01*
X134590602Y-81179172D01*
X134590609Y-81179185D01*
X134678210Y-81310288D01*
X134678213Y-81310292D01*
X134789707Y-81421786D01*
X134789711Y-81421789D01*
X134920814Y-81509390D01*
X134920827Y-81509397D01*
X135066498Y-81569735D01*
X135066503Y-81569737D01*
X135221153Y-81600499D01*
X135221156Y-81600500D01*
X135221158Y-81600500D01*
X135378844Y-81600500D01*
X135378845Y-81600499D01*
X135533497Y-81569737D01*
X135679179Y-81509394D01*
X135810289Y-81421789D01*
X135921789Y-81310289D01*
X136009394Y-81179179D01*
X136069737Y-81033497D01*
X136100500Y-80878842D01*
X136100500Y-80822153D01*
X139849500Y-80822153D01*
X139849500Y-80979846D01*
X139880261Y-81134489D01*
X139880264Y-81134501D01*
X139940602Y-81280172D01*
X139940609Y-81280185D01*
X140028210Y-81411288D01*
X140028213Y-81411292D01*
X140139707Y-81522786D01*
X140139711Y-81522789D01*
X140270814Y-81610390D01*
X140270827Y-81610397D01*
X140370765Y-81651792D01*
X140416503Y-81670737D01*
X140571153Y-81701499D01*
X140571156Y-81701500D01*
X140571158Y-81701500D01*
X140728844Y-81701500D01*
X140728845Y-81701499D01*
X140883497Y-81670737D01*
X140996166Y-81624067D01*
X141029172Y-81610397D01*
X141029172Y-81610396D01*
X141029179Y-81610394D01*
X141071445Y-81582153D01*
X144233500Y-81582153D01*
X144233500Y-81739846D01*
X144264261Y-81894489D01*
X144264264Y-81894501D01*
X144324602Y-82040172D01*
X144324609Y-82040185D01*
X144412210Y-82171288D01*
X144412213Y-82171292D01*
X144523707Y-82282786D01*
X144523711Y-82282789D01*
X144654814Y-82370390D01*
X144654827Y-82370397D01*
X144800498Y-82430735D01*
X144800503Y-82430737D01*
X144955153Y-82461499D01*
X144955156Y-82461500D01*
X144955158Y-82461500D01*
X145112844Y-82461500D01*
X145112845Y-82461499D01*
X145267497Y-82430737D01*
X145413179Y-82370394D01*
X145544289Y-82282789D01*
X145655789Y-82171289D01*
X145743394Y-82040179D01*
X145803737Y-81894497D01*
X145834500Y-81739842D01*
X145834500Y-81582158D01*
X145834500Y-81582155D01*
X145834499Y-81582153D01*
X145827142Y-81545168D01*
X145803737Y-81427503D01*
X145789632Y-81393450D01*
X145743397Y-81281827D01*
X145743390Y-81281814D01*
X145655789Y-81150711D01*
X145655786Y-81150707D01*
X145544292Y-81039213D01*
X145544288Y-81039210D01*
X145413185Y-80951609D01*
X145413172Y-80951602D01*
X145267501Y-80891264D01*
X145267489Y-80891261D01*
X145112845Y-80860500D01*
X145112842Y-80860500D01*
X144955158Y-80860500D01*
X144955155Y-80860500D01*
X144800510Y-80891261D01*
X144800498Y-80891264D01*
X144654827Y-80951602D01*
X144654814Y-80951609D01*
X144523711Y-81039210D01*
X144523707Y-81039213D01*
X144412213Y-81150707D01*
X144412210Y-81150711D01*
X144324609Y-81281814D01*
X144324602Y-81281827D01*
X144264264Y-81427498D01*
X144264261Y-81427510D01*
X144233500Y-81582153D01*
X141071445Y-81582153D01*
X141160289Y-81522789D01*
X141173688Y-81509390D01*
X141194694Y-81488385D01*
X141271786Y-81411292D01*
X141271789Y-81411289D01*
X141359394Y-81280179D01*
X141419737Y-81134497D01*
X141450500Y-80979842D01*
X141450500Y-80822158D01*
X141450500Y-80822155D01*
X141450499Y-80822153D01*
X141434478Y-80741610D01*
X141419737Y-80667503D01*
X141387887Y-80590609D01*
X141359397Y-80521827D01*
X141359390Y-80521814D01*
X141271789Y-80390711D01*
X141271786Y-80390707D01*
X141160292Y-80279213D01*
X141160288Y-80279210D01*
X141029185Y-80191609D01*
X141029172Y-80191602D01*
X140883501Y-80131264D01*
X140883489Y-80131261D01*
X140728845Y-80100500D01*
X140728842Y-80100500D01*
X140571158Y-80100500D01*
X140571155Y-80100500D01*
X140416510Y-80131261D01*
X140416498Y-80131264D01*
X140270827Y-80191602D01*
X140270814Y-80191609D01*
X140139711Y-80279210D01*
X140139707Y-80279213D01*
X140028213Y-80390707D01*
X140028210Y-80390711D01*
X139940609Y-80521814D01*
X139940602Y-80521827D01*
X139880264Y-80667498D01*
X139880261Y-80667510D01*
X139849500Y-80822153D01*
X136100500Y-80822153D01*
X136100500Y-80721158D01*
X136100500Y-80721155D01*
X136100499Y-80721153D01*
X136092148Y-80679172D01*
X136069737Y-80566503D01*
X136067386Y-80560827D01*
X136009397Y-80420827D01*
X136009390Y-80420814D01*
X135921789Y-80289711D01*
X135921786Y-80289707D01*
X135810292Y-80178213D01*
X135810288Y-80178210D01*
X135679185Y-80090609D01*
X135679172Y-80090602D01*
X135533501Y-80030264D01*
X135533489Y-80030261D01*
X135378845Y-79999500D01*
X135378842Y-79999500D01*
X135221158Y-79999500D01*
X135221155Y-79999500D01*
X135066510Y-80030261D01*
X135066498Y-80030264D01*
X134920827Y-80090602D01*
X134920814Y-80090609D01*
X134789711Y-80178210D01*
X134789707Y-80178213D01*
X134678213Y-80289707D01*
X134678210Y-80289711D01*
X134590609Y-80420814D01*
X134590602Y-80420827D01*
X134530264Y-80566498D01*
X134530261Y-80566510D01*
X134499500Y-80721153D01*
X122592084Y-80721153D01*
X122600500Y-80678842D01*
X122600500Y-80521158D01*
X122600500Y-80521155D01*
X122600499Y-80521153D01*
X122587491Y-80455757D01*
X122569737Y-80366503D01*
X122537929Y-80289711D01*
X122509397Y-80220827D01*
X122509390Y-80220814D01*
X122421789Y-80089711D01*
X122421786Y-80089707D01*
X122310292Y-79978213D01*
X122310288Y-79978210D01*
X122179185Y-79890609D01*
X122179172Y-79890602D01*
X122033501Y-79830264D01*
X122033489Y-79830261D01*
X121878845Y-79799500D01*
X121878842Y-79799500D01*
X121721158Y-79799500D01*
X121721155Y-79799500D01*
X121566510Y-79830261D01*
X121566498Y-79830264D01*
X121420827Y-79890602D01*
X121420814Y-79890609D01*
X121289711Y-79978210D01*
X121289707Y-79978213D01*
X121178213Y-80089707D01*
X121178210Y-80089711D01*
X121090609Y-80220814D01*
X121090602Y-80220827D01*
X121030264Y-80366498D01*
X121030261Y-80366510D01*
X120999500Y-80521153D01*
X117682889Y-80521153D01*
X117621789Y-80429711D01*
X117621786Y-80429707D01*
X117510292Y-80318213D01*
X117510288Y-80318210D01*
X117379185Y-80230609D01*
X117379172Y-80230602D01*
X117233501Y-80170264D01*
X117233489Y-80170261D01*
X117078845Y-80139500D01*
X117078842Y-80139500D01*
X116921158Y-80139500D01*
X116921155Y-80139500D01*
X116766510Y-80170261D01*
X116766498Y-80170264D01*
X116620827Y-80230602D01*
X116620814Y-80230609D01*
X116489711Y-80318210D01*
X116489707Y-80318213D01*
X116378213Y-80429707D01*
X116378210Y-80429711D01*
X116290609Y-80560814D01*
X116290602Y-80560827D01*
X116230264Y-80706498D01*
X116230261Y-80706510D01*
X116199500Y-80861153D01*
X112670925Y-80861153D01*
X112721789Y-80810289D01*
X112735539Y-80789711D01*
X112737902Y-80786175D01*
X112809390Y-80679185D01*
X112809390Y-80679184D01*
X112809394Y-80679179D01*
X112815541Y-80664340D01*
X112823067Y-80646166D01*
X112869737Y-80533497D01*
X112900500Y-80378842D01*
X112900500Y-80221158D01*
X112900500Y-80221155D01*
X112900499Y-80221153D01*
X112882619Y-80131264D01*
X112869737Y-80066503D01*
X112868809Y-80064263D01*
X112809397Y-79920827D01*
X112809390Y-79920814D01*
X112721789Y-79789711D01*
X112721786Y-79789707D01*
X112610292Y-79678213D01*
X112610288Y-79678210D01*
X112479185Y-79590609D01*
X112479172Y-79590602D01*
X112333501Y-79530264D01*
X112333489Y-79530261D01*
X112178845Y-79499500D01*
X112178842Y-79499500D01*
X112021158Y-79499500D01*
X112021155Y-79499500D01*
X111866510Y-79530261D01*
X111866498Y-79530264D01*
X111720827Y-79590602D01*
X111720814Y-79590609D01*
X111589711Y-79678210D01*
X111589707Y-79678213D01*
X111478213Y-79789707D01*
X111478210Y-79789711D01*
X111390609Y-79920814D01*
X111390602Y-79920827D01*
X111330264Y-80066498D01*
X111330261Y-80066510D01*
X111299500Y-80221153D01*
X100549031Y-80221153D01*
X100469051Y-80064184D01*
X100469049Y-80064181D01*
X100469048Y-80064179D01*
X100344109Y-79892213D01*
X100193786Y-79741890D01*
X100021820Y-79616951D01*
X99832414Y-79520444D01*
X99832413Y-79520443D01*
X99832412Y-79520443D01*
X99630243Y-79454754D01*
X99630241Y-79454753D01*
X99630240Y-79454753D01*
X99468957Y-79429208D01*
X99420287Y-79421500D01*
X99207713Y-79421500D01*
X99159042Y-79429208D01*
X98997760Y-79454753D01*
X98795585Y-79520444D01*
X98606179Y-79616951D01*
X98434213Y-79741890D01*
X98283894Y-79892209D01*
X98283890Y-79892214D01*
X98224818Y-79973521D01*
X98169488Y-80016187D01*
X98099875Y-80022166D01*
X98038080Y-79989561D01*
X98003723Y-79928722D01*
X98000500Y-79900636D01*
X98000500Y-79215681D01*
X142415500Y-79215681D01*
X142415500Y-79373374D01*
X142446261Y-79528017D01*
X142446264Y-79528029D01*
X142506602Y-79673700D01*
X142506609Y-79673713D01*
X142594210Y-79804816D01*
X142594213Y-79804820D01*
X142705707Y-79916314D01*
X142705711Y-79916317D01*
X142836814Y-80003918D01*
X142836827Y-80003925D01*
X142960072Y-80054974D01*
X142982503Y-80064265D01*
X143137153Y-80095027D01*
X143137156Y-80095028D01*
X143137158Y-80095028D01*
X143294844Y-80095028D01*
X143294845Y-80095027D01*
X143449497Y-80064265D01*
X143590162Y-80006000D01*
X150471647Y-80006000D01*
X150481387Y-80054974D01*
X150481390Y-80054983D01*
X150558652Y-80241513D01*
X150558659Y-80241526D01*
X150670829Y-80409399D01*
X150670832Y-80409403D01*
X150813596Y-80552167D01*
X150813600Y-80552170D01*
X150981473Y-80664340D01*
X150981486Y-80664347D01*
X151168016Y-80741609D01*
X151168025Y-80741612D01*
X151366041Y-80780999D01*
X151366045Y-80781000D01*
X151642000Y-80781000D01*
X151642000Y-80006000D01*
X150471647Y-80006000D01*
X143590162Y-80006000D01*
X143595179Y-80003922D01*
X143726289Y-79916317D01*
X143726292Y-79916314D01*
X143757618Y-79884989D01*
X143837786Y-79804820D01*
X143837789Y-79804817D01*
X143925394Y-79673707D01*
X143985737Y-79528025D01*
X143990118Y-79506000D01*
X150471647Y-79506000D01*
X151642000Y-79506000D01*
X151642000Y-78731000D01*
X151366041Y-78731000D01*
X151168025Y-78770387D01*
X151168016Y-78770390D01*
X150981486Y-78847652D01*
X150981473Y-78847659D01*
X150813600Y-78959829D01*
X150813596Y-78959832D01*
X150670832Y-79102596D01*
X150670829Y-79102600D01*
X150558659Y-79270473D01*
X150558652Y-79270486D01*
X150481390Y-79457016D01*
X150481387Y-79457025D01*
X150471647Y-79506000D01*
X143990118Y-79506000D01*
X144016500Y-79373370D01*
X144016500Y-79215686D01*
X144016500Y-79215683D01*
X144016499Y-79215681D01*
X143985737Y-79061031D01*
X143985735Y-79061026D01*
X143925397Y-78915355D01*
X143925390Y-78915342D01*
X143837789Y-78784239D01*
X143837786Y-78784235D01*
X143726292Y-78672741D01*
X143726288Y-78672738D01*
X143595185Y-78585137D01*
X143595172Y-78585130D01*
X143449501Y-78524792D01*
X143449489Y-78524789D01*
X143294845Y-78494028D01*
X143294842Y-78494028D01*
X143137158Y-78494028D01*
X143137155Y-78494028D01*
X142982510Y-78524789D01*
X142982498Y-78524792D01*
X142836827Y-78585130D01*
X142836814Y-78585137D01*
X142705711Y-78672738D01*
X142705707Y-78672741D01*
X142594213Y-78784235D01*
X142594210Y-78784239D01*
X142506609Y-78915342D01*
X142506602Y-78915355D01*
X142446264Y-79061026D01*
X142446261Y-79061038D01*
X142415500Y-79215681D01*
X98000500Y-79215681D01*
X98000500Y-77518153D01*
X126707500Y-77518153D01*
X126707500Y-77675846D01*
X126738261Y-77830489D01*
X126738264Y-77830501D01*
X126798602Y-77976172D01*
X126798609Y-77976185D01*
X126886210Y-78107288D01*
X126886213Y-78107292D01*
X126997707Y-78218786D01*
X126997711Y-78218789D01*
X127128814Y-78306390D01*
X127128827Y-78306397D01*
X127195468Y-78334000D01*
X127274503Y-78366737D01*
X127429153Y-78397499D01*
X127429156Y-78397500D01*
X127429158Y-78397500D01*
X127586844Y-78397500D01*
X127586845Y-78397499D01*
X127741497Y-78366737D01*
X127887179Y-78306394D01*
X128018289Y-78218789D01*
X128129789Y-78107289D01*
X128217394Y-77976179D01*
X128277737Y-77830497D01*
X128308500Y-77675842D01*
X128308500Y-77518158D01*
X128308500Y-77518155D01*
X128308499Y-77518153D01*
X128300748Y-77479185D01*
X128277737Y-77363503D01*
X128251433Y-77299998D01*
X128224181Y-77234205D01*
X128217397Y-77217827D01*
X128217390Y-77217814D01*
X128200703Y-77192840D01*
X129827813Y-77192840D01*
X129827813Y-77350533D01*
X129858574Y-77505176D01*
X129858577Y-77505188D01*
X129918915Y-77650859D01*
X129918922Y-77650872D01*
X130006523Y-77781975D01*
X130006526Y-77781979D01*
X130118020Y-77893473D01*
X130118024Y-77893476D01*
X130249127Y-77981077D01*
X130249140Y-77981084D01*
X130394811Y-78041422D01*
X130394816Y-78041424D01*
X130549466Y-78072186D01*
X130549469Y-78072187D01*
X130549471Y-78072187D01*
X130707157Y-78072187D01*
X130707158Y-78072186D01*
X130861810Y-78041424D01*
X131007492Y-77981081D01*
X131138602Y-77893476D01*
X131250102Y-77781976D01*
X131337707Y-77650866D01*
X131398050Y-77505184D01*
X131428813Y-77350529D01*
X131428813Y-77192845D01*
X131428813Y-77192842D01*
X131428812Y-77192840D01*
X131398265Y-77039270D01*
X131398263Y-77039262D01*
X131398051Y-77038197D01*
X131398050Y-77038190D01*
X131390993Y-77021153D01*
X132499500Y-77021153D01*
X132499500Y-77178846D01*
X132530261Y-77333489D01*
X132530264Y-77333501D01*
X132590602Y-77479172D01*
X132590609Y-77479185D01*
X132678210Y-77610288D01*
X132678213Y-77610292D01*
X132789707Y-77721786D01*
X132789711Y-77721789D01*
X132920814Y-77809390D01*
X132920827Y-77809397D01*
X133066498Y-77869735D01*
X133066503Y-77869737D01*
X133221153Y-77900499D01*
X133221156Y-77900500D01*
X133221158Y-77900500D01*
X133378844Y-77900500D01*
X133378845Y-77900499D01*
X133533497Y-77869737D01*
X133679179Y-77809394D01*
X133731110Y-77774694D01*
X133797785Y-77753816D01*
X133865165Y-77772300D01*
X133868863Y-77774676D01*
X133920821Y-77809394D01*
X133920823Y-77809395D01*
X133920825Y-77809396D01*
X134066498Y-77869735D01*
X134066503Y-77869737D01*
X134221153Y-77900499D01*
X134221156Y-77900500D01*
X134221158Y-77900500D01*
X134378844Y-77900500D01*
X134378845Y-77900499D01*
X134533497Y-77869737D01*
X134679179Y-77809394D01*
X134781111Y-77741284D01*
X134847786Y-77720408D01*
X134915166Y-77738892D01*
X134918847Y-77741257D01*
X135020821Y-77809394D01*
X135020823Y-77809395D01*
X135020827Y-77809397D01*
X135166498Y-77869735D01*
X135166503Y-77869737D01*
X135321153Y-77900499D01*
X135321156Y-77900500D01*
X135321158Y-77900500D01*
X135478844Y-77900500D01*
X135478845Y-77900499D01*
X135633497Y-77869737D01*
X135779179Y-77809394D01*
X135910289Y-77721789D01*
X136021789Y-77610289D01*
X136081348Y-77521153D01*
X138699500Y-77521153D01*
X138699500Y-77678846D01*
X138730261Y-77833489D01*
X138730264Y-77833501D01*
X138790602Y-77979172D01*
X138790609Y-77979185D01*
X138878210Y-78110288D01*
X138878213Y-78110292D01*
X138989707Y-78221786D01*
X138989711Y-78221789D01*
X139120814Y-78309390D01*
X139120827Y-78309397D01*
X139266498Y-78369735D01*
X139266503Y-78369737D01*
X139406071Y-78397499D01*
X139421153Y-78400499D01*
X139421156Y-78400500D01*
X139421158Y-78400500D01*
X139578844Y-78400500D01*
X139578845Y-78400499D01*
X139733497Y-78369737D01*
X139879179Y-78309394D01*
X140010289Y-78221789D01*
X140121789Y-78110289D01*
X140209394Y-77979179D01*
X140269737Y-77833497D01*
X140300500Y-77678842D01*
X140300500Y-77521158D01*
X140300500Y-77521155D01*
X140290873Y-77472758D01*
X140290873Y-77472757D01*
X140287272Y-77454653D01*
X143281000Y-77454653D01*
X143281000Y-77612346D01*
X143311761Y-77766989D01*
X143311764Y-77767001D01*
X143372102Y-77912672D01*
X143372109Y-77912685D01*
X143459710Y-78043788D01*
X143459713Y-78043792D01*
X143571207Y-78155286D01*
X143571211Y-78155289D01*
X143702314Y-78242890D01*
X143702327Y-78242897D01*
X143847998Y-78303235D01*
X143848003Y-78303237D01*
X144002653Y-78333999D01*
X144002656Y-78334000D01*
X144002658Y-78334000D01*
X144160344Y-78334000D01*
X144160345Y-78333999D01*
X144314997Y-78303237D01*
X144460679Y-78242894D01*
X144591789Y-78155289D01*
X144703289Y-78043789D01*
X144790894Y-77912679D01*
X144851237Y-77766997D01*
X144882000Y-77612342D01*
X144882000Y-77454658D01*
X144882000Y-77454655D01*
X144881999Y-77454653D01*
X144861288Y-77350533D01*
X144851237Y-77300003D01*
X144823983Y-77234205D01*
X144790897Y-77154327D01*
X144790890Y-77154314D01*
X144703289Y-77023211D01*
X144703286Y-77023207D01*
X144591792Y-76911713D01*
X144591788Y-76911710D01*
X144460685Y-76824109D01*
X144460672Y-76824102D01*
X144315001Y-76763764D01*
X144314989Y-76763761D01*
X144160345Y-76733000D01*
X144160342Y-76733000D01*
X144002658Y-76733000D01*
X144002655Y-76733000D01*
X143848010Y-76763761D01*
X143847998Y-76763764D01*
X143702327Y-76824102D01*
X143702314Y-76824109D01*
X143571211Y-76911710D01*
X143571207Y-76911713D01*
X143459713Y-77023207D01*
X143459710Y-77023211D01*
X143372109Y-77154314D01*
X143372102Y-77154327D01*
X143311764Y-77299998D01*
X143311761Y-77300010D01*
X143281000Y-77454653D01*
X140287272Y-77454653D01*
X140269738Y-77366510D01*
X140269737Y-77366503D01*
X140263121Y-77350531D01*
X140209397Y-77220827D01*
X140209390Y-77220814D01*
X140121789Y-77089711D01*
X140121786Y-77089707D01*
X140010292Y-76978213D01*
X140010288Y-76978210D01*
X139879185Y-76890609D01*
X139879172Y-76890602D01*
X139733501Y-76830264D01*
X139733489Y-76830261D01*
X139578845Y-76799500D01*
X139578842Y-76799500D01*
X139421158Y-76799500D01*
X139421155Y-76799500D01*
X139266510Y-76830261D01*
X139266498Y-76830264D01*
X139120827Y-76890602D01*
X139120814Y-76890609D01*
X138989711Y-76978210D01*
X138989707Y-76978213D01*
X138878213Y-77089707D01*
X138878210Y-77089711D01*
X138790609Y-77220814D01*
X138790602Y-77220827D01*
X138730264Y-77366498D01*
X138730261Y-77366510D01*
X138699500Y-77521153D01*
X136081348Y-77521153D01*
X136109394Y-77479179D01*
X136169737Y-77333497D01*
X136200500Y-77178842D01*
X136200500Y-77021158D01*
X136200500Y-77021155D01*
X136200499Y-77021153D01*
X136191361Y-76975213D01*
X136169737Y-76866503D01*
X136169735Y-76866498D01*
X136109397Y-76720827D01*
X136109390Y-76720814D01*
X136021789Y-76589711D01*
X136021786Y-76589707D01*
X135910292Y-76478213D01*
X135910288Y-76478210D01*
X135779185Y-76390609D01*
X135779172Y-76390602D01*
X135633501Y-76330264D01*
X135633489Y-76330261D01*
X135478845Y-76299500D01*
X135478842Y-76299500D01*
X135321158Y-76299500D01*
X135321155Y-76299500D01*
X135166510Y-76330261D01*
X135166498Y-76330264D01*
X135020827Y-76390602D01*
X135020814Y-76390609D01*
X134918891Y-76458713D01*
X134852213Y-76479591D01*
X134784833Y-76461107D01*
X134781109Y-76458713D01*
X134679185Y-76390609D01*
X134679172Y-76390602D01*
X134533501Y-76330264D01*
X134533489Y-76330261D01*
X134378845Y-76299500D01*
X134378842Y-76299500D01*
X134221158Y-76299500D01*
X134221155Y-76299500D01*
X134066510Y-76330261D01*
X134066498Y-76330264D01*
X133920827Y-76390602D01*
X133920814Y-76390609D01*
X133868891Y-76425304D01*
X133802214Y-76446182D01*
X133734833Y-76427698D01*
X133731109Y-76425304D01*
X133679185Y-76390609D01*
X133679172Y-76390602D01*
X133533501Y-76330264D01*
X133533489Y-76330261D01*
X133378845Y-76299500D01*
X133378842Y-76299500D01*
X133221158Y-76299500D01*
X133221155Y-76299500D01*
X133066510Y-76330261D01*
X133066498Y-76330264D01*
X132920827Y-76390602D01*
X132920814Y-76390609D01*
X132789711Y-76478210D01*
X132789707Y-76478213D01*
X132678213Y-76589707D01*
X132678210Y-76589711D01*
X132590609Y-76720814D01*
X132590602Y-76720827D01*
X132530264Y-76866498D01*
X132530261Y-76866510D01*
X132499500Y-77021153D01*
X131390993Y-77021153D01*
X131373206Y-76978210D01*
X131337710Y-76892514D01*
X131337703Y-76892501D01*
X131250102Y-76761398D01*
X131250099Y-76761394D01*
X131138605Y-76649900D01*
X131138601Y-76649897D01*
X131007498Y-76562296D01*
X131007485Y-76562289D01*
X130861814Y-76501951D01*
X130861802Y-76501948D01*
X130707158Y-76471187D01*
X130707155Y-76471187D01*
X130549471Y-76471187D01*
X130549468Y-76471187D01*
X130394823Y-76501948D01*
X130394811Y-76501951D01*
X130249140Y-76562289D01*
X130249127Y-76562296D01*
X130118024Y-76649897D01*
X130118020Y-76649900D01*
X130006526Y-76761394D01*
X130006523Y-76761398D01*
X129918922Y-76892501D01*
X129918915Y-76892514D01*
X129858577Y-77038185D01*
X129858574Y-77038197D01*
X129827813Y-77192840D01*
X128200703Y-77192840D01*
X128129789Y-77086711D01*
X128129786Y-77086707D01*
X128018292Y-76975213D01*
X128018288Y-76975210D01*
X127887185Y-76887609D01*
X127887172Y-76887602D01*
X127741501Y-76827264D01*
X127741489Y-76827261D01*
X127586845Y-76796500D01*
X127586842Y-76796500D01*
X127429158Y-76796500D01*
X127429155Y-76796500D01*
X127274510Y-76827261D01*
X127274498Y-76827264D01*
X127128827Y-76887602D01*
X127128814Y-76887609D01*
X126997711Y-76975210D01*
X126997707Y-76975213D01*
X126886213Y-77086707D01*
X126886210Y-77086711D01*
X126798609Y-77217814D01*
X126798602Y-77217827D01*
X126738264Y-77363498D01*
X126738261Y-77363510D01*
X126707500Y-77518153D01*
X98000500Y-77518153D01*
X98000500Y-75629420D01*
X98020185Y-75562381D01*
X98072989Y-75516626D01*
X98142147Y-75506682D01*
X98205703Y-75535707D01*
X98242154Y-75592427D01*
X98242643Y-75592262D01*
X98243308Y-75594222D01*
X98243477Y-75594485D01*
X98243856Y-75595838D01*
X98243945Y-75596098D01*
X98261753Y-75639091D01*
X98336776Y-75820212D01*
X98458064Y-76030289D01*
X98458066Y-76030292D01*
X98458067Y-76030293D01*
X98605733Y-76222736D01*
X98605739Y-76222743D01*
X98777256Y-76394260D01*
X98777262Y-76394265D01*
X98969711Y-76541936D01*
X99179788Y-76663224D01*
X99403900Y-76756054D01*
X99638211Y-76818838D01*
X99818586Y-76842584D01*
X99878711Y-76850500D01*
X99878712Y-76850500D01*
X100121289Y-76850500D01*
X100169388Y-76844167D01*
X100361789Y-76818838D01*
X100596100Y-76756054D01*
X100820212Y-76663224D01*
X101030289Y-76541936D01*
X101222738Y-76394265D01*
X101394265Y-76222738D01*
X101541936Y-76030289D01*
X101663224Y-75820212D01*
X101756054Y-75596100D01*
X101818838Y-75361789D01*
X101819185Y-75359153D01*
X107725500Y-75359153D01*
X107725500Y-75516846D01*
X107756261Y-75671489D01*
X107756264Y-75671501D01*
X107816602Y-75817172D01*
X107816609Y-75817185D01*
X107904210Y-75948288D01*
X107904213Y-75948292D01*
X108015707Y-76059786D01*
X108015711Y-76059789D01*
X108146814Y-76147390D01*
X108146827Y-76147397D01*
X108292498Y-76207735D01*
X108292503Y-76207737D01*
X108447153Y-76238499D01*
X108447156Y-76238500D01*
X108447158Y-76238500D01*
X108604844Y-76238500D01*
X108604845Y-76238499D01*
X108759497Y-76207737D01*
X108905179Y-76147394D01*
X109036289Y-76059789D01*
X109147789Y-75948289D01*
X109235394Y-75817179D01*
X109295737Y-75671497D01*
X109326500Y-75516842D01*
X109326500Y-75359158D01*
X109326500Y-75359155D01*
X109326499Y-75359153D01*
X109305964Y-75255917D01*
X109295737Y-75204503D01*
X109290919Y-75192872D01*
X109235397Y-75058827D01*
X109235390Y-75058814D01*
X109147789Y-74927711D01*
X109147786Y-74927707D01*
X109036292Y-74816213D01*
X109036288Y-74816210D01*
X108905185Y-74728609D01*
X108905172Y-74728602D01*
X108759501Y-74668264D01*
X108759489Y-74668261D01*
X108604845Y-74637500D01*
X108604842Y-74637500D01*
X108447158Y-74637500D01*
X108447155Y-74637500D01*
X108292510Y-74668261D01*
X108292498Y-74668264D01*
X108146827Y-74728602D01*
X108146814Y-74728609D01*
X108015711Y-74816210D01*
X108015707Y-74816213D01*
X107904213Y-74927707D01*
X107904210Y-74927711D01*
X107816609Y-75058814D01*
X107816602Y-75058827D01*
X107756264Y-75204498D01*
X107756261Y-75204510D01*
X107725500Y-75359153D01*
X101819185Y-75359153D01*
X101850500Y-75121288D01*
X101850500Y-74878712D01*
X101850326Y-74877394D01*
X101842272Y-74816210D01*
X101818838Y-74638211D01*
X101756054Y-74403900D01*
X101663224Y-74179788D01*
X101541936Y-73969711D01*
X101394265Y-73777262D01*
X101394260Y-73777256D01*
X101222743Y-73605739D01*
X101222736Y-73605733D01*
X101030293Y-73458067D01*
X101030292Y-73458066D01*
X101030289Y-73458064D01*
X100822635Y-73338175D01*
X100820214Y-73336777D01*
X100820205Y-73336773D01*
X100596098Y-73243945D01*
X100592262Y-73242643D01*
X100592671Y-73241435D01*
X100537670Y-73207914D01*
X100507138Y-73145068D01*
X100515430Y-73075692D01*
X100559913Y-73021812D01*
X100626464Y-73000535D01*
X100629420Y-73000500D01*
X121660138Y-73000500D01*
X121727177Y-73020185D01*
G37*
%TD.AperFunction*%
%TD*%
M02*
