%TF.GenerationSoftware,KiCad,Pcbnew,9.0.3*%
%TF.CreationDate,2026-05-26T19:26:16-04:00*%
%TF.ProjectId,Vanguard,56616e67-7561-4726-942e-6b696361645f,rev?*%
%TF.SameCoordinates,Original*%
%TF.FileFunction,Legend,Bot*%
%TF.FilePolarity,Positive*%
%FSLAX46Y46*%
G04 Gerber Fmt 4.6, Leading zero omitted, Abs format (unit mm)*
G04 Created by KiCad (PCBNEW 9.0.3) date 2026-05-26 19:26:16*
%MOMM*%
%LPD*%
G01*
G04 APERTURE LIST*
%ADD10C,0.150000*%
%ADD11C,0.120000*%
%ADD12C,0.200000*%
%ADD13C,0.250000*%
%ADD14C,0.100000*%
G04 APERTURE END LIST*
D10*
X145687030Y-76556200D02*
X145601316Y-76594295D01*
X145601316Y-76594295D02*
X145458458Y-76594295D01*
X145458458Y-76594295D02*
X145401316Y-76556200D01*
X145401316Y-76556200D02*
X145372744Y-76518104D01*
X145372744Y-76518104D02*
X145344173Y-76441914D01*
X145344173Y-76441914D02*
X145344173Y-76365723D01*
X145344173Y-76365723D02*
X145372744Y-76289533D01*
X145372744Y-76289533D02*
X145401316Y-76251438D01*
X145401316Y-76251438D02*
X145458458Y-76213342D01*
X145458458Y-76213342D02*
X145572744Y-76175247D01*
X145572744Y-76175247D02*
X145629887Y-76137152D01*
X145629887Y-76137152D02*
X145658458Y-76099057D01*
X145658458Y-76099057D02*
X145687030Y-76022866D01*
X145687030Y-76022866D02*
X145687030Y-75946676D01*
X145687030Y-75946676D02*
X145658458Y-75870485D01*
X145658458Y-75870485D02*
X145629887Y-75832390D01*
X145629887Y-75832390D02*
X145572744Y-75794295D01*
X145572744Y-75794295D02*
X145429887Y-75794295D01*
X145429887Y-75794295D02*
X145344173Y-75832390D01*
X144744172Y-76518104D02*
X144772744Y-76556200D01*
X144772744Y-76556200D02*
X144858458Y-76594295D01*
X144858458Y-76594295D02*
X144915601Y-76594295D01*
X144915601Y-76594295D02*
X145001315Y-76556200D01*
X145001315Y-76556200D02*
X145058458Y-76480009D01*
X145058458Y-76480009D02*
X145087029Y-76403819D01*
X145087029Y-76403819D02*
X145115601Y-76251438D01*
X145115601Y-76251438D02*
X145115601Y-76137152D01*
X145115601Y-76137152D02*
X145087029Y-75984771D01*
X145087029Y-75984771D02*
X145058458Y-75908580D01*
X145058458Y-75908580D02*
X145001315Y-75832390D01*
X145001315Y-75832390D02*
X144915601Y-75794295D01*
X144915601Y-75794295D02*
X144858458Y-75794295D01*
X144858458Y-75794295D02*
X144772744Y-75832390D01*
X144772744Y-75832390D02*
X144744172Y-75870485D01*
X144201315Y-76594295D02*
X144487029Y-76594295D01*
X144487029Y-76594295D02*
X144487029Y-75794295D01*
X139387030Y-76456200D02*
X139301316Y-76494295D01*
X139301316Y-76494295D02*
X139158458Y-76494295D01*
X139158458Y-76494295D02*
X139101316Y-76456200D01*
X139101316Y-76456200D02*
X139072744Y-76418104D01*
X139072744Y-76418104D02*
X139044173Y-76341914D01*
X139044173Y-76341914D02*
X139044173Y-76265723D01*
X139044173Y-76265723D02*
X139072744Y-76189533D01*
X139072744Y-76189533D02*
X139101316Y-76151438D01*
X139101316Y-76151438D02*
X139158458Y-76113342D01*
X139158458Y-76113342D02*
X139272744Y-76075247D01*
X139272744Y-76075247D02*
X139329887Y-76037152D01*
X139329887Y-76037152D02*
X139358458Y-75999057D01*
X139358458Y-75999057D02*
X139387030Y-75922866D01*
X139387030Y-75922866D02*
X139387030Y-75846676D01*
X139387030Y-75846676D02*
X139358458Y-75770485D01*
X139358458Y-75770485D02*
X139329887Y-75732390D01*
X139329887Y-75732390D02*
X139272744Y-75694295D01*
X139272744Y-75694295D02*
X139129887Y-75694295D01*
X139129887Y-75694295D02*
X139044173Y-75732390D01*
X138501315Y-75694295D02*
X138787029Y-75694295D01*
X138787029Y-75694295D02*
X138815601Y-76075247D01*
X138815601Y-76075247D02*
X138787029Y-76037152D01*
X138787029Y-76037152D02*
X138729887Y-75999057D01*
X138729887Y-75999057D02*
X138587029Y-75999057D01*
X138587029Y-75999057D02*
X138529887Y-76037152D01*
X138529887Y-76037152D02*
X138501315Y-76075247D01*
X138501315Y-76075247D02*
X138472744Y-76151438D01*
X138472744Y-76151438D02*
X138472744Y-76341914D01*
X138472744Y-76341914D02*
X138501315Y-76418104D01*
X138501315Y-76418104D02*
X138529887Y-76456200D01*
X138529887Y-76456200D02*
X138587029Y-76494295D01*
X138587029Y-76494295D02*
X138729887Y-76494295D01*
X138729887Y-76494295D02*
X138787029Y-76456200D01*
X138787029Y-76456200D02*
X138815601Y-76418104D01*
X134187030Y-76456200D02*
X134101316Y-76494295D01*
X134101316Y-76494295D02*
X133958458Y-76494295D01*
X133958458Y-76494295D02*
X133901316Y-76456200D01*
X133901316Y-76456200D02*
X133872744Y-76418104D01*
X133872744Y-76418104D02*
X133844173Y-76341914D01*
X133844173Y-76341914D02*
X133844173Y-76265723D01*
X133844173Y-76265723D02*
X133872744Y-76189533D01*
X133872744Y-76189533D02*
X133901316Y-76151438D01*
X133901316Y-76151438D02*
X133958458Y-76113342D01*
X133958458Y-76113342D02*
X134072744Y-76075247D01*
X134072744Y-76075247D02*
X134129887Y-76037152D01*
X134129887Y-76037152D02*
X134158458Y-75999057D01*
X134158458Y-75999057D02*
X134187030Y-75922866D01*
X134187030Y-75922866D02*
X134187030Y-75846676D01*
X134187030Y-75846676D02*
X134158458Y-75770485D01*
X134158458Y-75770485D02*
X134129887Y-75732390D01*
X134129887Y-75732390D02*
X134072744Y-75694295D01*
X134072744Y-75694295D02*
X133929887Y-75694295D01*
X133929887Y-75694295D02*
X133844173Y-75732390D01*
X133644172Y-75694295D02*
X133272744Y-75694295D01*
X133272744Y-75694295D02*
X133472744Y-75999057D01*
X133472744Y-75999057D02*
X133387029Y-75999057D01*
X133387029Y-75999057D02*
X133329887Y-76037152D01*
X133329887Y-76037152D02*
X133301315Y-76075247D01*
X133301315Y-76075247D02*
X133272744Y-76151438D01*
X133272744Y-76151438D02*
X133272744Y-76341914D01*
X133272744Y-76341914D02*
X133301315Y-76418104D01*
X133301315Y-76418104D02*
X133329887Y-76456200D01*
X133329887Y-76456200D02*
X133387029Y-76494295D01*
X133387029Y-76494295D02*
X133558458Y-76494295D01*
X133558458Y-76494295D02*
X133615601Y-76456200D01*
X133615601Y-76456200D02*
X133644172Y-76418104D01*
X101758458Y-94575247D02*
X101672744Y-94613342D01*
X101672744Y-94613342D02*
X101644173Y-94651438D01*
X101644173Y-94651438D02*
X101615601Y-94727628D01*
X101615601Y-94727628D02*
X101615601Y-94841914D01*
X101615601Y-94841914D02*
X101644173Y-94918104D01*
X101644173Y-94918104D02*
X101672744Y-94956200D01*
X101672744Y-94956200D02*
X101729887Y-94994295D01*
X101729887Y-94994295D02*
X101958458Y-94994295D01*
X101958458Y-94994295D02*
X101958458Y-94194295D01*
X101958458Y-94194295D02*
X101758458Y-94194295D01*
X101758458Y-94194295D02*
X101701316Y-94232390D01*
X101701316Y-94232390D02*
X101672744Y-94270485D01*
X101672744Y-94270485D02*
X101644173Y-94346676D01*
X101644173Y-94346676D02*
X101644173Y-94422866D01*
X101644173Y-94422866D02*
X101672744Y-94499057D01*
X101672744Y-94499057D02*
X101701316Y-94537152D01*
X101701316Y-94537152D02*
X101758458Y-94575247D01*
X101758458Y-94575247D02*
X101958458Y-94575247D01*
X101358458Y-94689533D02*
X100901316Y-94689533D01*
X107515601Y-92318104D02*
X107544173Y-92356200D01*
X107544173Y-92356200D02*
X107629887Y-92394295D01*
X107629887Y-92394295D02*
X107687030Y-92394295D01*
X107687030Y-92394295D02*
X107772744Y-92356200D01*
X107772744Y-92356200D02*
X107829887Y-92280009D01*
X107829887Y-92280009D02*
X107858458Y-92203819D01*
X107858458Y-92203819D02*
X107887030Y-92051438D01*
X107887030Y-92051438D02*
X107887030Y-91937152D01*
X107887030Y-91937152D02*
X107858458Y-91784771D01*
X107858458Y-91784771D02*
X107829887Y-91708580D01*
X107829887Y-91708580D02*
X107772744Y-91632390D01*
X107772744Y-91632390D02*
X107687030Y-91594295D01*
X107687030Y-91594295D02*
X107629887Y-91594295D01*
X107629887Y-91594295D02*
X107544173Y-91632390D01*
X107544173Y-91632390D02*
X107515601Y-91670485D01*
X106944173Y-92394295D02*
X107287030Y-92394295D01*
X107115601Y-92394295D02*
X107115601Y-91594295D01*
X107115601Y-91594295D02*
X107172744Y-91708580D01*
X107172744Y-91708580D02*
X107229887Y-91784771D01*
X107229887Y-91784771D02*
X107287030Y-91822866D01*
X106687029Y-92089533D02*
X106229887Y-92089533D01*
X106458458Y-92394295D02*
X106458458Y-91784771D01*
X102915601Y-89818104D02*
X102944173Y-89856200D01*
X102944173Y-89856200D02*
X103029887Y-89894295D01*
X103029887Y-89894295D02*
X103087030Y-89894295D01*
X103087030Y-89894295D02*
X103172744Y-89856200D01*
X103172744Y-89856200D02*
X103229887Y-89780009D01*
X103229887Y-89780009D02*
X103258458Y-89703819D01*
X103258458Y-89703819D02*
X103287030Y-89551438D01*
X103287030Y-89551438D02*
X103287030Y-89437152D01*
X103287030Y-89437152D02*
X103258458Y-89284771D01*
X103258458Y-89284771D02*
X103229887Y-89208580D01*
X103229887Y-89208580D02*
X103172744Y-89132390D01*
X103172744Y-89132390D02*
X103087030Y-89094295D01*
X103087030Y-89094295D02*
X103029887Y-89094295D01*
X103029887Y-89094295D02*
X102944173Y-89132390D01*
X102944173Y-89132390D02*
X102915601Y-89170485D01*
X102687030Y-89170485D02*
X102658458Y-89132390D01*
X102658458Y-89132390D02*
X102601316Y-89094295D01*
X102601316Y-89094295D02*
X102458458Y-89094295D01*
X102458458Y-89094295D02*
X102401316Y-89132390D01*
X102401316Y-89132390D02*
X102372744Y-89170485D01*
X102372744Y-89170485D02*
X102344173Y-89246676D01*
X102344173Y-89246676D02*
X102344173Y-89322866D01*
X102344173Y-89322866D02*
X102372744Y-89437152D01*
X102372744Y-89437152D02*
X102715601Y-89894295D01*
X102715601Y-89894295D02*
X102344173Y-89894295D01*
X102087029Y-89589533D02*
X101629887Y-89589533D01*
X107515601Y-94918104D02*
X107544173Y-94956200D01*
X107544173Y-94956200D02*
X107629887Y-94994295D01*
X107629887Y-94994295D02*
X107687030Y-94994295D01*
X107687030Y-94994295D02*
X107772744Y-94956200D01*
X107772744Y-94956200D02*
X107829887Y-94880009D01*
X107829887Y-94880009D02*
X107858458Y-94803819D01*
X107858458Y-94803819D02*
X107887030Y-94651438D01*
X107887030Y-94651438D02*
X107887030Y-94537152D01*
X107887030Y-94537152D02*
X107858458Y-94384771D01*
X107858458Y-94384771D02*
X107829887Y-94308580D01*
X107829887Y-94308580D02*
X107772744Y-94232390D01*
X107772744Y-94232390D02*
X107687030Y-94194295D01*
X107687030Y-94194295D02*
X107629887Y-94194295D01*
X107629887Y-94194295D02*
X107544173Y-94232390D01*
X107544173Y-94232390D02*
X107515601Y-94270485D01*
X106944173Y-94994295D02*
X107287030Y-94994295D01*
X107115601Y-94994295D02*
X107115601Y-94194295D01*
X107115601Y-94194295D02*
X107172744Y-94308580D01*
X107172744Y-94308580D02*
X107229887Y-94384771D01*
X107229887Y-94384771D02*
X107287030Y-94422866D01*
X106687029Y-94689533D02*
X106229887Y-94689533D01*
X102915601Y-87418104D02*
X102944173Y-87456200D01*
X102944173Y-87456200D02*
X103029887Y-87494295D01*
X103029887Y-87494295D02*
X103087030Y-87494295D01*
X103087030Y-87494295D02*
X103172744Y-87456200D01*
X103172744Y-87456200D02*
X103229887Y-87380009D01*
X103229887Y-87380009D02*
X103258458Y-87303819D01*
X103258458Y-87303819D02*
X103287030Y-87151438D01*
X103287030Y-87151438D02*
X103287030Y-87037152D01*
X103287030Y-87037152D02*
X103258458Y-86884771D01*
X103258458Y-86884771D02*
X103229887Y-86808580D01*
X103229887Y-86808580D02*
X103172744Y-86732390D01*
X103172744Y-86732390D02*
X103087030Y-86694295D01*
X103087030Y-86694295D02*
X103029887Y-86694295D01*
X103029887Y-86694295D02*
X102944173Y-86732390D01*
X102944173Y-86732390D02*
X102915601Y-86770485D01*
X102687030Y-86770485D02*
X102658458Y-86732390D01*
X102658458Y-86732390D02*
X102601316Y-86694295D01*
X102601316Y-86694295D02*
X102458458Y-86694295D01*
X102458458Y-86694295D02*
X102401316Y-86732390D01*
X102401316Y-86732390D02*
X102372744Y-86770485D01*
X102372744Y-86770485D02*
X102344173Y-86846676D01*
X102344173Y-86846676D02*
X102344173Y-86922866D01*
X102344173Y-86922866D02*
X102372744Y-87037152D01*
X102372744Y-87037152D02*
X102715601Y-87494295D01*
X102715601Y-87494295D02*
X102344173Y-87494295D01*
X102087029Y-87189533D02*
X101629887Y-87189533D01*
X101858458Y-87494295D02*
X101858458Y-86884771D01*
X131687030Y-76456200D02*
X131601316Y-76494295D01*
X131601316Y-76494295D02*
X131458458Y-76494295D01*
X131458458Y-76494295D02*
X131401316Y-76456200D01*
X131401316Y-76456200D02*
X131372744Y-76418104D01*
X131372744Y-76418104D02*
X131344173Y-76341914D01*
X131344173Y-76341914D02*
X131344173Y-76265723D01*
X131344173Y-76265723D02*
X131372744Y-76189533D01*
X131372744Y-76189533D02*
X131401316Y-76151438D01*
X131401316Y-76151438D02*
X131458458Y-76113342D01*
X131458458Y-76113342D02*
X131572744Y-76075247D01*
X131572744Y-76075247D02*
X131629887Y-76037152D01*
X131629887Y-76037152D02*
X131658458Y-75999057D01*
X131658458Y-75999057D02*
X131687030Y-75922866D01*
X131687030Y-75922866D02*
X131687030Y-75846676D01*
X131687030Y-75846676D02*
X131658458Y-75770485D01*
X131658458Y-75770485D02*
X131629887Y-75732390D01*
X131629887Y-75732390D02*
X131572744Y-75694295D01*
X131572744Y-75694295D02*
X131429887Y-75694295D01*
X131429887Y-75694295D02*
X131344173Y-75732390D01*
X131115601Y-75770485D02*
X131087029Y-75732390D01*
X131087029Y-75732390D02*
X131029887Y-75694295D01*
X131029887Y-75694295D02*
X130887029Y-75694295D01*
X130887029Y-75694295D02*
X130829887Y-75732390D01*
X130829887Y-75732390D02*
X130801315Y-75770485D01*
X130801315Y-75770485D02*
X130772744Y-75846676D01*
X130772744Y-75846676D02*
X130772744Y-75922866D01*
X130772744Y-75922866D02*
X130801315Y-76037152D01*
X130801315Y-76037152D02*
X131144172Y-76494295D01*
X131144172Y-76494295D02*
X130772744Y-76494295D01*
X136787030Y-76456200D02*
X136701316Y-76494295D01*
X136701316Y-76494295D02*
X136558458Y-76494295D01*
X136558458Y-76494295D02*
X136501316Y-76456200D01*
X136501316Y-76456200D02*
X136472744Y-76418104D01*
X136472744Y-76418104D02*
X136444173Y-76341914D01*
X136444173Y-76341914D02*
X136444173Y-76265723D01*
X136444173Y-76265723D02*
X136472744Y-76189533D01*
X136472744Y-76189533D02*
X136501316Y-76151438D01*
X136501316Y-76151438D02*
X136558458Y-76113342D01*
X136558458Y-76113342D02*
X136672744Y-76075247D01*
X136672744Y-76075247D02*
X136729887Y-76037152D01*
X136729887Y-76037152D02*
X136758458Y-75999057D01*
X136758458Y-75999057D02*
X136787030Y-75922866D01*
X136787030Y-75922866D02*
X136787030Y-75846676D01*
X136787030Y-75846676D02*
X136758458Y-75770485D01*
X136758458Y-75770485D02*
X136729887Y-75732390D01*
X136729887Y-75732390D02*
X136672744Y-75694295D01*
X136672744Y-75694295D02*
X136529887Y-75694295D01*
X136529887Y-75694295D02*
X136444173Y-75732390D01*
X135929887Y-75960961D02*
X135929887Y-76494295D01*
X136072744Y-75656200D02*
X136215601Y-76227628D01*
X136215601Y-76227628D02*
X135844172Y-76227628D01*
X129187030Y-76456200D02*
X129101316Y-76494295D01*
X129101316Y-76494295D02*
X128958458Y-76494295D01*
X128958458Y-76494295D02*
X128901316Y-76456200D01*
X128901316Y-76456200D02*
X128872744Y-76418104D01*
X128872744Y-76418104D02*
X128844173Y-76341914D01*
X128844173Y-76341914D02*
X128844173Y-76265723D01*
X128844173Y-76265723D02*
X128872744Y-76189533D01*
X128872744Y-76189533D02*
X128901316Y-76151438D01*
X128901316Y-76151438D02*
X128958458Y-76113342D01*
X128958458Y-76113342D02*
X129072744Y-76075247D01*
X129072744Y-76075247D02*
X129129887Y-76037152D01*
X129129887Y-76037152D02*
X129158458Y-75999057D01*
X129158458Y-75999057D02*
X129187030Y-75922866D01*
X129187030Y-75922866D02*
X129187030Y-75846676D01*
X129187030Y-75846676D02*
X129158458Y-75770485D01*
X129158458Y-75770485D02*
X129129887Y-75732390D01*
X129129887Y-75732390D02*
X129072744Y-75694295D01*
X129072744Y-75694295D02*
X128929887Y-75694295D01*
X128929887Y-75694295D02*
X128844173Y-75732390D01*
X128272744Y-76494295D02*
X128615601Y-76494295D01*
X128444172Y-76494295D02*
X128444172Y-75694295D01*
X128444172Y-75694295D02*
X128501315Y-75808580D01*
X128501315Y-75808580D02*
X128558458Y-75884771D01*
X128558458Y-75884771D02*
X128615601Y-75922866D01*
X143287030Y-76556200D02*
X143201316Y-76594295D01*
X143201316Y-76594295D02*
X143058458Y-76594295D01*
X143058458Y-76594295D02*
X143001316Y-76556200D01*
X143001316Y-76556200D02*
X142972744Y-76518104D01*
X142972744Y-76518104D02*
X142944173Y-76441914D01*
X142944173Y-76441914D02*
X142944173Y-76365723D01*
X142944173Y-76365723D02*
X142972744Y-76289533D01*
X142972744Y-76289533D02*
X143001316Y-76251438D01*
X143001316Y-76251438D02*
X143058458Y-76213342D01*
X143058458Y-76213342D02*
X143172744Y-76175247D01*
X143172744Y-76175247D02*
X143229887Y-76137152D01*
X143229887Y-76137152D02*
X143258458Y-76099057D01*
X143258458Y-76099057D02*
X143287030Y-76022866D01*
X143287030Y-76022866D02*
X143287030Y-75946676D01*
X143287030Y-75946676D02*
X143258458Y-75870485D01*
X143258458Y-75870485D02*
X143229887Y-75832390D01*
X143229887Y-75832390D02*
X143172744Y-75794295D01*
X143172744Y-75794295D02*
X143029887Y-75794295D01*
X143029887Y-75794295D02*
X142944173Y-75832390D01*
X142687029Y-76594295D02*
X142687029Y-75794295D01*
X142687029Y-75794295D02*
X142544172Y-75794295D01*
X142544172Y-75794295D02*
X142458458Y-75832390D01*
X142458458Y-75832390D02*
X142401315Y-75908580D01*
X142401315Y-75908580D02*
X142372744Y-75984771D01*
X142372744Y-75984771D02*
X142344172Y-76137152D01*
X142344172Y-76137152D02*
X142344172Y-76251438D01*
X142344172Y-76251438D02*
X142372744Y-76403819D01*
X142372744Y-76403819D02*
X142401315Y-76480009D01*
X142401315Y-76480009D02*
X142458458Y-76556200D01*
X142458458Y-76556200D02*
X142544172Y-76594295D01*
X142544172Y-76594295D02*
X142687029Y-76594295D01*
X142115601Y-76365723D02*
X141829887Y-76365723D01*
X142172744Y-76594295D02*
X141972744Y-75794295D01*
X141972744Y-75794295D02*
X141772744Y-76594295D01*
X101758458Y-92175247D02*
X101672744Y-92213342D01*
X101672744Y-92213342D02*
X101644173Y-92251438D01*
X101644173Y-92251438D02*
X101615601Y-92327628D01*
X101615601Y-92327628D02*
X101615601Y-92441914D01*
X101615601Y-92441914D02*
X101644173Y-92518104D01*
X101644173Y-92518104D02*
X101672744Y-92556200D01*
X101672744Y-92556200D02*
X101729887Y-92594295D01*
X101729887Y-92594295D02*
X101958458Y-92594295D01*
X101958458Y-92594295D02*
X101958458Y-91794295D01*
X101958458Y-91794295D02*
X101758458Y-91794295D01*
X101758458Y-91794295D02*
X101701316Y-91832390D01*
X101701316Y-91832390D02*
X101672744Y-91870485D01*
X101672744Y-91870485D02*
X101644173Y-91946676D01*
X101644173Y-91946676D02*
X101644173Y-92022866D01*
X101644173Y-92022866D02*
X101672744Y-92099057D01*
X101672744Y-92099057D02*
X101701316Y-92137152D01*
X101701316Y-92137152D02*
X101758458Y-92175247D01*
X101758458Y-92175247D02*
X101958458Y-92175247D01*
X101358458Y-92289533D02*
X100901316Y-92289533D01*
X101129887Y-92594295D02*
X101129887Y-91984771D01*
D11*
%TO.C,C23*%
X121607836Y-77040000D02*
X121392164Y-77040000D01*
X121607836Y-77760000D02*
X121392164Y-77760000D01*
%TO.C,R3*%
X147448000Y-83973641D02*
X147448000Y-83666359D01*
X148208000Y-83973641D02*
X148208000Y-83666359D01*
%TO.C,C32*%
X127740000Y-83792164D02*
X127740000Y-84007836D01*
X128460000Y-83792164D02*
X128460000Y-84007836D01*
%TO.C,C31*%
X128440000Y-95172164D02*
X128440000Y-95387836D01*
X129160000Y-95172164D02*
X129160000Y-95387836D01*
D12*
%TO.C,D3*%
X118006000Y-74930000D02*
X117706000Y-74930000D01*
D11*
%TO.C,U2*%
X137910000Y-78390000D02*
X134150000Y-78390000D01*
X137910000Y-79650000D02*
X137910000Y-78390000D01*
X137910000Y-83950000D02*
X137910000Y-85210000D01*
X137910000Y-85210000D02*
X134150000Y-85210000D01*
X133110000Y-85440000D02*
X132630000Y-85440000D01*
X132870000Y-85110000D01*
X133110000Y-85440000D01*
G36*
X133110000Y-85440000D02*
G01*
X132630000Y-85440000D01*
X132870000Y-85110000D01*
X133110000Y-85440000D01*
G37*
%TO.C,U6*%
X110899000Y-86600000D02*
X110899000Y-87000000D01*
X127099000Y-86600000D02*
X110899000Y-86600000D01*
X127099000Y-87000000D02*
X127099000Y-86600000D01*
X127099000Y-102400000D02*
X127099000Y-102800000D01*
X127099000Y-102800000D02*
X110899000Y-102800000D01*
X110639000Y-102936000D02*
X110159000Y-102936000D01*
X110399000Y-102600000D01*
X110639000Y-102936000D01*
G36*
X110639000Y-102936000D02*
G01*
X110159000Y-102936000D01*
X110399000Y-102600000D01*
X110639000Y-102936000D01*
G37*
D13*
%TO.C,IC1*%
X147253000Y-85198000D02*
G75*
G02*
X147003000Y-85198000I-125000J0D01*
G01*
X147003000Y-85198000D02*
G75*
G02*
X147253000Y-85198000I125000J0D01*
G01*
D11*
%TO.C,C8*%
X141040000Y-81692164D02*
X141040000Y-81907836D01*
X141760000Y-81692164D02*
X141760000Y-81907836D01*
%TO.C,D7*%
X128346359Y-79020000D02*
X128653641Y-79020000D01*
X128346359Y-79780000D02*
X128653641Y-79780000D01*
%TO.C,C16*%
X149373000Y-90404836D02*
X149373000Y-90189164D01*
X150093000Y-90404836D02*
X150093000Y-90189164D01*
%TO.C,C15*%
X149713836Y-83968000D02*
X149498164Y-83968000D01*
X149713836Y-84688000D02*
X149498164Y-84688000D01*
%TO.C,J7*%
X121332000Y-72968000D02*
X124032000Y-72968000D01*
X121922000Y-75688000D02*
X121282000Y-75688000D01*
X123442000Y-75688000D02*
X124082000Y-75688000D01*
X123442000Y-76318000D02*
X123442000Y-75688000D01*
%TO.C,C17*%
X147468000Y-90404836D02*
X147468000Y-90189164D01*
X148188000Y-90404836D02*
X148188000Y-90189164D01*
D14*
%TO.C,IC2*%
X104163000Y-83140000D02*
X104163000Y-83140000D01*
X104263000Y-83140000D02*
X104263000Y-83140000D01*
D12*
X115163000Y-73690000D02*
X105563000Y-73690000D01*
X115163000Y-83790000D02*
X105563000Y-83790000D01*
D14*
X104163000Y-83140000D02*
G75*
G02*
X104263000Y-83140000I50000J0D01*
G01*
X104263000Y-83140000D02*
G75*
G02*
X104163000Y-83140000I-50000J0D01*
G01*
D11*
%TO.C,FB3*%
X127440580Y-85090000D02*
X127159420Y-85090000D01*
X127440580Y-86110000D02*
X127159420Y-86110000D01*
%TO.C,J9*%
X119840000Y-85250000D02*
X119840000Y-82550000D01*
X122560000Y-83140000D02*
X122560000Y-82500000D01*
X122560000Y-84660000D02*
X122560000Y-85300000D01*
X123190000Y-83140000D02*
X122560000Y-83140000D01*
%TO.C,C7*%
X130340000Y-80007836D02*
X130340000Y-79792164D01*
X131060000Y-80007836D02*
X131060000Y-79792164D01*
D14*
%TO.C,D2*%
X146250000Y-82730000D02*
G75*
G02*
X146150000Y-82730000I-50000J0D01*
G01*
X146150000Y-82730000D02*
G75*
G02*
X146250000Y-82730000I50000J0D01*
G01*
%TO.C,J3*%
X131249000Y-86500000D02*
X131249000Y-87625000D01*
X131249000Y-90125000D02*
X131249000Y-95925000D01*
X131249000Y-100950000D02*
X131249000Y-98225000D01*
X144824000Y-91025000D02*
X144824000Y-91025000D01*
X144824000Y-91125000D02*
X144824000Y-91125000D01*
X144849000Y-86500000D02*
X131249000Y-86500000D01*
X144849000Y-87625000D02*
X144849000Y-86500000D01*
X144849000Y-90125000D02*
X144849000Y-95925000D01*
X144849000Y-98325000D02*
X144849000Y-100950000D01*
X144849000Y-100950000D02*
X131249000Y-100950000D01*
X144824000Y-91025000D02*
G75*
G02*
X144824000Y-91125000I0J-50000D01*
G01*
X144824000Y-91125000D02*
G75*
G02*
X144824000Y-91025000I0J50000D01*
G01*
D11*
%TO.C,FB2*%
X118870000Y-76467580D02*
X118870000Y-76186420D01*
X119890000Y-76467580D02*
X119890000Y-76186420D01*
%TO.C,R11*%
X117476000Y-77750641D02*
X117476000Y-77443359D01*
X118236000Y-77750641D02*
X118236000Y-77443359D01*
%TD*%
M02*
